SplineFontDB: 1.0
FontName: DejaVuSansMono
FullName: DejaVu Sans Mono
FamilyName: DejaVu Sans Mono
Weight: Book
Copyright: Copyright (c) 2003 by Bitstream, Inc. All Rights Reserved.\nDejaVu changes are in public domain\n
Version: 2.13
ItalicAngle: 0
UnderlinePosition: -85
UnderlineWidth: 90
Ascent: 1556
Descent: 492
Order2: 1
NeedsXUIDChange: 1
FSType: 0
OS2Version: 0
OS2_WeightWidthSlopeOnly: 0
OS2_UseTypoMetrics: 0
PfmFamily: 17
TTFWeight: 400
TTFWidth: 5
LineGap: 0
VLineGap: 0
Panose: 2 11 6 9 3 8 4 2 2 4
OS2TypoAscent: 1556
OS2TypoAOffset: 0
OS2TypoDescent: -492
OS2TypoDOffset: 0
OS2TypoLinegap: 410
OS2WinAscent: 1901
OS2WinAOffset: 0
OS2WinDescent: 483
OS2WinDOffset: 0
HheadAscent: 1901
HheadAOffset: 0
HheadDescent: -483
HheadDOffset: 0
OS2Vendor: 'PfEd'
ScriptLang: 6
 1 DFLT 1 dflt 
 1 latn 1 dflt 
 1 cyrl 1 dflt 
 1 cyrl 1 SRB  
 1 lao  1 dflt 
 1 arab 1 dflt 
TtfTable: prep 1819
\H79^'sa'0"[O+/'`aO"!s',:J,f]Q'EJ+4!s'&8rW!$$&c`OE!s&u6rW!$$&-2\0!s&o4RK*Ej
%KQJ.!s&k:lUM+E,lnGTI/j?M$ihRR!s&c01&qCW$36@l!s&].rW!$$#QP>7!s&W,rW!$$"ooqL
!s&Q*rW!$$"98o3!s&K(,le#J!W`3"!s&Ef=oJO&rWE+I"8r-#qu-]o1'@?a"8I9Hp\'OLp\k9h
^]aB(=U"MX"876Jp%0R7oiVCi5Qp^+"7u(:"nVQmnh1+8rWDZh"7IuImM#cjQ36L>7g88Y"73Pt
d6R^7lUM'Bl!st_Q36A^"6f^dkN3]ekPbSG)[#4$"6=5"j8K/?]*%$M)$T!q"5k%!hj+B$rWD!U
"5MWG"l0(ZgD'hEQ35gm'a<:i"5&S@"kXOlf6mbP3Wmol$O,'A"4[;Pe'\R,e,BHt$3S]T"47#L
c\`;<cQ!&4('Dh\"3d&5bDRYMbPhUdrWC8j"3CHDa8Q1\rWC-.%0a]L"2k*?_YsYRrWBrq$O+<[
"2>6H^:h,^^A\5J]Nk]S]*#`s"MD>m"h\+C]KcV3,m1aX"1a^"\;roZ\,HK<O$NrXq?+-o%0a-<
"1)M?Z=F'B%KipJ"0_\+Y5U]b"0MP)XSr=&&d,05"0&4/"fX6ZW"&p-V@a!0-j-=Y"/VeF"f6VL
Ub)\DrWAno"/5\rTV!)*TO\.sSe)'t)$?HA".]c$SGiV[RLKFirWASu".>N/"e#>lQnAK-O$Nr9
Q33G<]*4N""-o*V"dQ\%Q%0"%O<k'p>m$<V"I&feP5YQGO<k'm]*"-@"-8?d"ckqONf=DMNYDST
$Nl?G,mB6<",i$K"cFZ/M@frIrW@uU",HjXL4p3CLAh:/&Hd^c",$RTJe:<QJl;c&rW@[q"+PcJ
"b6LRIXM<H*Wpfh"+(L[HN""jrW@?C"*J\o"a(=XFgqGP5hZ?_$j1Ue"EP1XF$KkKrW@0>"*"5A
Df/JWDjCKCD(#R*;Zgkb")Rr=CGH!,rW?ji").N5B=e7XrW?a2"(_B5@q$J_A,ZR>!"]<C*WojM

StartChar: .notdef
Encoding: 0 -1 0
AltUni: 0
Width: 1233
Flags: W
Fore
104 -362 m 1,0,-1
 104 1444 l 1,1,-1
 1128 1444 l 1,2,-1
 1128 -362 l 1,3,-1
 104 -362 l 1,0,-1
219 -248 m 1,4,-1
 1014 -248 l 1,5,-1
 1014 1329 l 1,6,-1
 219 1329 l 1,7,-1
 219 -248 l 1,4,-1
EndSplineSet
EndChar
StartChar: exclam
Encoding: 33 33 33
Width: 1233
Flags: W
Fore
516 1493 m 1,0,-1
 719 1493 l 1,1,-1
 719 838 l 1,2,-1
 698 481 l 1,3,-1
 537 481 l 1,4,-1
 516 838 l 1,5,-1
 516 1493 l 1,0,-1
516 254 m 1,6,-1
 719 254 l 1,7,-1
 719 0 l 1,8,-1
 516 0 l 1,9,-1
 516 254 l 1,6,-1
EndSplineSet
EndChar
StartChar: quotedbl
Encoding: 34 34 34
Width: 1233
Flags: W
Fore
895 1493 m 1,0,-1
 895 938 l 1,1,-1
 721 938 l 1,2,-1
 721 1493 l 1,3,-1
 895 1493 l 1,0,-1
512 1493 m 1,4,-1
 512 938 l 1,5,-1
 338 938 l 1,6,-1
 338 1493 l 1,7,-1
 512 1493 l 1,4,-1
EndSplineSet
EndChar
StartChar: numbersign
Encoding: 35 35 35
Width: 1233
Flags: W
Fore
684 1470 m 1,0,-1
 580 1055 l 1,1,-1
 825 1055 l 1,2,-1
 930 1470 l 1,3,-1
 1090 1470 l 1,4,-1
 985 1055 l 1,5,-1
 1229 1055 l 1,6,-1
 1229 901 l 1,7,-1
 948 901 l 1,8,-1
 864 567 l 1,9,-1
 1114 567 l 1,10,-1
 1114 414 l 1,11,-1
 825 414 l 1,12,-1
 721 0 l 1,13,-1
 561 0 l 1,14,-1
 666 414 l 1,15,-1
 420 414 l 1,16,-1
 315 0 l 1,17,-1
 156 0 l 1,18,-1
 260 414 l 1,19,-1
 2 414 l 1,20,-1
 2 567 l 1,21,-1
 299 567 l 1,22,-1
 383 901 l 1,23,-1
 117 901 l 1,24,-1
 117 1055 l 1,25,-1
 420 1055 l 1,26,-1
 524 1470 l 1,27,-1
 684 1470 l 1,0,-1
788 901 m 1,28,-1
 543 901 l 1,29,-1
 459 567 l 1,30,-1
 705 567 l 1,31,-1
 788 901 l 1,28,-1
EndSplineSet
EndChar
StartChar: dollar
Encoding: 36 36 36
Width: 1233
Flags: W
Fore
692 580 m 1,0,-1
 692 146 l 1,1,2
 802 149 802 149 864 207 c 128,-1,3
 926 265 926 265 926 365 c 0,4,5
 926 458 926 458 870 509.5 c 128,-1,6
 814 561 814 561 692 580 c 1,0,-1
592 770 m 1,7,-1
 592 1183 l 1,8,9
 488 1179 488 1179 429.5 1123 c 128,-1,10
 371 1067 371 1067 371 973 c 0,11,12
 371 887 371 887 425.5 837 c 128,-1,13
 480 787 480 787 592 770 c 1,7,-1
692 -301 m 1,14,-1
 592 -301 l 1,15,-1
 591 0 l 1,16,17
 489 5 489 5 388.5 28 c 128,-1,18
 288 51 288 51 190 92 c 1,19,-1
 190 272 l 1,20,21
 290 210 290 210 391.5 177 c 128,-1,22
 493 144 493 144 592 142 c 1,23,-1
 592 600 l 1,24,25
 392 631 392 631 291 722 c 128,-1,26
 190 813 190 813 190 963 c 0,27,28
 190 1120 190 1120 295.5 1213.5 c 128,-1,29
 401 1307 401 1307 592 1321 c 1,30,-1
 592 1556 l 1,31,-1
 692 1556 l 1,32,-1
 693 1321 l 1,33,34
 772 1316 772 1316 853 1301 c 128,-1,35
 934 1286 934 1286 1018 1260 c 1,36,-1
 1018 1087 l 1,37,38
 933 1130 933 1130 852.5 1153.5 c 128,-1,39
 772 1177 772 1177 692 1181 c 1,40,-1
 692 750 l 1,41,42
 898 719 898 719 1006 622 c 128,-1,43
 1114 525 1114 525 1114 371 c 0,44,45
 1114 217 1114 217 997.5 114 c 128,-1,46
 881 11 881 11 693 2 c 1,47,-1
 692 -301 l 1,14,-1
EndSplineSet
EndChar
StartChar: percent
Encoding: 37 37 37
Width: 1233
Flags: W
Fore
696 319 m 0,0,1
 696 241 696 241 748.5 188 c 128,-1,2
 801 135 801 135 879 135 c 0,3,4
 956 135 956 135 1009.5 188.5 c 128,-1,5
 1063 242 1063 242 1063 319 c 0,6,7
 1063 396 1063 396 1009 450 c 128,-1,8
 955 504 955 504 879 504 c 0,9,10
 801 504 801 504 748.5 451 c 128,-1,11
 696 398 696 398 696 319 c 0,0,1
561 319 m 0,12,13
 561 454 561 454 653 546.5 c 128,-1,14
 745 639 745 639 879 639 c 0,15,16
 943 639 943 639 1000.5 615 c 128,-1,17
 1058 591 1058 591 1104 545 c 0,18,19
 1150 498 1150 498 1175 440 c 128,-1,20
 1200 382 1200 382 1200 319 c 0,21,22
 1200 186 1200 186 1107 93 c 128,-1,23
 1014 0 1014 0 879 0 c 0,24,25
 743 0 743 0 652 91.5 c 128,-1,26
 561 183 561 183 561 319 c 0,12,13
121 465 m 1,27,-1
 86 561 l 1,28,-1
 1128 979 l 1,29,-1
 1169 883 l 1,30,-1
 121 465 l 1,27,-1
168 1112 m 0,31,32
 168 1033 168 1033 220.5 980.5 c 128,-1,33
 273 928 273 928 352 928 c 0,34,35
 429 928 429 928 483 981.5 c 128,-1,36
 537 1035 537 1035 537 1112 c 0,37,38
 537 1189 537 1189 483 1242.5 c 128,-1,39
 429 1296 429 1296 352 1296 c 0,40,41
 275 1296 275 1296 221.5 1243 c 128,-1,42
 168 1190 168 1190 168 1112 c 0,31,32
33 1112 m 0,43,44
 33 1247 33 1247 125 1339.5 c 128,-1,45
 217 1432 217 1432 352 1432 c 0,46,47
 416 1432 416 1432 474.5 1408 c 128,-1,48
 533 1384 533 1384 578 1339 c 0,49,50
 623 1294 623 1294 647.5 1235.5 c 128,-1,51
 672 1177 672 1177 672 1112 c 0,52,53
 672 978 672 978 579 885.5 c 128,-1,54
 486 793 486 793 352 793 c 0,55,56
 217 793 217 793 125 885 c 128,-1,57
 33 977 33 977 33 1112 c 0,43,44
EndSplineSet
EndChar
StartChar: ampersand
Encoding: 38 38 38
Width: 1233
Flags: W
Fore
547 907 m 2,0,-1
 963 348 l 1,1,2
 1002 397 1002 397 1021 472 c 128,-1,3
 1040 547 1040 547 1040 651 c 0,4,5
 1040 683 1040 683 1037 753 c 1,6,-1
 1036 760 l 1,7,-1
 1200 760 l 1,8,-1
 1200 721 l 2,9,10
 1200 560 1200 560 1163 438.5 c 128,-1,11
 1126 317 1126 317 1051 229 c 1,12,-1
 1221 0 l 1,13,-1
 1008 0 l 1,14,-1
 930 109 l 1,15,16
 847 39 847 39 754 5 c 128,-1,17
 661 -29 661 -29 555 -29 c 0,18,19
 339 -29 339 -29 198 105.5 c 128,-1,20
 57 240 57 240 57 444 c 0,21,22
 57 581 57 581 126 698 c 128,-1,23
 195 815 195 815 334 915 c 1,24,25
 284 987 284 987 260 1056 c 128,-1,26
 236 1125 236 1125 236 1196 c 0,27,28
 236 1346 236 1346 335.5 1433 c 128,-1,29
 435 1520 435 1520 608 1520 c 0,30,31
 673 1520 673 1520 738.5 1508 c 128,-1,32
 804 1496 804 1496 874 1473 c 1,33,-1
 874 1290 l 1,34,35
 815 1329 815 1329 752.5 1347.5 c 128,-1,36
 690 1366 690 1366 621 1366 c 0,37,38
 524 1366 524 1366 468 1320.5 c 128,-1,39
 412 1275 412 1275 412 1198 c 0,40,41
 412 1139 412 1139 441 1074.5 c 128,-1,42
 470 1010 470 1010 547 907 c 2,0,-1
416 803 m 1,43,44
 324 730 324 730 278.5 648.5 c 128,-1,45
 233 567 233 567 233 475 c 0,46,47
 233 324 233 324 333 224.5 c 128,-1,48
 433 125 433 125 588 125 c 0,49,50
 630 125 630 125 676 137 c 128,-1,51
 722 149 722 149 766 172 c 0,52,53
 793 187 793 187 810.5 198.5 c 128,-1,54
 828 210 828 210 844 223 c 1,55,-1
 416 803 l 1,43,44
EndSplineSet
EndChar
StartChar: quotesingle
Encoding: 39 39 39
Width: 1233
Flags: W
Fore
702 1493 m 1,0,-1
 702 938 l 1,1,-1
 528 938 l 1,2,-1
 528 1493 l 1,3,-1
 702 1493 l 1,0,-1
EndSplineSet
EndChar
StartChar: parenleft
Encoding: 40 40 40
Width: 1233
Flags: W
Fore
885 1554 m 1,0,1
 752 1326 752 1326 686.5 1099.5 c 128,-1,2
 621 873 621 873 621 643 c 0,3,4
 621 414 621 414 686.5 187 c 128,-1,5
 752 -40 752 -40 885 -270 c 1,6,-1
 725 -270 l 1,7,8
 574 -32 574 -32 500 193.5 c 128,-1,9
 426 419 426 419 426 643 c 0,10,11
 426 866 426 866 500 1092 c 128,-1,12
 574 1318 574 1318 725 1554 c 1,13,-1
 885 1554 l 1,0,1
EndSplineSet
EndChar
StartChar: parenright
Encoding: 41 41 41
Width: 1233
Flags: W
Fore
348 1554 m 1,0,-1
 508 1554 l 1,1,2
 659 1318 659 1318 733 1092 c 128,-1,3
 807 866 807 866 807 643 c 0,4,5
 807 418 807 418 733 192 c 128,-1,6
 659 -34 659 -34 508 -270 c 1,7,-1
 348 -270 l 1,8,9
 481 -38 481 -38 546.5 189 c 128,-1,10
 612 416 612 416 612 643 c 0,11,12
 612 871 612 871 546.5 1098 c 128,-1,13
 481 1325 481 1325 348 1554 c 1,0,-1
EndSplineSet
EndChar
StartChar: asterisk
Encoding: 42 42 42
Width: 1233
Flags: W
Fore
1067 1247 m 1,0,-1
 709 1053 l 1,1,-1
 1067 858 l 1,2,-1
 1010 760 l 1,3,-1
 674 963 l 1,4,-1
 674 586 l 1,5,-1
 559 586 l 1,6,-1
 559 963 l 1,7,-1
 223 760 l 1,8,-1
 166 858 l 1,9,-1
 524 1053 l 1,10,-1
 166 1247 l 1,11,-1
 223 1346 l 1,12,-1
 559 1143 l 1,13,-1
 559 1520 l 1,14,-1
 674 1520 l 1,15,-1
 674 1143 l 1,16,-1
 1010 1346 l 1,17,-1
 1067 1247 l 1,0,-1
EndSplineSet
EndChar
StartChar: plus
Encoding: 43 43 43
Width: 1233
Flags: W
Fore
700 1171 m 1,0,-1
 700 727 l 1,1,-1
 1145 727 l 1,2,-1
 1145 557 l 1,3,-1
 700 557 l 1,4,-1
 700 113 l 1,5,-1
 532 113 l 1,6,-1
 532 557 l 1,7,-1
 88 557 l 1,8,-1
 88 727 l 1,9,-1
 532 727 l 1,10,-1
 532 1171 l 1,11,-1
 700 1171 l 1,0,-1
EndSplineSet
EndChar
StartChar: comma
Encoding: 44 44 44
Width: 1233
Flags: W
Fore
502 303 m 1,0,-1
 754 303 l 1,1,-1
 754 96 l 1,2,-1
 557 -287 l 1,3,-1
 403 -287 l 1,4,-1
 502 96 l 1,5,-1
 502 303 l 1,0,-1
EndSplineSet
EndChar
StartChar: hyphen
Encoding: 45 45 45
Width: 1233
Flags: W
Fore
356 643 m 1,0,-1
 877 643 l 1,1,-1
 877 479 l 1,2,-1
 356 479 l 1,3,-1
 356 643 l 1,0,-1
EndSplineSet
EndChar
StartChar: period
Encoding: 46 46 46
Width: 1233
Flags: W
Fore
489 305 m 1,0,-1
 741 305 l 1,1,-1
 741 0 l 1,2,-1
 489 0 l 1,3,-1
 489 305 l 1,0,-1
EndSplineSet
EndChar
StartChar: slash
Encoding: 47 47 47
Width: 1233
Flags: W
Fore
889 1493 m 1,0,-1
 1079 1493 l 1,1,-1
 293 -190 l 1,2,-1
 102 -190 l 1,3,-1
 889 1493 l 1,0,-1
EndSplineSet
EndChar
StartChar: zero
Encoding: 48 48 48
Width: 1233
Flags: W
Fore
483 750 m 0,0,1
 483 805 483 805 521.5 845 c 128,-1,2
 560 885 560 885 614 885 c 0,3,4
 670 885 670 885 710 845 c 128,-1,5
 750 805 750 805 750 750 c 0,6,7
 750 694 750 694 710.5 655 c 128,-1,8
 671 616 671 616 614 616 c 0,9,10
 558 616 558 616 520.5 654 c 128,-1,11
 483 692 483 692 483 750 c 0,0,1
616 1360 m 0,12,13
 475 1360 475 1360 405.5 1208 c 128,-1,14
 336 1056 336 1056 336 745 c 0,15,16
 336 435 336 435 405.5 283 c 128,-1,17
 475 131 475 131 616 131 c 0,18,19
 758 131 758 131 827.5 283 c 128,-1,20
 897 435 897 435 897 745 c 0,21,22
 897 1056 897 1056 827.5 1208 c 128,-1,23
 758 1360 758 1360 616 1360 c 0,12,13
616 1520 m 0,24,25
 855 1520 855 1520 977.5 1324 c 128,-1,26
 1100 1128 1100 1128 1100 745 c 0,27,28
 1100 363 1100 363 977.5 167 c 128,-1,29
 855 -29 855 -29 616 -29 c 0,30,31
 377 -29 377 -29 255 167 c 128,-1,32
 133 363 133 363 133 745 c 0,33,34
 133 1128 133 1128 255 1324 c 128,-1,35
 377 1520 377 1520 616 1520 c 0,24,25
EndSplineSet
EndChar
StartChar: one
Encoding: 49 49 49
Width: 1233
Flags: W
Fore
270 170 m 1,0,-1
 584 170 l 1,1,-1
 584 1311 l 1,2,-1
 246 1235 l 1,3,-1
 246 1419 l 1,4,-1
 582 1493 l 1,5,-1
 784 1493 l 1,6,-1
 784 170 l 1,7,-1
 1094 170 l 1,8,-1
 1094 0 l 1,9,-1
 270 0 l 1,10,-1
 270 170 l 1,0,-1
EndSplineSet
EndChar
StartChar: two
Encoding: 50 50 50
Width: 1233
Flags: W
Fore
373 170 m 1,0,-1
 1059 170 l 1,1,-1
 1059 0 l 1,2,-1
 152 0 l 1,3,-1
 152 170 l 1,4,5
 339 367 339 367 479 518 c 128,-1,6
 619 669 619 669 672 731 c 1,7,8
 772 853 772 853 807 928.5 c 128,-1,9
 842 1004 842 1004 842 1083 c 0,10,11
 842 1208 842 1208 768.5 1279 c 128,-1,12
 695 1350 695 1350 567 1350 c 0,13,14
 476 1350 476 1350 376 1317 c 128,-1,15
 276 1284 276 1284 164 1217 c 1,16,-1
 164 1421 l 1,17,18
 267 1470 267 1470 366.5 1495 c 128,-1,19
 466 1520 466 1520 563 1520 c 0,20,21
 782 1520 782 1520 915.5 1403.5 c 128,-1,22
 1049 1287 1049 1287 1049 1098 c 0,23,24
 1049 1002 1049 1002 1004.5 906 c 128,-1,25
 960 810 960 810 860 694 c 0,26,27
 804 629 804 629 697.5 514 c 128,-1,28
 591 399 591 399 373 170 c 1,0,-1
EndSplineSet
EndChar
StartChar: three
Encoding: 51 51 51
Width: 1233
Flags: W
Fore
776 799 m 1,0,1
 923 760 923 760 1001 660.5 c 128,-1,2
 1079 561 1079 561 1079 412 c 0,3,4
 1079 206 1079 206 940.5 88.5 c 128,-1,5
 802 -29 802 -29 557 -29 c 0,6,7
 454 -29 454 -29 347 -10 c 128,-1,8
 240 9 240 9 137 45 c 1,9,-1
 137 246 l 1,10,11
 239 193 239 193 338 167 c 128,-1,12
 437 141 437 141 535 141 c 0,13,14
 701 141 701 141 790 216 c 128,-1,15
 879 291 879 291 879 432 c 0,16,17
 879 562 879 562 790 638.5 c 128,-1,18
 701 715 701 715 549 715 c 2,19,-1
 395 715 l 1,20,-1
 395 881 l 1,21,-1
 549 881 l 2,22,23
 688 881 688 881 766 942 c 128,-1,24
 844 1003 844 1003 844 1112 c 0,25,26
 844 1227 844 1227 771.5 1288.5 c 128,-1,27
 699 1350 699 1350 565 1350 c 0,28,29
 476 1350 476 1350 381 1330 c 128,-1,30
 286 1310 286 1310 182 1270 c 1,31,-1
 182 1456 l 1,32,33
 303 1488 303 1488 397.5 1504 c 128,-1,34
 492 1520 492 1520 565 1520 c 0,35,36
 783 1520 783 1520 913.5 1410.5 c 128,-1,37
 1044 1301 1044 1301 1044 1120 c 0,38,39
 1044 997 1044 997 975.5 915 c 128,-1,40
 907 833 907 833 776 799 c 1,0,1
EndSplineSet
EndChar
StartChar: four
Encoding: 52 52 52
Width: 1233
Flags: W
Fore
735 1309 m 1,0,-1
 264 520 l 1,1,-1
 735 520 l 1,2,-1
 735 1309 l 1,0,-1
702 1493 m 1,3,-1
 936 1493 l 1,4,-1
 936 520 l 1,5,-1
 1135 520 l 1,6,-1
 1135 356 l 1,7,-1
 936 356 l 1,8,-1
 936 0 l 1,9,-1
 735 0 l 1,10,-1
 735 356 l 1,11,-1
 102 356 l 1,12,-1
 102 547 l 1,13,-1
 702 1493 l 1,3,-1
EndSplineSet
EndChar
StartChar: five
Encoding: 53 53 53
Width: 1233
Flags: W
Fore
207 1493 m 1,0,-1
 963 1493 l 1,1,-1
 963 1323 l 1,2,-1
 391 1323 l 1,3,-1
 391 956 l 1,4,5
 434 972 434 972 477.5 979.5 c 128,-1,6
 521 987 521 987 565 987 c 0,7,8
 797 987 797 987 933 850 c 128,-1,9
 1069 713 1069 713 1069 479 c 0,10,11
 1069 243 1069 243 926.5 107 c 128,-1,12
 784 -29 784 -29 537 -29 c 0,13,14
 418 -29 418 -29 319.5 -13 c 128,-1,15
 221 3 221 3 143 35 c 1,16,-1
 143 240 l 1,17,18
 235 190 235 190 328 165.5 c 128,-1,19
 421 141 421 141 518 141 c 0,20,21
 685 141 685 141 775.5 229 c 128,-1,22
 866 317 866 317 866 479 c 0,23,24
 866 639 866 639 772.5 728 c 128,-1,25
 679 817 679 817 512 817 c 0,26,27
 431 817 431 817 354 798.5 c 128,-1,28
 277 780 277 780 207 743 c 1,29,-1
 207 1493 l 1,0,-1
EndSplineSet
EndChar
StartChar: six
Encoding: 54 54 54
Width: 1233
Flags: W
Fore
991 1460 m 1,0,-1
 991 1274 l 1,1,2
 928 1311 928 1311 857 1330.5 c 128,-1,3
 786 1350 786 1350 709 1350 c 0,4,5
 517 1350 517 1350 418 1205.5 c 128,-1,6
 319 1061 319 1061 319 780 c 1,7,8
 367 880 367 880 452 933.5 c 128,-1,9
 537 987 537 987 647 987 c 0,10,11
 863 987 863 987 981.5 854.5 c 128,-1,12
 1100 722 1100 722 1100 479 c 0,13,14
 1100 237 1100 237 978 104 c 128,-1,15
 856 -29 856 -29 635 -29 c 0,16,17
 375 -29 375 -29 254 157.5 c 128,-1,18
 133 344 133 344 133 745 c 0,19,20
 133 1123 133 1123 278.5 1321.5 c 128,-1,21
 424 1520 424 1520 700 1520 c 0,22,23
 774 1520 774 1520 848 1504.5 c 128,-1,24
 922 1489 922 1489 991 1460 c 1,0,-1
631 829 m 0,25,26
 502 829 502 829 428 736 c 128,-1,27
 354 643 354 643 354 479 c 0,28,29
 354 315 354 315 428 222 c 128,-1,30
 502 129 502 129 631 129 c 0,31,32
 765 129 765 129 833 217.5 c 128,-1,33
 901 306 901 306 901 479 c 0,34,35
 901 653 901 653 833 741 c 128,-1,36
 765 829 765 829 631 829 c 0,25,26
EndSplineSet
EndChar
StartChar: seven
Encoding: 55 55 55
Width: 1233
Flags: W
Fore
139 1493 m 1,0,-1
 1079 1493 l 1,1,-1
 1079 1407 l 1,2,-1
 545 0 l 1,3,-1
 334 0 l 1,4,-1
 854 1323 l 1,5,-1
 139 1323 l 1,6,-1
 139 1493 l 1,0,-1
EndSplineSet
EndChar
StartChar: eight
Encoding: 56 56 56
Width: 1233
Flags: W
Fore
616 709 m 0,0,1
 481 709 481 709 407.5 633.5 c 128,-1,2
 334 558 334 558 334 420 c 0,3,4
 334 282 334 282 408.5 205.5 c 128,-1,5
 483 129 483 129 616 129 c 0,6,7
 752 129 752 129 825.5 204.5 c 128,-1,8
 899 280 899 280 899 420 c 0,9,10
 899 557 899 557 824.5 633 c 128,-1,11
 750 709 750 709 616 709 c 0,0,1
440 793 m 1,12,13
 311 826 311 826 238.5 916 c 128,-1,14
 166 1006 166 1006 166 1133 c 0,15,16
 166 1311 166 1311 287 1415.5 c 128,-1,17
 408 1520 408 1520 616 1520 c 0,18,19
 825 1520 825 1520 946 1415.5 c 128,-1,20
 1067 1311 1067 1311 1067 1133 c 0,21,22
 1067 1006 1067 1006 994.5 916 c 128,-1,23
 922 826 922 826 793 793 c 1,24,25
 943 760 943 760 1022.5 660 c 128,-1,26
 1102 560 1102 560 1102 401 c 0,27,28
 1102 199 1102 199 973 85 c 128,-1,29
 844 -29 844 -29 616 -29 c 0,30,31
 388 -29 388 -29 259.5 84.5 c 128,-1,32
 131 198 131 198 131 399 c 0,33,34
 131 559 131 559 210.5 659.5 c 128,-1,35
 290 760 290 760 440 793 c 1,12,13
367 1114 m 0,36,37
 367 994 367 994 431 931 c 128,-1,38
 495 868 495 868 616 868 c 0,39,40
 738 868 738 868 802 931 c 128,-1,41
 866 994 866 994 866 1114 c 0,42,43
 866 1236 866 1236 802.5 1300 c 128,-1,44
 739 1364 739 1364 616 1364 c 0,45,46
 495 1364 495 1364 431 1299.5 c 128,-1,47
 367 1235 367 1235 367 1114 c 0,36,37
EndSplineSet
EndChar
StartChar: nine
Encoding: 57 57 57
Width: 1233
Flags: W
Fore
596 662 m 0,0,1
 725 662 725 662 798.5 755 c 128,-1,2
 872 848 872 848 872 1012 c 0,3,4
 872 1176 872 1176 798.5 1269 c 128,-1,5
 725 1362 725 1362 596 1362 c 0,6,7
 462 1362 462 1362 394 1273.5 c 128,-1,8
 326 1185 326 1185 326 1012 c 0,9,10
 326 838 326 838 393.5 750 c 128,-1,11
 461 662 461 662 596 662 c 0,0,1
236 31 m 1,12,-1
 236 217 l 1,13,14
 299 180 299 180 370 160.5 c 128,-1,15
 441 141 441 141 518 141 c 0,16,17
 710 141 710 141 808.5 285.5 c 128,-1,18
 907 430 907 430 907 711 c 1,19,20
 860 611 860 611 775 557.5 c 128,-1,21
 690 504 690 504 580 504 c 0,22,23
 364 504 364 504 245.5 637 c 128,-1,24
 127 770 127 770 127 1014 c 0,25,26
 127 1255 127 1255 248.5 1387.5 c 128,-1,27
 370 1520 370 1520 592 1520 c 0,28,29
 852 1520 852 1520 973 1333 c 128,-1,30
 1094 1146 1094 1146 1094 745 c 0,31,32
 1094 368 1094 368 948.5 169.5 c 128,-1,33
 803 -29 803 -29 526 -29 c 0,34,35
 453 -29 453 -29 379 -13.5 c 128,-1,36
 305 2 305 2 236 31 c 1,12,-1
EndSplineSet
EndChar
StartChar: colon
Encoding: 58 58 58
Width: 1233
Flags: W
Fore
489 1063 m 1,0,-1
 741 1063 l 1,1,-1
 741 760 l 1,2,-1
 489 760 l 1,3,-1
 489 1063 l 1,0,-1
489 305 m 1,4,-1
 741 305 l 1,5,-1
 741 0 l 1,6,-1
 489 0 l 1,7,-1
 489 305 l 1,4,-1
EndSplineSet
EndChar
StartChar: semicolon
Encoding: 59 59 59
Width: 1233
Flags: W
Fore
502 303 m 1,0,-1
 754 303 l 1,1,-1
 754 96 l 1,2,-1
 557 -287 l 1,3,-1
 403 -287 l 1,4,-1
 502 96 l 1,5,-1
 502 303 l 1,0,-1
489 1063 m 1,6,-1
 741 1063 l 1,7,-1
 741 760 l 1,8,-1
 489 760 l 1,9,-1
 489 1063 l 1,6,-1
EndSplineSet
EndChar
StartChar: less
Encoding: 60 60 60
Width: 1233
Flags: W
Fore
1145 961 m 1,0,-1
 295 641 l 1,1,-1
 1145 324 l 1,2,-1
 1145 141 l 1,3,-1
 88 559 l 1,4,-1
 88 725 l 1,5,-1
 1145 1143 l 1,6,-1
 1145 961 l 1,0,-1
EndSplineSet
EndChar
StartChar: equal
Encoding: 61 61 61
Width: 1233
Flags: W
Fore
88 524 m 1,0,-1
 1145 524 l 1,1,-1
 1145 352 l 1,2,-1
 88 352 l 1,3,-1
 88 524 l 1,0,-1
88 930 m 1,4,-1
 1145 930 l 1,5,-1
 1145 760 l 1,6,-1
 88 760 l 1,7,-1
 88 930 l 1,4,-1
EndSplineSet
EndChar
StartChar: greater
Encoding: 62 62 62
Width: 1233
Flags: W
Fore
88 961 m 1,0,-1
 88 1143 l 1,1,-1
 1145 725 l 1,2,-1
 1145 559 l 1,3,-1
 88 141 l 1,4,-1
 88 324 l 1,5,-1
 938 641 l 1,6,-1
 88 961 l 1,0,-1
EndSplineSet
EndChar
StartChar: question
Encoding: 63 63 63
Width: 1233
Flags: W
Fore
684 401 m 1,0,-1
 494 401 l 1,1,-1
 494 555 l 2,2,3
 494 653 494 653 524.5 721.5 c 128,-1,4
 555 790 555 790 639 872 c 2,5,-1
 729 961 l 1,6,7
 791 1020 791 1020 814.5 1064 c 128,-1,8
 838 1108 838 1108 838 1157 c 0,9,10
 838 1246 838 1246 772.5 1301 c 128,-1,11
 707 1356 707 1356 598 1356 c 0,12,13
 520 1356 520 1356 431 1321.5 c 128,-1,14
 342 1287 342 1287 244 1219 c 1,15,-1
 244 1407 l 1,16,17
 338 1464 338 1464 433.5 1492 c 128,-1,18
 529 1520 529 1520 633 1520 c 0,19,20
 819 1520 819 1520 929.5 1424 c 128,-1,21
 1040 1328 1040 1328 1040 1167 c 0,22,23
 1040 1091 1040 1091 1006.5 1025.5 c 128,-1,24
 973 960 973 960 879 868 c 2,25,-1
 791 782 l 2,26,27
 722 716 722 716 703 674 c 128,-1,28
 684 632 684 632 684 571 c 2,29,-1
 684 524 l 1,30,-1
 684 401 l 1,0,-1
487 254 m 1,31,-1
 690 254 l 1,32,-1
 690 0 l 1,33,-1
 487 0 l 1,34,-1
 487 254 l 1,31,-1
EndSplineSet
EndChar
StartChar: at
Encoding: 64 64 64
Width: 1233
Flags: W
Fore
1038 545 m 0,0,1
 1038 674 1038 674 974 751.5 c 128,-1,2
 910 829 910 829 803 829 c 0,3,4
 696 829 696 829 631.5 751.5 c 128,-1,5
 567 674 567 674 567 545 c 0,6,7
 567 415 567 415 631.5 337.5 c 128,-1,8
 696 260 696 260 803 260 c 0,9,10
 910 260 910 260 974 337.5 c 128,-1,11
 1038 415 1038 415 1038 545 c 0,0,1
1178 135 m 1,12,-1
 1034 135 l 1,13,-1
 1034 246 l 1,14,15
 997 183 997 183 931.5 149 c 128,-1,16
 866 115 866 115 784 115 c 0,17,18
 623 115 623 115 517.5 236 c 128,-1,19
 412 357 412 357 412 545 c 0,20,21
 412 733 412 733 517.5 854 c 128,-1,22
 623 975 623 975 784 975 c 0,23,24
 864 975 864 975 931 940 c 128,-1,25
 998 905 998 905 1034 844 c 1,26,-1
 1034 907 l 2,27,28
 1034 1063 1034 1063 946 1158 c 128,-1,29
 858 1253 858 1253 713 1253 c 0,30,31
 467 1253 467 1253 321.5 1061.5 c 128,-1,32
 176 870 176 870 176 543 c 0,33,34
 176 214 176 214 341 19 c 128,-1,35
 506 -176 506 -176 780 -176 c 0,36,37
 834 -176 834 -176 888 -166 c 128,-1,38
 942 -156 942 -156 999 -135 c 1,39,-1
 1047 -270 l 1,40,41
 984 -295 984 -295 922.5 -307 c 128,-1,42
 861 -319 861 -319 803 -319 c 0,43,44
 446 -319 446 -319 236.5 -86 c 128,-1,45
 27 147 27 147 27 543 c 0,46,47
 27 933 27 933 215 1164 c 128,-1,48
 403 1395 403 1395 719 1395 c 0,49,50
 928 1395 928 1395 1053 1262 c 128,-1,51
 1178 1129 1178 1129 1178 905 c 2,52,-1
 1178 135 l 1,12,-1
EndSplineSet
EndChar
StartChar: A
Encoding: 65 65 65
Width: 1233
Flags: W
Fore
616 1315 m 1,0,-1
 403 551 l 1,1,-1
 829 551 l 1,2,-1
 616 1315 l 1,0,-1
494 1493 m 1,3,-1
 739 1493 l 1,4,-1
 1196 0 l 1,5,-1
 987 0 l 1,6,-1
 877 389 l 1,7,-1
 354 389 l 1,8,-1
 246 0 l 1,9,-1
 37 0 l 1,10,-1
 494 1493 l 1,3,-1
EndSplineSet
EndChar
StartChar: B
Encoding: 66 66 66
Width: 1233
Flags: W
Fore
369 713 m 1,0,-1
 369 166 l 1,1,-1
 608 166 l 2,2,3
 784 166 784 166 859 227.5 c 128,-1,4
 934 289 934 289 934 430 c 0,5,6
 934 576 934 576 855 644.5 c 128,-1,7
 776 713 776 713 608 713 c 2,8,-1
 369 713 l 1,0,-1
369 1327 m 1,9,-1
 369 877 l 1,10,-1
 604 877 l 2,11,12
 750 877 750 877 815.5 933 c 128,-1,13
 881 989 881 989 881 1114 c 0,14,15
 881 1227 881 1227 816.5 1277 c 128,-1,16
 752 1327 752 1327 604 1327 c 2,17,-1
 369 1327 l 1,9,-1
166 1493 m 1,18,-1
 608 1493 l 2,19,20
 837 1493 837 1493 961 1394 c 128,-1,21
 1085 1295 1085 1295 1085 1114 c 0,22,23
 1085 977 1085 977 1019.5 898 c 128,-1,24
 954 819 954 819 823 799 c 1,25,26
 970 777 970 777 1053.5 673.5 c 128,-1,27
 1137 570 1137 570 1137 410 c 0,28,29
 1137 207 1137 207 1004 103.5 c 128,-1,30
 871 0 871 0 608 0 c 2,31,-1
 166 0 l 1,32,-1
 166 1493 l 1,18,-1
EndSplineSet
EndChar
StartChar: C
Encoding: 67 67 67
Width: 1233
Flags: W
Fore
1073 53 m 1,0,1
 996 12 996 12 915 -8.5 c 128,-1,2
 834 -29 834 -29 743 -29 c 0,3,4
 456 -29 456 -29 297.5 174 c 128,-1,5
 139 377 139 377 139 745 c 0,6,7
 139 1111 139 1111 298.5 1315.5 c 128,-1,8
 458 1520 458 1520 743 1520 c 0,9,10
 834 1520 834 1520 915 1499.5 c 128,-1,11
 996 1479 996 1479 1073 1438 c 1,12,-1
 1073 1231 l 1,13,14
 999 1292 999 1292 914 1324 c 128,-1,15
 829 1356 829 1356 743 1356 c 0,16,17
 546 1356 546 1356 448 1204 c 128,-1,18
 350 1052 350 1052 350 745 c 0,19,20
 350 439 350 439 448 287 c 128,-1,21
 546 135 546 135 743 135 c 0,22,23
 831 135 831 135 915.5 167 c 128,-1,24
 1000 199 1000 199 1073 260 c 1,25,-1
 1073 53 l 1,0,1
EndSplineSet
EndChar
StartChar: D
Encoding: 68 68 68
Width: 1233
Flags: W
Fore
436 166 m 2,0,1
 691 166 691 166 792 291.5 c 128,-1,2
 893 417 893 417 893 745 c 0,3,4
 893 1076 893 1076 792.5 1201.5 c 128,-1,5
 692 1327 692 1327 436 1327 c 2,6,-1
 340 1327 l 1,7,-1
 340 166 l 1,8,-1
 436 166 l 2,0,1
440 1493 m 2,9,10
 782 1493 782 1493 944 1311 c 128,-1,11
 1106 1129 1106 1129 1106 745 c 0,12,13
 1106 363 1106 363 944 181.5 c 128,-1,14
 782 0 782 0 440 0 c 2,15,-1
 137 0 l 1,16,-1
 137 1493 l 1,17,-1
 440 1493 l 2,9,10
EndSplineSet
EndChar
StartChar: E
Encoding: 69 69 69
Width: 1233
Flags: W
Fore
197 1493 m 1,0,-1
 1083 1493 l 1,1,-1
 1083 1323 l 1,2,-1
 399 1323 l 1,3,-1
 399 881 l 1,4,-1
 1053 881 l 1,5,-1
 1053 711 l 1,6,-1
 399 711 l 1,7,-1
 399 170 l 1,8,-1
 1102 170 l 1,9,-1
 1102 0 l 1,10,-1
 197 0 l 1,11,-1
 197 1493 l 1,0,-1
EndSplineSet
EndChar
StartChar: F
Encoding: 70 70 70
Width: 1233
Flags: W
Fore
233 1493 m 1,0,-1
 1112 1493 l 1,1,-1
 1112 1323 l 1,2,-1
 436 1323 l 1,3,-1
 436 883 l 1,4,-1
 1049 883 l 1,5,-1
 1049 713 l 1,6,-1
 436 713 l 1,7,-1
 436 0 l 1,8,-1
 233 0 l 1,9,-1
 233 1493 l 1,0,-1
EndSplineSet
EndChar
StartChar: G
Encoding: 71 71 71
Width: 1233
Flags: W
Fore
1104 123 m 1,0,1
 1023 48 1023 48 921.5 9.5 c 128,-1,2
 820 -29 820 -29 702 -29 c 0,3,4
 418 -29 418 -29 260 174.5 c 128,-1,5
 102 378 102 378 102 745 c 0,6,7
 102 1111 102 1111 262 1315.5 c 128,-1,8
 422 1520 422 1520 707 1520 c 0,9,10
 801 1520 801 1520 887 1493.5 c 128,-1,11
 973 1467 973 1467 1053 1413 c 1,12,-1
 1053 1206 l 1,13,14
 972 1283 972 1283 887 1319.5 c 128,-1,15
 802 1356 802 1356 707 1356 c 0,16,17
 510 1356 510 1356 411.5 1203.5 c 128,-1,18
 313 1051 313 1051 313 745 c 0,19,20
 313 434 313 434 408.5 284.5 c 128,-1,21
 504 135 504 135 702 135 c 0,22,23
 769 135 769 135 819.5 150.5 c 128,-1,24
 870 166 870 166 911 199 c 1,25,-1
 911 600 l 1,26,-1
 694 600 l 1,27,-1
 694 766 l 1,28,-1
 1104 766 l 1,29,-1
 1104 123 l 1,0,1
EndSplineSet
EndChar
StartChar: H
Encoding: 72 72 72
Width: 1233
Flags: W
Fore
137 1493 m 1,0,-1
 340 1493 l 1,1,-1
 340 881 l 1,2,-1
 893 881 l 1,3,-1
 893 1493 l 1,4,-1
 1096 1493 l 1,5,-1
 1096 0 l 1,6,-1
 893 0 l 1,7,-1
 893 711 l 1,8,-1
 340 711 l 1,9,-1
 340 0 l 1,10,-1
 137 0 l 1,11,-1
 137 1493 l 1,0,-1
EndSplineSet
EndChar
StartChar: I
Encoding: 73 73 73
Width: 1233
Flags: W
Fore
201 1493 m 1,0,-1
 1030 1493 l 1,1,-1
 1030 1323 l 1,2,-1
 717 1323 l 1,3,-1
 717 170 l 1,4,-1
 1030 170 l 1,5,-1
 1030 0 l 1,6,-1
 201 0 l 1,7,-1
 201 170 l 1,8,-1
 514 170 l 1,9,-1
 514 1323 l 1,10,-1
 201 1323 l 1,11,-1
 201 1493 l 1,0,-1
EndSplineSet
EndChar
StartChar: J
Encoding: 74 74 74
Width: 1233
Flags: W
Fore
109 61 m 1,0,-1
 109 297 l 1,1,2
 200 216 200 216 297 175.5 c 128,-1,3
 394 135 394 135 498 135 c 0,4,5
 641 135 641 135 697.5 209.5 c 128,-1,6
 754 284 754 284 754 487 c 2,7,-1
 754 1323 l 1,8,-1
 373 1323 l 1,9,-1
 373 1493 l 1,10,-1
 956 1493 l 1,11,-1
 956 487 l 2,12,13
 956 205 956 205 850.5 88 c 128,-1,14
 745 -29 745 -29 498 -29 c 0,15,16
 402 -29 402 -29 307 -7 c 128,-1,17
 212 15 212 15 109 61 c 1,0,-1
EndSplineSet
EndChar
StartChar: K
Encoding: 75 75 75
Width: 1233
Flags: W
Fore
137 1493 m 1,0,-1
 340 1493 l 1,1,-1
 340 829 l 1,2,-1
 971 1493 l 1,3,-1
 1208 1493 l 1,4,-1
 627 883 l 1,5,-1
 1225 0 l 1,6,-1
 981 0 l 1,7,-1
 494 748 l 1,8,-1
 340 584 l 1,9,-1
 340 0 l 1,10,-1
 137 0 l 1,11,-1
 137 1493 l 1,0,-1
EndSplineSet
EndChar
StartChar: L
Encoding: 76 76 76
Width: 1233
Flags: W
Fore
215 1493 m 1,0,-1
 418 1493 l 1,1,-1
 418 170 l 1,2,-1
 1139 170 l 1,3,-1
 1139 0 l 1,4,-1
 215 0 l 1,5,-1
 215 1493 l 1,0,-1
EndSplineSet
EndChar
StartChar: M
Encoding: 77 77 77
Width: 1233
Flags: W
Fore
86 1493 m 1,0,-1
 356 1493 l 1,1,-1
 614 733 l 1,2,-1
 874 1493 l 1,3,-1
 1145 1493 l 1,4,-1
 1145 0 l 1,5,-1
 958 0 l 1,6,-1
 958 1319 l 1,7,-1
 692 532 l 1,8,-1
 539 532 l 1,9,-1
 272 1319 l 1,10,-1
 272 0 l 1,11,-1
 86 0 l 1,12,-1
 86 1493 l 1,0,-1
EndSplineSet
EndChar
StartChar: N
Encoding: 78 78 78
Width: 1233
Flags: W
Fore
139 1493 m 1,0,-1
 395 1493 l 1,1,-1
 899 264 l 1,2,-1
 899 1493 l 1,3,-1
 1094 1493 l 1,4,-1
 1094 0 l 1,5,-1
 838 0 l 1,6,-1
 334 1229 l 1,7,-1
 334 0 l 1,8,-1
 139 0 l 1,9,-1
 139 1493 l 1,0,-1
EndSplineSet
EndChar
StartChar: O
Encoding: 79 79 79
Width: 1233
Flags: W
Fore
905 745 m 0,0,1
 905 1074 905 1074 837.5 1215 c 128,-1,2
 770 1356 770 1356 616 1356 c 0,3,4
 463 1356 463 1356 395.5 1215 c 128,-1,5
 328 1074 328 1074 328 745 c 0,6,7
 328 417 328 417 395.5 276 c 128,-1,8
 463 135 463 135 616 135 c 0,9,10
 770 135 770 135 837.5 275.5 c 128,-1,11
 905 416 905 416 905 745 c 0,0,1
1116 745 m 0,12,13
 1116 355 1116 355 992.5 163 c 128,-1,14
 869 -29 869 -29 616 -29 c 0,15,16
 363 -29 363 -29 240 162 c 128,-1,17
 117 353 117 353 117 745 c 0,18,19
 117 1136 117 1136 240.5 1328 c 128,-1,20
 364 1520 364 1520 616 1520 c 0,21,22
 869 1520 869 1520 992.5 1328 c 128,-1,23
 1116 1136 1116 1136 1116 745 c 0,12,13
EndSplineSet
EndChar
StartChar: P
Encoding: 80 80 80
Width: 1233
Flags: W
Fore
399 1327 m 1,0,-1
 399 766 l 1,1,-1
 633 766 l 2,2,3
 773 766 773 766 851.5 840 c 128,-1,4
 930 914 930 914 930 1047 c 0,5,6
 930 1180 930 1180 852 1253.5 c 128,-1,7
 774 1327 774 1327 633 1327 c 2,8,-1
 399 1327 l 1,0,-1
197 1493 m 1,9,-1
 633 1493 l 2,10,11
 883 1493 883 1493 1012 1379.5 c 128,-1,12
 1141 1266 1141 1266 1141 1047 c 0,13,14
 1141 826 1141 826 1012.5 713 c 128,-1,15
 884 600 884 600 633 600 c 2,16,-1
 399 600 l 1,17,-1
 399 0 l 1,18,-1
 197 0 l 1,19,-1
 197 1493 l 1,9,-1
EndSplineSet
EndChar
StartChar: Q
Encoding: 81 81 81
Width: 1233
Flags: W
Fore
655 -27 m 1,0,1
 648 -27 648 -27 635 -28 c 128,-1,2
 622 -29 622 -29 614 -29 c 0,3,4
 364 -29 364 -29 240.5 163 c 128,-1,5
 117 355 117 355 117 745 c 0,6,7
 117 1136 117 1136 240.5 1328 c 128,-1,8
 364 1520 364 1520 616 1520 c 0,9,10
 869 1520 869 1520 992.5 1328 c 128,-1,11
 1116 1136 1116 1136 1116 745 c 0,12,13
 1116 451 1116 451 1047.5 271.5 c 128,-1,14
 979 92 979 92 840 20 c 1,15,-1
 1040 -170 l 1,16,-1
 889 -270 l 1,17,-1
 655 -27 l 1,0,1
905 745 m 0,18,19
 905 1074 905 1074 837.5 1215 c 128,-1,20
 770 1356 770 1356 616 1356 c 0,21,22
 463 1356 463 1356 395.5 1215 c 128,-1,23
 328 1074 328 1074 328 745 c 0,24,25
 328 417 328 417 395.5 276 c 128,-1,26
 463 135 463 135 616 135 c 0,27,28
 770 135 770 135 837.5 275.5 c 128,-1,29
 905 416 905 416 905 745 c 0,18,19
EndSplineSet
EndChar
StartChar: R
Encoding: 82 82 82
Width: 1233
Flags: W
Fore
760 705 m 1,0,1
 838 685 838 685 893 629.5 c 128,-1,2
 948 574 948 574 1030 408 c 2,3,-1
 1233 0 l 1,4,-1
 1016 0 l 1,5,-1
 838 377 l 1,6,7
 761 538 761 538 699.5 584.5 c 128,-1,8
 638 631 638 631 539 631 c 2,9,-1
 346 631 l 1,10,-1
 346 0 l 1,11,-1
 143 0 l 1,12,-1
 143 1493 l 1,13,-1
 559 1493 l 2,14,15
 805 1493 805 1493 936 1382 c 128,-1,16
 1067 1271 1067 1271 1067 1061 c 0,17,18
 1067 913 1067 913 986.5 819.5 c 128,-1,19
 906 726 906 726 760 705 c 1,0,1
346 1327 m 1,20,-1
 346 797 l 1,21,-1
 567 797 l 2,22,23
 712 797 712 797 783 862 c 128,-1,24
 854 927 854 927 854 1061 c 0,25,26
 854 1190 854 1190 778.5 1258.5 c 128,-1,27
 703 1327 703 1327 559 1327 c 2,28,-1
 346 1327 l 1,20,-1
EndSplineSet
EndChar
StartChar: S
Encoding: 83 83 83
Width: 1233
Flags: W
Fore
1012 1442 m 1,0,-1
 1012 1237 l 1,1,2
 920 1296 920 1296 827.5 1326 c 128,-1,3
 735 1356 735 1356 641 1356 c 0,4,5
 498 1356 498 1356 415 1289.5 c 128,-1,6
 332 1223 332 1223 332 1110 c 0,7,8
 332 1011 332 1011 386.5 959 c 128,-1,9
 441 907 441 907 590 872 c 2,10,-1
 696 848 l 2,11,12
 906 799 906 799 1002 694 c 128,-1,13
 1098 589 1098 589 1098 408 c 0,14,15
 1098 195 1098 195 966 83 c 128,-1,16
 834 -29 834 -29 582 -29 c 0,17,18
 477 -29 477 -29 371 -6.5 c 128,-1,19
 265 16 265 16 158 61 c 1,20,-1
 158 276 l 1,21,22
 273 203 273 203 375.5 169 c 128,-1,23
 478 135 478 135 582 135 c 0,24,25
 735 135 735 135 820 203.5 c 128,-1,26
 905 272 905 272 905 395 c 0,27,28
 905 507 905 507 846.5 566 c 128,-1,29
 788 625 788 625 643 657 c 2,30,-1
 535 682 l 2,31,32
 327 729 327 729 233 824 c 128,-1,33
 139 919 139 919 139 1079 c 0,34,35
 139 1279 139 1279 273.5 1399.5 c 128,-1,36
 408 1520 408 1520 631 1520 c 0,37,38
 717 1520 717 1520 812 1500.5 c 128,-1,39
 907 1481 907 1481 1012 1442 c 1,0,-1
EndSplineSet
EndChar
StartChar: T
Encoding: 84 84 84
Width: 1233
Flags: W
Fore
47 1493 m 1,0,-1
 1186 1493 l 1,1,-1
 1186 1323 l 1,2,-1
 719 1323 l 1,3,-1
 719 0 l 1,4,-1
 516 0 l 1,5,-1
 516 1323 l 1,6,-1
 47 1323 l 1,7,-1
 47 1493 l 1,0,-1
EndSplineSet
EndChar
StartChar: U
Encoding: 85 85 85
Width: 1233
Flags: W
Fore
147 573 m 2,0,-1
 147 1493 l 1,1,-1
 350 1493 l 1,2,-1
 350 481 l 2,3,4
 350 372 350 372 356 325.5 c 128,-1,5
 362 279 362 279 377 254 c 0,6,7
 409 195 409 195 469.5 165 c 128,-1,8
 530 135 530 135 616 135 c 0,9,10
 703 135 703 135 763 165 c 128,-1,11
 823 195 823 195 856 254 c 0,12,13
 871 279 871 279 877 325 c 128,-1,14
 883 371 883 371 883 479 c 2,15,-1
 883 1493 l 1,16,-1
 1085 1493 l 1,17,-1
 1085 573 l 2,18,19
 1085 344 1085 344 1056.5 247.5 c 128,-1,20
 1028 151 1028 151 958 88 c 0,21,22
 892 29 892 29 807 0 c 128,-1,23
 722 -29 722 -29 616 -29 c 0,24,25
 511 -29 511 -29 426 0 c 128,-1,26
 341 29 341 29 274 88 c 0,27,28
 205 150 205 150 176 248.5 c 128,-1,29
 147 347 147 347 147 573 c 2,0,-1
EndSplineSet
EndChar
StartChar: V
Encoding: 86 86 86
Width: 1233
Flags: W
Fore
616 170 m 1,0,-1
 967 1493 l 1,1,-1
 1176 1493 l 1,2,-1
 739 0 l 1,3,-1
 494 0 l 1,4,-1
 57 1493 l 1,5,-1
 266 1493 l 1,6,-1
 616 170 l 1,0,-1
EndSplineSet
EndChar
StartChar: W
Encoding: 87 87 87
Width: 1233
Flags: W
Fore
0 1493 m 1,0,-1
 197 1493 l 1,1,-1
 340 281 l 1,2,-1
 510 1083 l 1,3,-1
 721 1083 l 1,4,-1
 893 279 l 1,5,-1
 1036 1493 l 1,6,-1
 1233 1493 l 1,7,-1
 1010 0 l 1,8,-1
 819 0 l 1,9,-1
 616 887 l 1,10,-1
 414 0 l 1,11,-1
 223 0 l 1,12,-1
 0 1493 l 1,0,-1
EndSplineSet
EndChar
StartChar: X
Encoding: 88 88 88
Width: 1233
Flags: W
Fore
86 1493 m 1,0,-1
 303 1493 l 1,1,-1
 631 930 l 1,2,-1
 965 1493 l 1,3,-1
 1182 1493 l 1,4,-1
 735 791 l 1,5,-1
 1214 0 l 1,6,-1
 997 0 l 1,7,-1
 631 643 l 1,8,-1
 236 0 l 1,9,-1
 18 0 l 1,10,-1
 518 791 l 1,11,-1
 86 1493 l 1,0,-1
EndSplineSet
EndChar
StartChar: Y
Encoding: 89 89 89
Width: 1233
Flags: W
Fore
37 1493 m 1,0,-1
 252 1493 l 1,1,-1
 616 834 l 1,2,-1
 979 1493 l 1,3,-1
 1196 1493 l 1,4,-1
 717 670 l 1,5,-1
 717 0 l 1,6,-1
 514 0 l 1,7,-1
 514 670 l 1,8,-1
 37 1493 l 1,0,-1
EndSplineSet
EndChar
StartChar: Z
Encoding: 90 90 90
Width: 1233
Flags: W
Fore
178 1493 m 1,0,-1
 1147 1493 l 1,1,-1
 1147 1339 l 1,2,-1
 367 170 l 1,3,-1
 1169 170 l 1,4,-1
 1169 0 l 1,5,-1
 156 0 l 1,6,-1
 156 154 l 1,7,-1
 915 1323 l 1,8,-1
 178 1323 l 1,9,-1
 178 1493 l 1,0,-1
EndSplineSet
EndChar
StartChar: bracketleft
Encoding: 91 91 91
Width: 1233
Flags: W
Fore
463 1556 m 1,0,-1
 887 1556 l 1,1,-1
 887 1413 l 1,2,-1
 647 1413 l 1,3,-1
 647 -127 l 1,4,-1
 887 -127 l 1,5,-1
 887 -270 l 1,6,-1
 463 -270 l 1,7,-1
 463 1556 l 1,0,-1
EndSplineSet
EndChar
StartChar: backslash
Encoding: 92 92 92
Width: 1233
Flags: W
Fore
293 1493 m 1,0,-1
 1079 -190 l 1,1,-1
 889 -190 l 1,2,-1
 102 1493 l 1,3,-1
 293 1493 l 1,0,-1
EndSplineSet
EndChar
StartChar: bracketright
Encoding: 93 93 93
Width: 1233
Flags: W
Fore
770 1556 m 1,0,-1
 770 -270 l 1,1,-1
 346 -270 l 1,2,-1
 346 -127 l 1,3,-1
 586 -127 l 1,4,-1
 586 1413 l 1,5,-1
 346 1413 l 1,6,-1
 346 1556 l 1,7,-1
 770 1556 l 1,0,-1
EndSplineSet
EndChar
StartChar: asciicircum
Encoding: 94 94 94
Width: 1233
Flags: W
Fore
705 1493 m 1,0,-1
 1161 936 l 1,1,-1
 983 936 l 1,2,-1
 616 1331 l 1,3,-1
 250 936 l 1,4,-1
 72 936 l 1,5,-1
 528 1493 l 1,6,-1
 705 1493 l 1,0,-1
EndSplineSet
EndChar
StartChar: underscore
Encoding: 95 95 95
Width: 1233
Flags: W
Fore
1233 -403 m 1,0,-1
 1233 -483 l 1,1,-1
 0 -483 l 1,2,-1
 0 -403 l 1,3,-1
 1233 -403 l 1,0,-1
EndSplineSet
EndChar
StartChar: grave
Encoding: 96 96 96
Width: 1233
Flags: W
Fore
477 1638 m 1,0,-1
 758 1262 l 1,1,-1
 604 1262 l 1,2,-1
 279 1638 l 1,3,-1
 477 1638 l 1,0,-1
EndSplineSet
EndChar
StartChar: a
Encoding: 97 97 97
Width: 1233
Flags: W
Fore
702 563 m 1,0,-1
 641 563 l 2,1,2
 480 563 480 563 398.5 506.5 c 128,-1,3
 317 450 317 450 317 338 c 0,4,5
 317 237 317 237 378 181 c 128,-1,6
 439 125 439 125 547 125 c 0,7,8
 699 125 699 125 786 230.5 c 128,-1,9
 873 336 873 336 874 522 c 1,10,-1
 874 563 l 1,11,-1
 702 563 l 1,0,-1
1059 639 m 2,12,-1
 1059 0 l 1,13,-1
 874 0 l 1,14,-1
 874 166 l 1,15,16
 815 66 815 66 725.5 18.5 c 128,-1,17
 636 -29 636 -29 508 -29 c 0,18,19
 337 -29 337 -29 235 67.5 c 128,-1,20
 133 164 133 164 133 326 c 0,21,22
 133 513 133 513 258.5 610 c 128,-1,23
 384 707 384 707 627 707 c 2,24,-1
 874 707 l 1,25,-1
 874 736 l 1,26,27
 873 870 873 870 806 930.5 c 128,-1,28
 739 991 739 991 592 991 c 0,29,30
 498 991 498 991 402 964 c 128,-1,31
 306 937 306 937 215 885 c 1,32,-1
 215 1069 l 1,33,34
 317 1108 317 1108 410.5 1127.5 c 128,-1,35
 504 1147 504 1147 592 1147 c 0,36,37
 731 1147 731 1147 829.5 1106 c 128,-1,38
 928 1065 928 1065 989 983 c 0,39,40
 1027 933 1027 933 1043 859.5 c 128,-1,41
 1059 786 1059 786 1059 639 c 2,12,-1
EndSplineSet
EndChar
StartChar: b
Encoding: 98 98 98
Width: 1233
Flags: W
Fore
918 559 m 0,0,1
 918 773 918 773 850 882 c 128,-1,2
 782 991 782 991 649 991 c 0,3,4
 515 991 515 991 446 881.5 c 128,-1,5
 377 772 377 772 377 559 c 0,6,7
 377 347 377 347 446 237 c 128,-1,8
 515 127 515 127 649 127 c 0,9,10
 782 127 782 127 850 236 c 128,-1,11
 918 345 918 345 918 559 c 0,0,1
377 977 m 1,12,13
 421 1059 421 1059 498.5 1103 c 128,-1,14
 576 1147 576 1147 678 1147 c 0,15,16
 880 1147 880 1147 996 991.5 c 128,-1,17
 1112 836 1112 836 1112 563 c 0,18,19
 1112 286 1112 286 995.5 128.5 c 128,-1,20
 879 -29 879 -29 676 -29 c 0,21,22
 576 -29 576 -29 499.5 14.5 c 128,-1,23
 423 58 423 58 377 141 c 1,24,-1
 377 0 l 1,25,-1
 193 0 l 1,26,-1
 193 1556 l 1,27,-1
 377 1556 l 1,28,-1
 377 977 l 1,12,13
EndSplineSet
EndChar
StartChar: c
Encoding: 99 99 99
Width: 1233
Flags: W
Fore
1061 57 m 1,0,1
 987 14 987 14 908.5 -7.5 c 128,-1,2
 830 -29 830 -29 748 -29 c 0,3,4
 488 -29 488 -29 341.5 127 c 128,-1,5
 195 283 195 283 195 559 c 0,6,7
 195 835 195 835 341.5 991 c 128,-1,8
 488 1147 488 1147 748 1147 c 0,9,10
 829 1147 829 1147 906 1126 c 128,-1,11
 983 1105 983 1105 1061 1061 c 1,12,-1
 1061 868 l 1,13,14
 988 933 988 933 914.5 962 c 128,-1,15
 841 991 841 991 748 991 c 0,16,17
 575 991 575 991 482 879 c 128,-1,18
 389 767 389 767 389 559 c 0,19,20
 389 352 389 352 482.5 239.5 c 128,-1,21
 576 127 576 127 748 127 c 0,22,23
 844 127 844 127 920 156.5 c 128,-1,24
 996 186 996 186 1061 248 c 1,25,-1
 1061 57 l 1,0,1
EndSplineSet
EndChar
StartChar: d
Encoding: 100 100 100
Width: 1233
Flags: W
Fore
858 977 m 1,0,-1
 858 1556 l 1,1,-1
 1042 1556 l 1,2,-1
 1042 0 l 1,3,-1
 858 0 l 1,4,-1
 858 141 l 1,5,6
 812 58 812 58 735.5 14.5 c 128,-1,7
 659 -29 659 -29 559 -29 c 0,8,9
 356 -29 356 -29 239.5 128.5 c 128,-1,10
 123 286 123 286 123 563 c 0,11,12
 123 836 123 836 240 991.5 c 128,-1,13
 357 1147 357 1147 559 1147 c 0,14,15
 660 1147 660 1147 737 1103.5 c 128,-1,16
 814 1060 814 1060 858 977 c 1,0,-1
317 559 m 0,17,18
 317 345 317 345 385 236 c 128,-1,19
 453 127 453 127 586 127 c 0,20,21
 719 127 719 127 788.5 237 c 128,-1,22
 858 347 858 347 858 559 c 0,23,24
 858 772 858 772 788.5 881.5 c 128,-1,25
 719 991 719 991 586 991 c 0,26,27
 453 991 453 991 385 882 c 128,-1,28
 317 773 317 773 317 559 c 0,17,18
EndSplineSet
EndChar
StartChar: e
Encoding: 101 101 101
Width: 1233
Flags: W
Fore
1112 606 m 2,0,-1
 1112 516 l 1,1,-1
 315 516 l 1,2,-1
 315 510 l 2,3,4
 315 327 315 327 410.5 227 c 128,-1,5
 506 127 506 127 680 127 c 0,6,7
 768 127 768 127 864 155 c 128,-1,8
 960 183 960 183 1069 240 c 1,9,-1
 1069 57 l 1,10,11
 964 14 964 14 866.5 -7.5 c 128,-1,12
 769 -29 769 -29 678 -29 c 0,13,14
 417 -29 417 -29 270 127.5 c 128,-1,15
 123 284 123 284 123 559 c 0,16,17
 123 827 123 827 267 987 c 128,-1,18
 411 1147 411 1147 651 1147 c 0,19,20
 865 1147 865 1147 988.5 1002 c 128,-1,21
 1112 857 1112 857 1112 606 c 2,0,-1
928 660 m 1,22,23
 924 822 924 822 851.5 906.5 c 128,-1,24
 779 991 779 991 643 991 c 0,25,26
 510 991 510 991 424 903 c 128,-1,27
 338 815 338 815 322 659 c 1,28,-1
 928 660 l 1,22,23
EndSplineSet
EndChar
StartChar: f
Encoding: 102 102 102
Width: 1233
Flags: W
Fore
1063 1556 m 1,0,-1
 1063 1403 l 1,1,-1
 854 1403 l 2,2,3
 755 1403 755 1403 716.5 1362.5 c 128,-1,4
 678 1322 678 1322 678 1219 c 2,5,-1
 678 1120 l 1,6,-1
 1063 1120 l 1,7,-1
 1063 977 l 1,8,-1
 678 977 l 1,9,-1
 678 0 l 1,10,-1
 494 0 l 1,11,-1
 494 977 l 1,12,-1
 195 977 l 1,13,-1
 195 1120 l 1,14,-1
 494 1120 l 1,15,-1
 494 1198 l 2,16,17
 494 1382 494 1382 578.5 1469 c 128,-1,18
 663 1556 663 1556 842 1556 c 2,19,-1
 1063 1556 l 1,0,-1
EndSplineSet
EndChar
StartChar: g
Encoding: 103 103 103
Width: 1233
Flags: W
Fore
858 569 m 0,0,1
 858 776 858 776 790.5 883.5 c 128,-1,2
 723 991 723 991 594 991 c 0,3,4
 459 991 459 991 388 883.5 c 128,-1,5
 317 776 317 776 317 569 c 0,6,7
 317 362 317 362 388.5 253.5 c 128,-1,8
 460 145 460 145 596 145 c 0,9,10
 723 145 723 145 790.5 254 c 128,-1,11
 858 363 858 363 858 569 c 0,0,1
1042 72 m 2,12,13
 1042 -180 1042 -180 923 -310 c 128,-1,14
 804 -440 804 -440 573 -440 c 0,15,16
 497 -440 497 -440 414 -426 c 128,-1,17
 331 -412 331 -412 248 -385 c 1,18,-1
 248 -203 l 1,19,20
 346 -249 346 -249 426 -271 c 128,-1,21
 506 -293 506 -293 573 -293 c 0,22,23
 722 -293 722 -293 790 -212 c 128,-1,24
 858 -131 858 -131 858 45 c 2,25,-1
 858 53 l 1,26,-1
 858 178 l 1,27,28
 814 84 814 84 738 38 c 128,-1,29
 662 -8 662 -8 553 -8 c 0,30,31
 357 -8 357 -8 240 149 c 128,-1,32
 123 306 123 306 123 569 c 0,33,34
 123 833 123 833 240 990 c 128,-1,35
 357 1147 357 1147 553 1147 c 0,36,37
 661 1147 661 1147 736 1104 c 128,-1,38
 811 1061 811 1061 858 971 c 1,39,-1
 858 1116 l 1,40,-1
 1042 1116 l 1,41,-1
 1042 72 l 2,12,13
EndSplineSet
EndChar
StartChar: h
Encoding: 104 104 104
Width: 1233
Flags: W
Fore
1051 694 m 2,0,-1
 1051 0 l 1,1,-1
 866 0 l 1,2,-1
 866 694 l 2,3,4
 866 845 866 845 813 916 c 128,-1,5
 760 987 760 987 647 987 c 0,6,7
 518 987 518 987 448.5 895.5 c 128,-1,8
 379 804 379 804 379 633 c 2,9,-1
 379 0 l 1,10,-1
 195 0 l 1,11,-1
 195 1556 l 1,12,-1
 379 1556 l 1,13,-1
 379 952 l 1,14,15
 428 1048 428 1048 512 1097.5 c 128,-1,16
 596 1147 596 1147 711 1147 c 0,17,18
 882 1147 882 1147 966.5 1034.5 c 128,-1,19
 1051 922 1051 922 1051 694 c 2,0,-1
EndSplineSet
EndChar
StartChar: i
Encoding: 105 105 105
Width: 1233
Flags: W
Fore
256 1120 m 1,0,-1
 727 1120 l 1,1,-1
 727 143 l 1,2,-1
 1092 143 l 1,3,-1
 1092 0 l 1,4,-1
 178 0 l 1,5,-1
 178 143 l 1,6,-1
 543 143 l 1,7,-1
 543 977 l 1,8,-1
 256 977 l 1,9,-1
 256 1120 l 1,0,-1
543 1556 m 1,10,-1
 727 1556 l 1,11,-1
 727 1323 l 1,12,-1
 543 1323 l 1,13,-1
 543 1556 l 1,10,-1
EndSplineSet
EndChar
StartChar: j
Encoding: 106 106 106
Width: 1233
Flags: W
Fore
600 -20 m 2,0,-1
 600 977 l 1,1,-1
 283 977 l 1,2,-1
 283 1120 l 1,3,-1
 784 1120 l 1,4,-1
 784 -20 l 2,5,6
 784 -215 784 -215 694.5 -320.5 c 128,-1,7
 605 -426 605 -426 440 -426 c 2,8,-1
 186 -426 l 1,9,-1
 186 -270 l 1,10,-1
 420 -270 l 2,11,12
 510 -270 510 -270 555 -207.5 c 128,-1,13
 600 -145 600 -145 600 -20 c 2,0,-1
600 1556 m 1,14,-1
 784 1556 l 1,15,-1
 784 1323 l 1,16,-1
 600 1323 l 1,17,-1
 600 1556 l 1,14,-1
EndSplineSet
EndChar
StartChar: k
Encoding: 107 107 107
Width: 1233
Flags: W
Fore
236 1556 m 1,0,-1
 426 1556 l 1,1,-1
 426 655 l 1,2,-1
 909 1120 l 1,3,-1
 1133 1120 l 1,4,-1
 692 698 l 1,5,-1
 1202 0 l 1,6,-1
 977 0 l 1,7,-1
 563 578 l 1,8,-1
 426 449 l 1,9,-1
 426 0 l 1,10,-1
 236 0 l 1,11,-1
 236 1556 l 1,0,-1
EndSplineSet
EndChar
StartChar: l
Encoding: 108 108 108
Width: 1233
Flags: W
Fore
639 406 m 2,0,1
 639 282 639 282 684.5 219 c 128,-1,2
 730 156 730 156 819 156 c 2,3,-1
 1034 156 l 1,4,-1
 1034 0 l 1,5,-1
 801 0 l 2,6,7
 636 0 636 0 545.5 106 c 128,-1,8
 455 212 455 212 455 406 c 2,9,-1
 455 1423 l 1,10,-1
 160 1423 l 1,11,-1
 160 1567 l 1,12,-1
 639 1567 l 1,13,-1
 639 406 l 2,0,1
EndSplineSet
EndChar
StartChar: m
Encoding: 109 109 109
Width: 1233
Flags: W
Fore
676 1006 m 1,0,1
 710 1078 710 1078 762.5 1112.5 c 128,-1,2
 815 1147 815 1147 889 1147 c 0,3,4
 1024 1147 1024 1147 1079.5 1042.5 c 128,-1,5
 1135 938 1135 938 1135 649 c 2,6,-1
 1135 0 l 1,7,-1
 967 0 l 1,8,-1
 967 641 l 2,9,10
 967 878 967 878 940.5 935.5 c 128,-1,11
 914 993 914 993 844 993 c 0,12,13
 764 993 764 993 734.5 931.5 c 128,-1,14
 705 870 705 870 705 641 c 2,15,-1
 705 0 l 1,16,-1
 537 0 l 1,17,-1
 537 641 l 2,18,19
 537 881 537 881 508.5 937 c 128,-1,20
 480 993 480 993 406 993 c 0,21,22
 333 993 333 993 304.5 931.5 c 128,-1,23
 276 870 276 870 276 641 c 2,24,-1
 276 0 l 1,25,-1
 109 0 l 1,26,-1
 109 1120 l 1,27,-1
 276 1120 l 1,28,-1
 276 1024 l 1,29,30
 309 1084 309 1084 358.5 1115.5 c 128,-1,31
 408 1147 408 1147 471 1147 c 0,32,33
 547 1147 547 1147 597.5 1112 c 128,-1,34
 648 1077 648 1077 676 1006 c 1,0,1
EndSplineSet
EndChar
StartChar: n
Encoding: 110 110 110
Width: 1233
Flags: W
Fore
1051 694 m 2,0,-1
 1051 0 l 1,1,-1
 866 0 l 1,2,-1
 866 694 l 2,3,4
 866 845 866 845 813 916 c 128,-1,5
 760 987 760 987 647 987 c 0,6,7
 518 987 518 987 448.5 895.5 c 128,-1,8
 379 804 379 804 379 633 c 2,9,-1
 379 0 l 1,10,-1
 195 0 l 1,11,-1
 195 1120 l 1,12,-1
 379 1120 l 1,13,-1
 379 952 l 1,14,15
 428 1048 428 1048 512 1097.5 c 128,-1,16
 596 1147 596 1147 711 1147 c 0,17,18
 882 1147 882 1147 966.5 1034.5 c 128,-1,19
 1051 922 1051 922 1051 694 c 2,0,-1
EndSplineSet
EndChar
StartChar: o
Encoding: 111 111 111
Width: 1233
Flags: W
Fore
616 991 m 0,0,1
 476 991 476 991 404 882 c 128,-1,2
 332 773 332 773 332 559 c 0,3,4
 332 346 332 346 404 236.5 c 128,-1,5
 476 127 476 127 616 127 c 0,6,7
 757 127 757 127 829 236.5 c 128,-1,8
 901 346 901 346 901 559 c 0,9,10
 901 773 901 773 829 882 c 128,-1,11
 757 991 757 991 616 991 c 0,0,1
616 1147 m 0,12,13
 849 1147 849 1147 972.5 996 c 128,-1,14
 1096 845 1096 845 1096 559 c 0,15,16
 1096 272 1096 272 973 121.5 c 128,-1,17
 850 -29 850 -29 616 -29 c 0,18,19
 383 -29 383 -29 260 121.5 c 128,-1,20
 137 272 137 272 137 559 c 0,21,22
 137 845 137 845 260 996 c 128,-1,23
 383 1147 383 1147 616 1147 c 0,12,13
EndSplineSet
EndChar
StartChar: p
Encoding: 112 112 112
Width: 1233
Flags: W
Fore
375 141 m 1,0,-1
 375 -426 l 1,1,-1
 190 -426 l 1,2,-1
 190 1120 l 1,3,-1
 375 1120 l 1,4,-1
 375 977 l 1,5,6
 421 1060 421 1060 497.5 1103.5 c 128,-1,7
 574 1147 574 1147 674 1147 c 0,8,9
 877 1147 877 1147 992.5 990 c 128,-1,10
 1108 833 1108 833 1108 555 c 0,11,12
 1108 282 1108 282 992 126.5 c 128,-1,13
 876 -29 876 -29 674 -29 c 0,14,15
 572 -29 572 -29 495.5 14.5 c 128,-1,16
 419 58 419 58 375 141 c 1,0,-1
915 559 m 0,17,18
 915 773 915 773 847.5 882 c 128,-1,19
 780 991 780 991 647 991 c 0,20,21
 513 991 513 991 444 881.5 c 128,-1,22
 375 772 375 772 375 559 c 0,23,24
 375 347 375 347 444 237 c 128,-1,25
 513 127 513 127 647 127 c 0,26,27
 780 127 780 127 847.5 236 c 128,-1,28
 915 345 915 345 915 559 c 0,17,18
EndSplineSet
EndChar
StartChar: q
Encoding: 113 113 113
Width: 1233
Flags: W
Fore
332 555 m 0,0,1
 332 341 332 341 399.5 232 c 128,-1,2
 467 123 467 123 600 123 c 0,3,4
 733 123 733 123 801.5 232.5 c 128,-1,5
 870 342 870 342 870 555 c 0,6,7
 870 768 870 768 801.5 877.5 c 128,-1,8
 733 987 733 987 600 987 c 0,9,10
 467 987 467 987 399.5 878 c 128,-1,11
 332 769 332 769 332 555 c 0,0,1
870 139 m 1,12,13
 825 56 825 56 748.5 11.5 c 128,-1,14
 672 -33 672 -33 571 -33 c 0,15,16
 370 -33 370 -33 253.5 122.5 c 128,-1,17
 137 278 137 278 137 551 c 0,18,19
 137 829 137 829 253 986 c 128,-1,20
 369 1143 369 1143 571 1143 c 0,21,22
 671 1143 671 1143 747.5 1099.5 c 128,-1,23
 824 1056 824 1056 870 973 c 1,24,-1
 870 1116 l 1,25,-1
 1055 1116 l 1,26,-1
 1055 -430 l 1,27,-1
 870 -430 l 1,28,-1
 870 139 l 1,12,13
EndSplineSet
EndChar
StartChar: r
Encoding: 114 114 114
Width: 1233
Flags: W
Fore
1155 889 m 1,0,1
 1096 935 1096 935 1035 956 c 128,-1,2
 974 977 974 977 901 977 c 0,3,4
 729 977 729 977 638 869 c 128,-1,5
 547 761 547 761 547 557 c 2,6,-1
 547 0 l 1,7,-1
 362 0 l 1,8,-1
 362 1120 l 1,9,-1
 547 1120 l 1,10,-1
 547 901 l 1,11,12
 593 1020 593 1020 688.5 1083.5 c 128,-1,13
 784 1147 784 1147 915 1147 c 0,14,15
 983 1147 983 1147 1042 1130 c 128,-1,16
 1101 1113 1101 1113 1155 1077 c 1,17,-1
 1155 889 l 1,0,1
EndSplineSet
EndChar
StartChar: s
Encoding: 115 115 115
Width: 1233
Flags: W
Fore
973 1081 m 1,0,-1
 973 901 l 1,1,2
 894 947 894 947 814 970 c 128,-1,3
 734 993 734 993 651 993 c 0,4,5
 526 993 526 993 464.5 952.5 c 128,-1,6
 403 912 403 912 403 829 c 0,7,8
 403 754 403 754 449 717 c 128,-1,9
 495 680 495 680 678 645 c 2,10,-1
 752 631 l 2,11,12
 889 605 889 605 959.5 527 c 128,-1,13
 1030 449 1030 449 1030 324 c 0,14,15
 1030 158 1030 158 912 64.5 c 128,-1,16
 794 -29 794 -29 584 -29 c 0,17,18
 501 -29 501 -29 410 -11.5 c 128,-1,19
 319 6 319 6 213 41 c 1,20,-1
 213 231 l 1,21,22
 316 178 316 178 410 151.5 c 128,-1,23
 504 125 504 125 588 125 c 0,24,25
 710 125 710 125 777 174.5 c 128,-1,26
 844 224 844 224 844 313 c 0,27,28
 844 441 844 441 599 490 c 2,29,-1
 591 492 l 1,30,-1
 522 506 l 2,31,32
 363 537 363 537 290 610.5 c 128,-1,33
 217 684 217 684 217 811 c 0,34,35
 217 972 217 972 326 1059.5 c 128,-1,36
 435 1147 435 1147 637 1147 c 0,37,38
 727 1147 727 1147 810 1130.5 c 128,-1,39
 893 1114 893 1114 973 1081 c 1,0,-1
EndSplineSet
EndChar
StartChar: t
Encoding: 116 116 116
Width: 1233
Flags: W
Fore
614 1438 m 1,0,-1
 614 1120 l 1,1,-1
 1032 1120 l 1,2,-1
 1032 977 l 1,3,-1
 614 977 l 1,4,-1
 614 369 l 2,5,6
 614 245 614 245 661 196 c 128,-1,7
 708 147 708 147 825 147 c 2,8,-1
 1032 147 l 1,9,-1
 1032 0 l 1,10,-1
 807 0 l 2,11,12
 600 0 600 0 515 83 c 128,-1,13
 430 166 430 166 430 369 c 2,14,-1
 430 977 l 1,15,-1
 131 977 l 1,16,-1
 131 1120 l 1,17,-1
 430 1120 l 1,18,-1
 430 1438 l 1,19,-1
 614 1438 l 1,0,-1
EndSplineSet
EndChar
StartChar: u
Encoding: 117 117 117
Width: 1233
Flags: W
Fore
195 424 m 2,0,-1
 195 1118 l 1,1,-1
 379 1118 l 1,2,-1
 379 424 l 2,3,4
 379 273 379 273 432.5 202 c 128,-1,5
 486 131 486 131 598 131 c 0,6,7
 728 131 728 131 797 222.5 c 128,-1,8
 866 314 866 314 866 485 c 2,9,-1
 866 1118 l 1,10,-1
 1051 1118 l 1,11,-1
 1051 0 l 1,12,-1
 866 0 l 1,13,-1
 866 168 l 1,14,15
 817 71 817 71 732.5 21 c 128,-1,16
 648 -29 648 -29 535 -29 c 0,17,18
 363 -29 363 -29 279 83.5 c 128,-1,19
 195 196 195 196 195 424 c 2,0,-1
EndSplineSet
EndChar
StartChar: v
Encoding: 118 118 118
Width: 1233
Flags: W
Fore
100 1120 m 1,0,-1
 291 1120 l 1,1,-1
 616 180 l 1,2,-1
 942 1120 l 1,3,-1
 1133 1120 l 1,4,-1
 735 0 l 1,5,-1
 498 0 l 1,6,-1
 100 1120 l 1,0,-1
EndSplineSet
EndChar
StartChar: w
Encoding: 119 119 119
Width: 1233
Flags: W
Fore
0 1120 m 1,0,-1
 182 1120 l 1,1,-1
 377 215 l 1,2,-1
 537 793 l 1,3,-1
 694 793 l 1,4,-1
 856 215 l 1,5,-1
 1051 1120 l 1,6,-1
 1233 1120 l 1,7,-1
 971 0 l 1,8,-1
 795 0 l 1,9,-1
 616 614 l 1,10,-1
 438 0 l 1,11,-1
 262 0 l 1,12,-1
 0 1120 l 1,0,-1
EndSplineSet
EndChar
StartChar: x
Encoding: 120 120 120
Width: 1233
Flags: W
Fore
1118 1120 m 1,0,-1
 717 584 l 1,1,-1
 1157 0 l 1,2,-1
 944 0 l 1,3,-1
 616 449 l 1,4,-1
 289 0 l 1,5,-1
 76 0 l 1,6,-1
 516 584 l 1,7,-1
 115 1120 l 1,8,-1
 319 1120 l 1,9,-1
 616 715 l 1,10,-1
 911 1120 l 1,11,-1
 1118 1120 l 1,0,-1
EndSplineSet
EndChar
StartChar: y
Encoding: 121 121 121
Width: 1233
Flags: W
Fore
858 360 m 1,0,1
 812 243 812 243 741 52 c 0,2,3
 642 -212 642 -212 608 -270 c 0,4,5
 562 -348 562 -348 493 -387 c 128,-1,6
 424 -426 424 -426 332 -426 c 2,7,-1
 184 -426 l 1,8,-1
 184 -272 l 1,9,-1
 293 -272 l 2,10,11
 374 -272 374 -272 420 -225 c 128,-1,12
 466 -178 466 -178 537 18 c 1,13,-1
 104 1120 l 1,14,-1
 299 1120 l 1,15,-1
 631 244 l 1,16,-1
 958 1120 l 1,17,-1
 1153 1120 l 1,18,-1
 858 360 l 1,0,1
EndSplineSet
EndChar
StartChar: z
Encoding: 122 122 122
Width: 1233
Flags: W
Fore
227 1122 m 1,0,-1
 1040 1122 l 1,1,-1
 1040 954 l 1,2,-1
 397 150 l 1,3,-1
 1040 150 l 1,4,-1
 1040 0 l 1,5,-1
 203 0 l 1,6,-1
 203 170 l 1,7,-1
 846 975 l 1,8,-1
 227 975 l 1,9,-1
 227 1122 l 1,0,-1
EndSplineSet
EndChar
StartChar: braceleft
Encoding: 123 123 123
Width: 1233
Flags: W
Fore
1012 -190 m 1,0,-1
 1012 -334 l 1,1,-1
 948 -334 l 2,2,3
 699 -334 699 -334 614.5 -260 c 128,-1,4
 530 -186 530 -186 530 35 c 2,5,-1
 530 274 l 2,6,7
 530 425 530 425 476.5 483 c 128,-1,8
 423 541 423 541 283 541 c 2,9,-1
 221 541 l 1,10,-1
 221 684 l 1,11,-1
 283 684 l 2,12,13
 424 684 424 684 477 741 c 128,-1,14
 530 798 530 798 530 948 c 2,15,-1
 530 1188 l 2,16,17
 530 1409 530 1409 614.5 1482.5 c 128,-1,18
 699 1556 699 1556 948 1556 c 2,19,-1
 1012 1556 l 1,20,-1
 1012 1413 l 1,21,-1
 942 1413 l 2,22,23
 802 1413 802 1413 759.5 1369.5 c 128,-1,24
 717 1326 717 1326 717 1184 c 2,25,-1
 717 936 l 2,26,27
 717 779 717 779 671.5 708 c 128,-1,28
 626 637 626 637 516 612 c 1,29,30
 627 585 627 585 672 514 c 128,-1,31
 717 443 717 443 717 287 c 2,32,-1
 717 39 l 2,33,34
 717 -104 717 -104 759.5 -147 c 128,-1,35
 802 -190 802 -190 942 -190 c 2,36,-1
 1012 -190 l 1,0,-1
EndSplineSet
EndChar
StartChar: bar
Encoding: 124 124 124
Width: 1233
Flags: W
Fore
702 1565 m 1,0,-1
 702 -483 l 1,1,-1
 530 -483 l 1,2,-1
 530 1565 l 1,3,-1
 702 1565 l 1,0,-1
EndSplineSet
EndChar
StartChar: braceright
Encoding: 125 125 125
Width: 1233
Flags: W
Fore
221 -190 m 1,0,-1
 289 -190 l 2,1,2
 430 -190 430 -190 473 -146 c 128,-1,3
 516 -102 516 -102 516 39 c 2,4,-1
 516 287 l 2,5,6
 516 443 516 443 561 514 c 128,-1,7
 606 585 606 585 717 612 c 1,8,9
 607 637 607 637 561.5 708 c 128,-1,10
 516 779 516 779 516 936 c 2,11,-1
 516 1184 l 2,12,13
 516 1325 516 1325 473 1369 c 128,-1,14
 430 1413 430 1413 289 1413 c 2,15,-1
 221 1413 l 1,16,-1
 221 1556 l 1,17,-1
 283 1556 l 2,18,19
 532 1556 532 1556 616 1482.5 c 128,-1,20
 700 1409 700 1409 700 1188 c 2,21,-1
 700 948 l 2,22,23
 700 798 700 798 753.5 741 c 128,-1,24
 807 684 807 684 948 684 c 2,25,-1
 1012 684 l 1,26,-1
 1012 541 l 1,27,-1
 948 541 l 2,28,29
 807 541 807 541 753.5 483 c 128,-1,30
 700 425 700 425 700 274 c 2,31,-1
 700 35 l 2,32,33
 700 -186 700 -186 616 -260 c 128,-1,34
 532 -334 532 -334 283 -334 c 2,35,-1
 221 -334 l 1,36,-1
 221 -190 l 1,0,-1
EndSplineSet
EndChar
StartChar: asciitilde
Encoding: 126 126 126
Width: 1233
Flags: W
Fore
1145 780 m 1,0,-1
 1145 606 l 1,1,2
 1070 547 1070 547 998.5 519.5 c 128,-1,3
 927 492 927 492 848 492 c 0,4,5
 758 492 758 492 645 543 c 0,6,7
 623 553 623 553 612 557 c 0,8,9
 535 590 535 590 483.5 602 c 128,-1,10
 432 614 432 614 381 614 c 0,11,12
 302 614 302 614 231.5 584.5 c 128,-1,13
 161 555 161 555 88 492 c 1,14,-1
 88 666 l 1,15,16
 166 726 166 726 239 753 c 128,-1,17
 312 780 312 780 395 780 c 0,18,19
 448 780 448 780 498 769 c 128,-1,20
 548 758 548 758 622 727 c 0,21,22
 634 722 634 722 655 712 c 0,23,24
 771 657 771 657 864 657 c 0,25,26
 934 657 934 657 1002.5 687.5 c 128,-1,27
 1071 718 1071 718 1145 780 c 1,0,-1
EndSplineSet
EndChar
StartChar: exclamdown
Encoding: 161 161 161
Width: 1233
Flags: W
Fore
516 1239 m 1,0,-1
 516 1493 l 1,1,-1
 719 1493 l 1,2,-1
 719 1239 l 1,3,-1
 516 1239 l 1,0,-1
516 0 m 1,4,-1
 516 655 l 1,5,-1
 537 1012 l 1,6,-1
 698 1012 l 1,7,-1
 719 655 l 1,8,-1
 719 0 l 1,9,-1
 516 0 l 1,4,-1
EndSplineSet
EndChar
StartChar: cent
Encoding: 162 162 162
Width: 1233
Flags: W
Fore
1061 1077 m 1,0,-1
 1061 905 l 1,1,2
 994 945 994 945 929 967 c 128,-1,3
 864 989 864 989 801 993 c 1,4,-1
 801 123 l 1,5,6
 864 128 864 128 929.5 150.5 c 128,-1,7
 995 173 995 173 1061 213 c 1,8,-1
 1061 41 l 1,9,10
 988 10 988 10 923 -7 c 128,-1,11
 858 -24 858 -24 801 -27 c 1,12,-1
 801 -313 l 1,13,-1
 698 -313 l 1,14,-1
 698 -27 l 1,15,16
 473 -5 473 -5 343 151.5 c 128,-1,17
 213 308 213 308 213 559 c 0,18,19
 213 809 213 809 344.5 967.5 c 128,-1,20
 476 1126 476 1126 698 1145 c 1,21,-1
 698 1432 l 1,22,-1
 801 1432 l 1,23,-1
 801 1145 l 1,24,25
 858 1142 858 1142 923 1125 c 128,-1,26
 988 1108 988 1108 1061 1077 c 1,0,-1
698 127 m 1,27,-1
 698 991 l 1,28,29
 566 979 566 979 486 861 c 128,-1,30
 406 743 406 743 406 559 c 0,31,32
 406 375 406 375 486 257.5 c 128,-1,33
 566 140 566 140 698 127 c 1,27,-1
EndSplineSet
EndChar
StartChar: sterling
Encoding: 163 163 163
Width: 1233
Flags: W
Fore
1092 1462 m 1,0,-1
 1092 1278 l 1,1,2
 1030 1322 1030 1322 966.5 1344 c 128,-1,3
 903 1366 903 1366 836 1366 c 0,4,5
 702 1366 702 1366 638.5 1276.5 c 128,-1,6
 575 1187 575 1187 575 995 c 2,7,-1
 575 778 l 1,8,-1
 946 778 l 1,9,-1
 946 635 l 1,10,-1
 575 635 l 1,11,-1
 575 170 l 1,12,-1
 1112 170 l 1,13,-1
 1112 0 l 1,14,-1
 139 0 l 1,15,-1
 139 170 l 1,16,-1
 375 170 l 1,17,-1
 375 635 l 1,18,-1
 176 635 l 1,19,-1
 176 778 l 1,20,-1
 375 778 l 1,21,-1
 375 1016 l 2,22,23
 375 1270 375 1270 484.5 1395 c 128,-1,24
 594 1520 594 1520 817 1520 c 0,25,26
 882 1520 882 1520 950.5 1505.5 c 128,-1,27
 1019 1491 1019 1491 1092 1462 c 1,0,-1
EndSplineSet
EndChar
StartChar: currency
Encoding: 164 164 164
Width: 1233
Flags: W
Fore
868 643 m 0,0,1
 868 733 868 733 806 794.5 c 128,-1,2
 744 856 744 856 653 856 c 0,3,4
 563 856 563 856 500.5 794.5 c 128,-1,5
 438 733 438 733 438 643 c 0,6,7
 438 551 438 551 500.5 488.5 c 128,-1,8
 563 426 563 426 653 426 c 0,9,10
 744 426 744 426 806 489 c 128,-1,11
 868 552 868 552 868 643 c 0,0,1
844 924 m 1,12,-1
 1010 1090 l 1,13,-1
 1100 997 l 1,14,-1
 934 831 l 1,15,16
 964 782 964 782 978.5 735.5 c 128,-1,17
 993 689 993 689 993 641 c 0,18,19
 993 591 993 591 978 545.5 c 128,-1,20
 963 500 963 500 932 455 c 1,21,-1
 1100 289 l 1,22,-1
 1006 195 l 1,23,-1
 840 362 l 1,24,25
 794 331 794 331 748.5 316 c 128,-1,26
 703 301 703 301 653 301 c 0,27,28
 605 301 605 301 557 315.5 c 128,-1,29
 509 330 509 330 461 358 c 1,30,-1
 297 195 l 1,31,-1
 205 285 l 1,32,-1
 371 451 l 1,33,34
 340 502 340 502 325.5 548.5 c 128,-1,35
 311 595 311 595 311 641 c 0,36,37
 311 691 311 691 326.5 737.5 c 128,-1,38
 342 784 342 784 373 829 c 1,39,-1
 205 995 l 1,40,-1
 299 1090 l 1,41,-1
 465 922 l 1,42,43
 511 953 511 953 556.5 968 c 128,-1,44
 602 983 602 983 653 983 c 0,45,46
 699 983 699 983 746 968.5 c 128,-1,47
 793 954 793 954 844 924 c 1,12,-1
EndSplineSet
EndChar
StartChar: yen
Encoding: 165 165 165
Width: 1233
Flags: W
Fore
37 1493 m 1,0,-1
 252 1493 l 1,1,-1
 616 834 l 1,2,-1
 979 1493 l 1,3,-1
 1196 1493 l 1,4,-1
 866 932 l 1,5,-1
 1118 932 l 1,6,-1
 1118 821 l 1,7,-1
 803 821 l 1,8,-1
 717 670 l 1,9,-1
 717 635 l 1,10,-1
 1118 635 l 1,11,-1
 1118 524 l 1,12,-1
 717 524 l 1,13,-1
 717 0 l 1,14,-1
 514 0 l 1,15,-1
 514 524 l 1,16,-1
 115 524 l 1,17,-1
 115 635 l 1,18,-1
 514 635 l 1,19,-1
 514 670 l 1,20,-1
 424 821 l 1,21,-1
 115 821 l 1,22,-1
 115 932 l 1,23,-1
 358 932 l 1,24,-1
 37 1493 l 1,0,-1
EndSplineSet
EndChar
StartChar: brokenbar
Encoding: 166 166 166
Width: 1233
Flags: W
Fore
702 1432 m 1,0,-1
 702 674 l 1,1,-1
 530 674 l 1,2,-1
 530 1432 l 1,3,-1
 702 1432 l 1,0,-1
702 408 m 1,4,-1
 702 -350 l 1,5,-1
 530 -350 l 1,6,-1
 530 408 l 1,7,-1
 702 408 l 1,4,-1
EndSplineSet
EndChar
StartChar: section
Encoding: 167 167 167
Width: 1233
Flags: W
Fore
936 1462 m 1,0,-1
 936 1298 l 1,1,2
 853 1337 853 1337 781.5 1356.5 c 128,-1,3
 710 1376 710 1376 653 1376 c 0,4,5
 556 1376 556 1376 502.5 1336 c 128,-1,6
 449 1296 449 1296 449 1225 c 0,7,8
 449 1135 449 1135 654 1020 c 0,9,10
 680 1005 680 1005 694 997 c 0,11,12
 906 878 906 878 971 801 c 128,-1,13
 1036 724 1036 724 1036 623 c 0,14,15
 1036 533 1036 533 990.5 463 c 128,-1,16
 945 393 945 393 852 340 c 1,17,18
 913 288 913 288 942 233.5 c 128,-1,19
 971 179 971 179 971 115 c 0,20,21
 971 -27 971 -27 869 -111 c 128,-1,22
 767 -195 767 -195 594 -195 c 0,23,24
 521 -195 521 -195 443.5 -180.5 c 128,-1,25
 366 -166 366 -166 279 -137 c 1,26,-1
 279 27 l 1,27,28
 366 -12 366 -12 440 -31.5 c 128,-1,29
 514 -51 514 -51 571 -51 c 0,30,31
 673 -51 673 -51 729.5 -9 c 128,-1,32
 786 33 786 33 786 109 c 0,33,34
 786 211 786 211 565 334 c 2,35,-1
 541 348 l 2,36,37
 327 468 327 468 263 544.5 c 128,-1,38
 199 621 199 621 199 723 c 0,39,40
 199 814 199 814 245.5 885.5 c 128,-1,41
 292 957 292 957 383 1006 c 1,42,43
 323 1050 323 1050 293.5 1106 c 128,-1,44
 264 1162 264 1162 264 1231 c 0,45,46
 264 1361 264 1361 364 1440.5 c 128,-1,47
 464 1520 464 1520 631 1520 c 0,48,49
 703 1520 703 1520 779.5 1505.5 c 128,-1,50
 856 1491 856 1491 936 1462 c 1,0,-1
485 936 m 1,51,52
 423 891 423 891 392.5 846 c 128,-1,53
 362 801 362 801 362 754 c 0,54,55
 362 678 362 678 432.5 610.5 c 128,-1,56
 503 543 503 543 750 410 c 1,57,58
 812 455 812 455 842 500 c 128,-1,59
 872 545 872 545 872 592 c 0,60,61
 872 668 872 668 800.5 736 c 128,-1,62
 729 804 729 804 485 936 c 1,51,52
EndSplineSet
EndChar
StartChar: dieresis
Encoding: 168 168 168
Width: 1233
Flags: W
Fore
319 1552 m 1,0,-1
 522 1552 l 1,1,-1
 522 1350 l 1,2,-1
 319 1350 l 1,3,-1
 319 1552 l 1,0,-1
711 1552 m 1,4,-1
 913 1552 l 1,5,-1
 913 1350 l 1,6,-1
 711 1350 l 1,7,-1
 711 1552 l 1,4,-1
EndSplineSet
LCarets: 0 65535 '    ' 1 0 
Ligature: 0 0 'liga' space uni0308
EndChar
StartChar: copyright
Encoding: 169 169 169
Width: 1233
Flags: W
Fore
864 1071 m 1,0,-1
 864 963 l 1,1,2
 806 991 806 991 750.5 1004.5 c 128,-1,3
 695 1018 695 1018 637 1018 c 0,4,5
 520 1018 520 1018 452.5 943.5 c 128,-1,6
 385 869 385 869 385 741 c 0,7,8
 385 609 385 609 455 538 c 128,-1,9
 525 467 525 467 655 467 c 0,10,11
 711 467 711 467 762.5 479.5 c 128,-1,12
 814 492 814 492 864 518 c 1,13,-1
 864 414 l 1,14,15
 812 391 812 391 755 380 c 128,-1,16
 698 369 698 369 637 369 c 0,17,18
 457 369 457 369 353.5 469 c 128,-1,19
 250 569 250 569 250 741 c 0,20,21
 250 914 250 914 354 1015 c 128,-1,22
 458 1116 458 1116 637 1116 c 0,23,24
 698 1116 698 1116 755 1105 c 128,-1,25
 812 1094 812 1094 864 1071 c 1,0,-1
616 1255 m 0,26,27
 510 1255 510 1255 419.5 1218 c 128,-1,28
 329 1181 329 1181 254 1106 c 0,29,30
 179 1031 179 1031 140.5 939 c 128,-1,31
 102 847 102 847 102 741 c 0,32,33
 102 637 102 637 140.5 545.5 c 128,-1,34
 179 454 179 454 254 379 c 0,35,36
 330 303 330 303 420.5 265 c 128,-1,37
 511 227 511 227 616 227 c 0,38,39
 722 227 722 227 812.5 265 c 128,-1,40
 903 303 903 303 979 379 c 0,41,42
 1055 455 1055 455 1092.5 545.5 c 128,-1,43
 1130 636 1130 636 1130 741 c 0,44,45
 1130 847 1130 847 1092 939 c 128,-1,46
 1054 1031 1054 1031 979 1106 c 0,47,48
 904 1181 904 1181 813.5 1218 c 128,-1,49
 723 1255 723 1255 616 1255 c 0,26,27
616 1358 m 0,50,51
 743 1358 743 1358 852 1313 c 128,-1,52
 961 1268 961 1268 1051 1178 c 0,53,54
 1141 1087 1141 1087 1187 977 c 128,-1,55
 1233 867 1233 867 1233 741 c 0,56,57
 1233 616 1233 616 1187.5 507 c 128,-1,58
 1142 398 1142 398 1051 307 c 0,59,60
 960 216 960 216 851 170.5 c 128,-1,61
 742 125 742 125 616 125 c 0,62,63
 491 125 491 125 382 170.5 c 128,-1,64
 273 216 273 216 182 307 c 0,65,66
 91 398 91 398 45.5 507 c 128,-1,67
 0 616 0 616 0 741 c 0,68,69
 0 867 0 867 46 977 c 128,-1,70
 92 1087 92 1087 182 1178 c 0,71,72
 272 1268 272 1268 381 1313 c 128,-1,73
 490 1358 490 1358 616 1358 c 0,50,51
EndSplineSet
EndChar
StartChar: ordfeminine
Encoding: 170 170 170
Width: 1233
Flags: W
Fore
684 1104 m 2,0,1
 540 1104 540 1104 478 1070 c 128,-1,2
 416 1036 416 1036 416 958 c 0,3,4
 416 894 416 894 459.5 855.5 c 128,-1,5
 503 817 503 817 575 817 c 0,6,7
 680 817 680 817 745.5 888.5 c 128,-1,8
 811 960 811 960 811 1075 c 2,9,-1
 811 1104 l 1,10,-1
 684 1104 l 2,0,1
954 1165 m 2,11,-1
 954 717 l 1,12,-1
 811 717 l 1,13,-1
 811 829 l 1,14,15
 762 764 762 764 696.5 731 c 128,-1,16
 631 698 631 698 549 698 c 0,17,18
 420 698 420 698 345 766 c 128,-1,19
 270 834 270 834 270 950 c 0,20,21
 270 1079 270 1079 363.5 1149 c 128,-1,22
 457 1219 457 1219 629 1219 c 2,23,-1
 811 1219 l 1,24,-1
 811 1223 l 2,25,26
 811 1313 811 1313 751.5 1359 c 128,-1,27
 692 1405 692 1405 575 1405 c 0,28,29
 524 1405 524 1405 461.5 1387.5 c 128,-1,30
 399 1370 399 1370 332 1337 c 1,31,-1
 332 1464 l 1,32,33
 400 1492 400 1492 467.5 1506 c 128,-1,34
 535 1520 535 1520 598 1520 c 0,35,36
 782 1520 782 1520 868 1434 c 128,-1,37
 954 1348 954 1348 954 1165 c 2,11,-1
293 592 m 1,38,-1
 961 592 l 1,39,-1
 961 469 l 1,40,-1
 293 469 l 1,41,-1
 293 592 l 1,38,-1
EndSplineSet
EndChar
StartChar: guillemotleft
Encoding: 171 171 171
Width: 1233
Flags: W
Fore
588 1059 m 1,0,-1
 588 868 l 1,1,-1
 287 600 l 1,2,-1
 588 332 l 1,3,-1
 588 141 l 1,4,-1
 119 559 l 1,5,-1
 119 641 l 1,6,-1
 588 1059 l 1,0,-1
1042 1059 m 1,7,-1
 1042 868 l 1,8,-1
 741 600 l 1,9,-1
 1042 332 l 1,10,-1
 1042 141 l 1,11,-1
 573 559 l 1,12,-1
 573 641 l 1,13,-1
 1042 1059 l 1,7,-1
EndSplineSet
EndChar
StartChar: logicalnot
Encoding: 172 172 172
Width: 1233
Flags: W
Fore
88 862 m 1,0,-1
 1145 862 l 1,1,-1
 1145 371 l 1,2,-1
 977 371 l 1,3,-1
 977 690 l 1,4,-1
 88 690 l 1,5,-1
 88 862 l 1,0,-1
EndSplineSet
EndChar
StartChar: sfthyphen
Encoding: 173 173 173
Width: 1233
Flags: W
Fore
356 643 m 1,0,-1
 877 643 l 1,1,-1
 877 479 l 1,2,-1
 356 479 l 1,3,-1
 356 643 l 1,0,-1
EndSplineSet
EndChar
StartChar: registered
Encoding: 174 174 174
Width: 1233
Flags: W
Fore
600 1100 m 2,0,1
 747 1100 747 1100 819 1051 c 128,-1,2
 891 1002 891 1002 891 901 c 0,3,4
 891 830 891 830 847 783.5 c 128,-1,5
 803 737 803 737 723 723 c 1,6,7
 742 718 742 718 771 684.5 c 128,-1,8
 800 651 800 651 838 592 c 1,9,-1
 952 406 l 1,10,-1
 809 406 l 1,11,-1
 702 580 l 2,12,13
 653 660 653 660 622.5 681 c 128,-1,14
 592 702 592 702 547 702 c 2,15,-1
 492 702 l 1,16,-1
 492 406 l 1,17,-1
 362 406 l 1,18,-1
 362 1100 l 1,19,-1
 600 1100 l 2,0,1
594 1016 m 2,20,-1
 492 1016 l 1,21,-1
 492 784 l 1,22,-1
 594 784 l 2,23,24
 684 784 684 784 721 811 c 128,-1,25
 758 838 758 838 758 901 c 0,26,27
 758 963 758 963 721 989.5 c 128,-1,28
 684 1016 684 1016 594 1016 c 2,20,-1
616 1358 m 0,29,30
 743 1358 743 1358 852 1313 c 128,-1,31
 961 1268 961 1268 1051 1178 c 0,32,33
 1141 1087 1141 1087 1187 977 c 128,-1,34
 1233 867 1233 867 1233 741 c 0,35,36
 1233 616 1233 616 1187.5 507 c 128,-1,37
 1142 398 1142 398 1051 307 c 0,38,39
 960 216 960 216 851 170.5 c 128,-1,40
 742 125 742 125 616 125 c 0,41,42
 491 125 491 125 382 170.5 c 128,-1,43
 273 216 273 216 182 307 c 0,44,45
 91 398 91 398 45.5 507 c 128,-1,46
 0 616 0 616 0 741 c 0,47,48
 0 867 0 867 46 977 c 128,-1,49
 92 1087 92 1087 182 1178 c 0,50,51
 272 1268 272 1268 381 1313 c 128,-1,52
 490 1358 490 1358 616 1358 c 0,29,30
616 1255 m 0,53,54
 510 1255 510 1255 419.5 1218 c 128,-1,55
 329 1181 329 1181 254 1106 c 0,56,57
 179 1031 179 1031 140.5 939 c 128,-1,58
 102 847 102 847 102 741 c 0,59,60
 102 637 102 637 140.5 545.5 c 128,-1,61
 179 454 179 454 254 379 c 0,62,63
 330 303 330 303 420.5 265 c 128,-1,64
 511 227 511 227 616 227 c 0,65,66
 722 227 722 227 812.5 265 c 128,-1,67
 903 303 903 303 979 379 c 0,68,69
 1055 455 1055 455 1092.5 545.5 c 128,-1,70
 1130 636 1130 636 1130 741 c 0,71,72
 1130 847 1130 847 1092 939 c 128,-1,73
 1054 1031 1054 1031 979 1106 c 0,74,75
 904 1181 904 1181 813.5 1218 c 128,-1,76
 723 1255 723 1255 616 1255 c 0,53,54
EndSplineSet
EndChar
StartChar: macron
Encoding: 175 175 175
Width: 1233
Flags: W
Fore
317 1526 m 1,0,-1
 915 1526 l 1,1,-1
 915 1378 l 1,2,-1
 317 1378 l 1,3,-1
 317 1526 l 1,0,-1
EndSplineSet
LCarets: 0 65535 '    ' 1 0 
Ligature: 0 0 'liga' space uni0304
EndChar
StartChar: degree
Encoding: 176 176 176
Width: 1233
Flags: W
Fore
616 1520 m 0,0,1
 681 1520 681 1520 739.5 1495.5 c 128,-1,2
 798 1471 798 1471 842 1425 c 0,3,4
 887 1380 887 1380 910.5 1323 c 128,-1,5
 934 1266 934 1266 934 1200 c 0,6,7
 934 1068 934 1068 841 976.5 c 128,-1,8
 748 885 748 885 614 885 c 0,9,10
 479 885 479 885 389 975 c 128,-1,11
 299 1065 299 1065 299 1200 c 0,12,13
 299 1334 299 1334 391 1427 c 128,-1,14
 483 1520 483 1520 616 1520 c 0,0,1
616 1391 m 0,15,16
 537 1391 537 1391 481.5 1335.5 c 128,-1,17
 426 1280 426 1280 426 1200 c 0,18,19
 426 1120 426 1120 480.5 1066 c 128,-1,20
 535 1012 535 1012 614 1012 c 0,21,22
 694 1012 694 1012 750.5 1067 c 128,-1,23
 807 1122 807 1122 807 1200 c 0,24,25
 807 1279 807 1279 751 1335 c 128,-1,26
 695 1391 695 1391 616 1391 c 0,15,16
EndSplineSet
EndChar
StartChar: plusminus
Encoding: 177 177 177
Width: 1233
Flags: W
Fore
88 170 m 1,0,-1
 1145 170 l 1,1,-1
 1145 0 l 1,2,-1
 88 0 l 1,3,-1
 88 170 l 1,0,-1
700 1171 m 1,4,-1
 700 842 l 1,5,-1
 1145 842 l 1,6,-1
 1145 672 l 1,7,-1
 700 672 l 1,8,-1
 700 340 l 1,9,-1
 532 340 l 1,10,-1
 532 672 l 1,11,-1
 88 672 l 1,12,-1
 88 842 l 1,13,-1
 532 842 l 1,14,-1
 532 1171 l 1,15,-1
 700 1171 l 1,4,-1
EndSplineSet
EndChar
StartChar: twosuperior
Encoding: 178 178 178
Width: 1233
Flags: W
Fore
483 782 m 1,0,-1
 893 782 l 1,1,-1
 893 668 l 1,2,-1
 322 668 l 1,3,-1
 322 778 l 1,4,-1
 553 1004 l 1,5,6
 654 1101 654 1101 694.5 1162 c 128,-1,7
 735 1223 735 1223 735 1274 c 0,8,9
 735 1335 735 1335 685 1373 c 128,-1,10
 635 1411 635 1411 553 1411 c 0,11,12
 504 1411 504 1411 447.5 1393 c 128,-1,13
 391 1375 391 1375 328 1339 c 1,14,-1
 328 1464 l 1,15,16
 393 1492 393 1492 453.5 1506 c 128,-1,17
 514 1520 514 1520 573 1520 c 0,18,19
 715 1520 715 1520 801 1453.5 c 128,-1,20
 887 1387 887 1387 887 1280 c 0,21,22
 887 1223 887 1223 850 1163.5 c 128,-1,23
 813 1104 813 1104 694 987 c 2,24,-1
 483 782 l 1,0,-1
EndSplineSet
EndChar
StartChar: threesuperior
Encoding: 179 179 179
Width: 1233
Flags: W
Fore
731 1120 m 1,0,1
 825 1099 825 1099 874.5 1045 c 128,-1,2
 924 991 924 991 924 911 c 0,3,4
 924 787 924 787 829 720 c 128,-1,5
 734 653 734 653 557 653 c 0,6,7
 499 653 499 653 442 663.5 c 128,-1,8
 385 674 385 674 326 694 c 1,9,-1
 326 815 l 1,10,11
 395 788 395 788 451.5 775 c 128,-1,12
 508 762 508 762 553 762 c 0,13,14
 654 762 654 762 713 802.5 c 128,-1,15
 772 843 772 843 772 911 c 0,16,17
 772 985 772 985 717 1023 c 128,-1,18
 662 1061 662 1061 553 1061 c 2,19,-1
 487 1061 l 1,20,-1
 487 1169 l 1,21,-1
 561 1169 l 2,22,23
 654 1169 654 1169 703 1200.5 c 128,-1,24
 752 1232 752 1232 752 1292 c 0,25,26
 752 1348 752 1348 704 1379.5 c 128,-1,27
 656 1411 656 1411 569 1411 c 0,28,29
 525 1411 525 1411 469 1399 c 128,-1,30
 413 1387 413 1387 354 1364 c 1,31,-1
 354 1485 l 1,32,33
 423 1502 423 1502 481.5 1511 c 128,-1,34
 540 1520 540 1520 590 1520 c 0,35,36
 735 1520 735 1520 819 1461 c 128,-1,37
 903 1402 903 1402 903 1303 c 0,38,39
 903 1232 903 1232 859 1185.5 c 128,-1,40
 815 1139 815 1139 731 1120 c 1,0,1
EndSplineSet
EndChar
StartChar: acute
Encoding: 180 180 180
Width: 1233
Flags: W
Fore
756 1638 m 1,0,-1
 954 1638 l 1,1,-1
 629 1262 l 1,2,-1
 475 1262 l 1,3,-1
 756 1638 l 1,0,-1
EndSplineSet
LCarets: 0 65535 '    ' 1 0 
Ligature: 0 0 'liga' space acutecomb
EndChar
StartChar: mu
Encoding: 181 181 181
Width: 1233
Flags: W
Fore
195 -428 m 1,0,-1
 195 1120 l 1,1,-1
 379 1120 l 1,2,-1
 379 424 l 2,3,4
 379 282 379 282 439 206.5 c 128,-1,5
 499 131 499 131 610 131 c 0,6,7
 737 131 737 131 801.5 216 c 128,-1,8
 866 301 866 301 866 467 c 2,9,-1
 866 1120 l 1,10,-1
 1051 1120 l 1,11,-1
 1051 256 l 2,12,13
 1051 197 1051 197 1067 169 c 128,-1,14
 1083 141 1083 141 1116 141 c 0,15,16
 1125 141 1125 141 1139.5 146 c 128,-1,17
 1154 151 1154 151 1182 164 c 1,18,-1
 1182 16 l 1,19,20
 1144 -7 1144 -7 1110 -18 c 128,-1,21
 1076 -29 1076 -29 1042 -29 c 0,22,23
 980 -29 980 -29 942.5 10.5 c 128,-1,24
 905 50 905 50 893 129 c 1,25,26
 847 49 847 49 780.5 10 c 128,-1,27
 714 -29 714 -29 625 -29 c 0,28,29
 533 -29 533 -29 469.5 9 c 128,-1,30
 406 47 406 47 362 127 c 1,31,-1
 362 -428 l 1,32,-1
 195 -428 l 1,0,-1
EndSplineSet
EndChar
StartChar: paragraph
Encoding: 182 182 182
Width: 1233
Flags: W
Fore
582 1493 m 2,0,-1
 1030 1493 l 1,1,-1
 1030 -197 l 1,2,-1
 889 -197 l 1,3,-1
 889 1370 l 1,4,-1
 698 1370 l 1,5,-1
 698 -197 l 1,6,-1
 557 -197 l 1,7,-1
 557 649 l 1,8,9
 342 666 342 666 224 776.5 c 128,-1,10
 106 887 106 887 106 1071 c 0,11,12
 106 1261 106 1261 236.5 1377 c 128,-1,13
 367 1493 367 1493 582 1493 c 2,0,-1
EndSplineSet
EndChar
StartChar: periodcentered
Encoding: 183 183 183
Width: 1233
Flags: W
Fore
489 864 m 1,0,-1
 741 864 l 1,1,-1
 741 559 l 1,2,-1
 489 559 l 1,3,-1
 489 864 l 1,0,-1
EndSplineSet
EndChar
StartChar: onesuperior
Encoding: 185 185 185
Width: 1233
Flags: W
Fore
362 778 m 1,0,-1
 567 778 l 1,1,-1
 567 1389 l 1,2,-1
 344 1348 l 1,3,-1
 344 1464 l 1,4,-1
 573 1503 l 1,5,-1
 711 1503 l 1,6,-1
 711 778 l 1,7,-1
 915 778 l 1,8,-1
 915 668 l 1,9,-1
 362 668 l 1,10,-1
 362 778 l 1,0,-1
EndSplineSet
EndChar
StartChar: ordmasculine
Encoding: 186 186 186
Width: 1233
Flags: W
Fore
616 1403 m 0,0,1
 514 1403 514 1403 456.5 1325 c 128,-1,2
 399 1247 399 1247 399 1108 c 0,3,4
 399 969 399 969 456.5 892 c 128,-1,5
 514 815 514 815 616 815 c 0,6,7
 717 815 717 815 775.5 893.5 c 128,-1,8
 834 972 834 972 834 1108 c 0,9,10
 834 1247 834 1247 776.5 1325 c 128,-1,11
 719 1403 719 1403 616 1403 c 0,0,1
616 1520 m 0,12,13
 786 1520 786 1520 887.5 1408 c 128,-1,14
 989 1296 989 1296 989 1108 c 0,15,16
 989 921 989 921 888 809.5 c 128,-1,17
 787 698 787 698 616 698 c 0,18,19
 446 698 446 698 345 809.5 c 128,-1,20
 244 921 244 921 244 1108 c 0,21,22
 244 1296 244 1296 345.5 1408 c 128,-1,23
 447 1520 447 1520 616 1520 c 0,12,13
276 592 m 1,24,-1
 952 592 l 1,25,-1
 952 469 l 1,26,-1
 276 469 l 1,27,-1
 276 592 l 1,24,-1
EndSplineSet
EndChar
StartChar: guillemotright
Encoding: 187 187 187
Width: 1233
Flags: W
Fore
647 1059 m 1,0,-1
 1116 641 l 1,1,-1
 1116 559 l 1,2,-1
 647 141 l 1,3,-1
 647 332 l 1,4,-1
 948 600 l 1,5,-1
 647 868 l 1,6,-1
 647 1059 l 1,0,-1
193 1059 m 1,7,-1
 662 641 l 1,8,-1
 662 559 l 1,9,-1
 193 141 l 1,10,-1
 193 332 l 1,11,-1
 494 600 l 1,12,-1
 193 868 l 1,13,-1
 193 1059 l 1,7,-1
EndSplineSet
EndChar
StartChar: questiondown
Encoding: 191 191 191
Width: 1233
Flags: W
Fore
549 1092 m 1,0,-1
 739 1092 l 1,1,-1
 739 938 l 2,2,3
 739 840 739 840 708.5 771.5 c 128,-1,4
 678 703 678 703 594 621 c 2,5,-1
 504 532 l 1,6,7
 442 473 442 473 418.5 429 c 128,-1,8
 395 385 395 385 395 336 c 0,9,10
 395 247 395 247 460.5 192 c 128,-1,11
 526 137 526 137 635 137 c 0,12,13
 713 137 713 137 802 171.5 c 128,-1,14
 891 206 891 206 989 274 c 1,15,-1
 989 86 l 1,16,17
 895 29 895 29 799.5 1 c 128,-1,18
 704 -27 704 -27 600 -27 c 0,19,20
 414 -27 414 -27 303.5 69 c 128,-1,21
 193 165 193 165 193 326 c 0,22,23
 193 402 193 402 226.5 467.5 c 128,-1,24
 260 533 260 533 354 625 c 2,25,-1
 442 711 l 2,26,27
 509 775 509 775 528 817 c 128,-1,28
 547 859 547 859 547 922 c 0,29,30
 547 923 547 923 547 927 c 0,31,32
 549 950 549 950 549 969 c 2,33,-1
 549 1092 l 1,0,-1
745 1239 m 1,34,-1
 543 1239 l 1,35,-1
 543 1493 l 1,36,-1
 745 1493 l 1,37,-1
 745 1239 l 1,34,-1
EndSplineSet
EndChar
StartChar: Aring
Encoding: 197 197 197
Width: 1233
Flags: W
Fore
768 1626 m 0,0,1
 768 1689 768 1689 723.5 1733.5 c 128,-1,2
 679 1778 679 1778 616 1778 c 0,3,4
 552 1778 552 1778 508.5 1734.5 c 128,-1,5
 465 1691 465 1691 465 1626 c 0,6,7
 465 1563 465 1563 509 1519 c 128,-1,8
 553 1475 553 1475 616 1475 c 0,9,10
 679 1475 679 1475 723.5 1519 c 128,-1,11
 768 1563 768 1563 768 1626 c 0,0,1
616 1311 m 1,12,-1
 403 551 l 1,13,-1
 829 551 l 1,14,-1
 616 1311 l 1,12,-1
465 1399 m 1,15,16
 407 1432 407 1432 374.5 1492.5 c 128,-1,17
 342 1553 342 1553 342 1626 c 0,18,19
 342 1740 342 1740 422 1820.5 c 128,-1,20
 502 1901 502 1901 616 1901 c 0,21,22
 730 1901 730 1901 810.5 1820.5 c 128,-1,23
 891 1740 891 1740 891 1626 c 0,24,25
 891 1553 891 1553 859 1494 c 128,-1,26
 827 1435 827 1435 768 1399 c 1,27,-1
 1196 0 l 1,28,-1
 987 0 l 1,29,-1
 877 389 l 1,30,-1
 354 389 l 1,31,-1
 246 0 l 1,32,-1
 37 0 l 1,33,-1
 465 1399 l 1,15,16
EndSplineSet
LCarets: 0 65535 '    ' 1 0 
Ligature: 0 1 'liga' A uni030A
EndChar
StartChar: AE
Encoding: 198 198 198
Width: 1233
Flags: W
Fore
1161 1493 m 1,0,-1
 1161 1323 l 1,1,-1
 823 1323 l 1,2,-1
 823 881 l 1,3,-1
 1130 881 l 1,4,-1
 1130 711 l 1,5,-1
 823 711 l 1,6,-1
 823 170 l 1,7,-1
 1180 170 l 1,8,-1
 1180 0 l 1,9,-1
 637 0 l 1,10,-1
 637 383 l 1,11,-1
 285 383 l 1,12,-1
 184 0 l 1,13,-1
 0 0 l 1,14,-1
 410 1493 l 1,15,-1
 1161 1493 l 1,0,-1
530 1323 m 1,16,-1
 328 551 l 1,17,-1
 637 551 l 1,18,-1
 637 1323 l 1,19,-1
 530 1323 l 1,16,-1
EndSplineSet
EndChar
StartChar: Eth
Encoding: 208 208 208
Width: 1233
Flags: W
Fore
436 1493 m 2,0,1
 778 1493 778 1493 940 1311 c 128,-1,2
 1102 1129 1102 1129 1102 745 c 0,3,4
 1102 363 1102 363 939.5 181.5 c 128,-1,5
 777 0 777 0 436 0 c 2,6,-1
 133 0 l 1,7,-1
 133 709 l 1,8,-1
 8 709 l 1,9,-1
 8 858 l 1,10,-1
 133 858 l 1,11,-1
 133 1493 l 1,12,-1
 436 1493 l 2,0,1
436 166 m 2,13,14
 691 166 691 166 792 291.5 c 128,-1,15
 893 417 893 417 893 745 c 0,16,17
 893 1076 893 1076 792.5 1201.5 c 128,-1,18
 692 1327 692 1327 436 1327 c 2,19,-1
 340 1327 l 1,20,-1
 340 858 l 1,21,-1
 604 858 l 1,22,-1
 604 709 l 1,23,-1
 340 709 l 1,24,-1
 340 166 l 1,25,-1
 436 166 l 2,13,14
EndSplineSet
EndChar
StartChar: multiply
Encoding: 215 215 215
Width: 1233
Flags: W
Fore
150 293 m 1,0,-1
 500 641 l 1,1,-1
 150 991 l 1,2,-1
 266 1108 l 1,3,-1
 616 758 l 1,4,-1
 967 1108 l 1,5,-1
 1083 991 l 1,6,-1
 733 641 l 1,7,-1
 1081 293 l 1,8,-1
 965 174 l 1,9,-1
 616 524 l 1,10,-1
 268 174 l 1,11,-1
 150 293 l 1,0,-1
EndSplineSet
EndChar
StartChar: Oslash
Encoding: 216 216 216
Width: 1233
Flags: W
Fore
371 303 m 1,0,1
 401 225 401 225 466.5 180 c 128,-1,2
 532 135 532 135 616 135 c 0,3,4
 770 135 770 135 837.5 275.5 c 128,-1,5
 905 416 905 416 905 745 c 0,6,7
 905 855 905 855 900 923 c 128,-1,8
 895 991 895 991 885 1036 c 1,9,-1
 371 303 l 1,0,1
338 471 m 1,10,-1
 842 1190 l 1,11,12
 817 1271 817 1271 759.5 1313.5 c 128,-1,13
 702 1356 702 1356 616 1356 c 0,14,15
 459 1356 459 1356 393.5 1210 c 128,-1,16
 328 1064 328 1064 328 686 c 0,17,18
 328 606 328 606 330.5 555.5 c 128,-1,19
 333 505 333 505 338 471 c 1,10,-1
1032 1247 m 1,20,21
 1073 1166 1073 1166 1094.5 1037 c 128,-1,22
 1116 908 1116 908 1116 745 c 0,23,24
 1116 355 1116 355 992.5 163 c 128,-1,25
 869 -29 869 -29 616 -29 c 0,26,27
 495 -29 495 -29 405 11.5 c 128,-1,28
 315 52 315 52 254 133 c 1,29,-1
 111 -70 l 1,30,-1
 8 0 l 1,31,-1
 186 252 l 1,32,33
 154 325 154 325 135.5 456 c 128,-1,34
 117 587 117 587 117 745 c 0,35,36
 117 1136 117 1136 240.5 1328 c 128,-1,37
 364 1520 364 1520 616 1520 c 0,38,39
 731 1520 731 1520 817.5 1479 c 128,-1,40
 904 1438 904 1438 961 1358 c 1,41,-1
 1100 1559 l 1,42,-1
 1200 1485 l 1,43,-1
 1032 1247 l 1,20,21
EndSplineSet
EndChar
StartChar: Thorn
Encoding: 222 222 222
Width: 1233
Flags: W
Fore
403 1057 m 1,0,-1
 403 532 l 1,1,-1
 637 532 l 2,2,3
 795 532 795 532 873.5 598 c 128,-1,4
 952 664 952 664 952 795 c 0,5,6
 952 926 952 926 873.5 991.5 c 128,-1,7
 795 1057 795 1057 637 1057 c 2,8,-1
 403 1057 l 1,0,-1
201 1493 m 1,9,-1
 403 1493 l 1,10,-1
 403 1223 l 1,11,-1
 657 1223 l 2,12,13
 917 1223 917 1223 1041 1118 c 128,-1,14
 1165 1013 1165 1013 1165 795 c 0,15,16
 1165 576 1165 576 1041 471.5 c 128,-1,17
 917 367 917 367 657 367 c 2,18,-1
 403 367 l 1,19,-1
 403 0 l 1,20,-1
 201 0 l 1,21,-1
 201 1493 l 1,9,-1
EndSplineSet
EndChar
StartChar: germandbls
Encoding: 223 223 223
Width: 1233
Flags: W
Fore
188 1137 m 2,0,1
 188 1350 188 1350 293 1453 c 128,-1,2
 398 1556 398 1556 614 1556 c 0,3,4
 818 1556 818 1556 923 1445.5 c 128,-1,5
 1028 1335 1028 1335 1030 1119 c 1,6,7
 875 1105 875 1105 791 1043 c 128,-1,8
 707 981 707 981 707 881 c 0,9,10
 707 832 707 832 734.5 793.5 c 128,-1,11
 762 755 762 755 829 713 c 2,12,-1
 887 676 l 2,13,14
 1038 583 1038 583 1093.5 501 c 128,-1,15
 1149 419 1149 419 1149 303 c 0,16,17
 1149 149 1149 149 1037 60 c 128,-1,18
 925 -29 925 -29 729 -29 c 0,19,20
 660 -29 660 -29 592.5 -16.5 c 128,-1,21
 525 -4 525 -4 459 20 c 1,22,-1
 459 184 l 1,23,24
 535 153 535 153 601.5 138 c 128,-1,25
 668 123 668 123 727 123 c 0,26,27
 835 123 835 123 899 171.5 c 128,-1,28
 963 220 963 220 963 301 c 0,29,30
 963 372 963 372 930.5 419.5 c 128,-1,31
 898 467 898 467 778 541 c 1,32,-1
 711 580 l 1,33,34
 619 636 619 636 573.5 702.5 c 128,-1,35
 528 769 528 769 528 848 c 0,36,37
 528 976 528 976 609 1061.5 c 128,-1,38
 690 1147 690 1147 846 1182 c 1,39,40
 844 1289 844 1289 783.5 1346 c 128,-1,41
 723 1403 723 1403 610 1403 c 0,42,43
 489 1403 489 1403 432 1337.5 c 128,-1,44
 375 1272 375 1272 375 1133 c 2,45,-1
 375 0 l 1,46,-1
 188 0 l 1,47,-1
 188 1137 l 2,0,1
EndSplineSet
EndChar
StartChar: ae
Encoding: 230 230 230
Width: 1233
Flags: W
Fore
543 442 m 2,0,-1
 543 514 l 1,1,-1
 494 514 l 2,2,3
 325 514 325 514 265 469 c 128,-1,4
 205 424 205 424 205 311 c 0,5,6
 205 222 205 222 249.5 173.5 c 128,-1,7
 294 125 294 125 377 125 c 0,8,9
 469 125 469 125 506 191.5 c 128,-1,10
 543 258 543 258 543 442 c 2,0,-1
1036 657 m 1,11,-1
 1036 709 l 2,12,13
 1036 860 1036 860 997.5 926.5 c 128,-1,14
 959 993 959 993 872 993 c 0,15,16
 785 993 785 993 747 925 c 128,-1,17
 709 857 709 857 709 700 c 2,18,-1
 709 657 l 1,19,-1
 1036 657 l 1,11,-1
1200 514 m 1,20,-1
 709 514 l 1,21,22
 708 499 708 499 707.5 481.5 c 128,-1,23
 707 464 707 464 707 430 c 0,24,25
 707 269 707 269 757.5 197 c 128,-1,26
 808 125 808 125 920 125 c 0,27,28
 999 125 999 125 1063.5 150.5 c 128,-1,29
 1128 176 1128 176 1178 227 c 1,30,-1
 1178 55 l 1,31,32
 1123 14 1123 14 1057 -7.5 c 128,-1,33
 991 -29 991 -29 920 -29 c 0,34,35
 810 -29 810 -29 735.5 12 c 128,-1,36
 661 53 661 53 629 131 c 1,37,38
 590 51 590 51 523.5 11 c 128,-1,39
 457 -29 457 -29 360 -29 c 0,40,41
 204 -29 204 -29 122.5 57 c 128,-1,42
 41 143 41 143 41 307 c 0,43,44
 41 478 41 478 141 567.5 c 128,-1,45
 241 657 241 657 432 657 c 2,46,-1
 549 657 l 1,47,-1
 549 745 l 2,48,49
 549 865 549 865 499.5 929 c 128,-1,50
 450 993 450 993 356 993 c 0,51,52
 300 993 300 993 234 971.5 c 128,-1,53
 168 950 168 950 106 911 c 1,54,-1
 106 1079 l 1,55,56
 183 1114 183 1114 249 1130.5 c 128,-1,57
 315 1147 315 1147 375 1147 c 0,58,59
 466 1147 466 1147 528 1115.5 c 128,-1,60
 590 1084 590 1084 627 1020 c 1,61,62
 660 1081 660 1081 726 1114 c 128,-1,63
 792 1147 792 1147 881 1147 c 0,64,65
 1055 1147 1055 1147 1127.5 1028.5 c 128,-1,66
 1200 910 1200 910 1200 604 c 2,67,-1
 1200 514 l 1,20,-1
EndSplineSet
EndChar
StartChar: eth
Encoding: 240 240 240
Width: 1233
Flags: W
Fore
717 1327 m 1,0,1
 914 1115 914 1115 1005 925 c 128,-1,2
 1096 735 1096 735 1096 535 c 0,3,4
 1096 267 1096 267 970.5 119 c 128,-1,5
 845 -29 845 -29 616 -29 c 0,6,7
 388 -29 388 -29 262.5 119 c 128,-1,8
 137 267 137 267 137 535 c 0,9,10
 137 800 137 800 262.5 948 c 128,-1,11
 388 1096 388 1096 612 1096 c 0,12,13
 646 1096 646 1096 663.5 1095 c 128,-1,14
 681 1094 681 1094 696 1092 c 1,15,16
 663 1137 663 1137 627 1181.5 c 128,-1,17
 591 1226 591 1226 553 1270 c 1,18,-1
 274 1178 l 1,19,-1
 244 1276 l 1,20,-1
 481 1356 l 1,21,-1
 299 1556 l 1,22,-1
 518 1556 l 1,23,-1
 645 1411 l 1,24,-1
 934 1505 l 1,25,-1
 967 1407 l 1,26,-1
 717 1327 l 1,0,1
793 918 m 1,27,28
 758 931 758 931 717 937.5 c 128,-1,29
 676 944 676 944 631 944 c 0,30,31
 485 944 485 944 408.5 839 c 128,-1,32
 332 734 332 734 332 535 c 0,33,34
 332 339 332 339 406 233 c 128,-1,35
 480 127 480 127 616 127 c 0,36,37
 753 127 753 127 827 233 c 128,-1,38
 901 339 901 339 901 535 c 0,39,40
 901 645 901 645 872 746.5 c 128,-1,41
 843 848 843 848 793 918 c 1,27,28
EndSplineSet
EndChar
StartChar: divide
Encoding: 247 247 247
Width: 1233
Flags: W
Fore
494 395 m 1,0,-1
 739 395 l 1,1,-1
 739 150 l 1,2,-1
 494 150 l 1,3,-1
 494 395 l 1,0,-1
494 1135 m 1,4,-1
 739 1135 l 1,5,-1
 739 889 l 1,6,-1
 494 889 l 1,7,-1
 494 1135 l 1,4,-1
88 727 m 1,8,-1
 1145 727 l 1,9,-1
 1145 557 l 1,10,-1
 88 557 l 1,11,-1
 88 727 l 1,8,-1
EndSplineSet
EndChar
StartChar: oslash
Encoding: 248 248 248
Width: 1233
Flags: W
Fore
877 780 m 1,0,-1
 414 221 l 1,1,2
 450 174 450 174 500.5 150.5 c 128,-1,3
 551 127 551 127 616 127 c 0,4,5
 757 127 757 127 829 236.5 c 128,-1,6
 901 346 901 346 901 559 c 0,7,8
 901 611 901 611 895 666.5 c 128,-1,9
 889 722 889 722 877 780 c 1,0,-1
817 897 m 1,10,11
 782 945 782 945 732.5 968 c 128,-1,12
 683 991 683 991 616 991 c 0,13,14
 477 991 477 991 402.5 884 c 128,-1,15
 328 777 328 777 328 575 c 0,16,17
 328 527 328 527 335 469 c 128,-1,18
 342 411 342 411 356 340 c 1,19,-1
 817 897 l 1,10,11
217 180 m 1,20,21
 178 251 178 251 157.5 348.5 c 128,-1,22
 137 446 137 446 137 559 c 0,23,24
 137 845 137 845 260 996 c 128,-1,25
 383 1147 383 1147 616 1147 c 0,26,27
 716 1147 716 1147 795 1119.5 c 128,-1,28
 874 1092 874 1092 934 1036 c 1,29,-1
 1081 1212 l 1,30,-1
 1174 1135 l 1,31,-1
 1010 940 l 1,32,33
 1052 874 1052 874 1074 777.5 c 128,-1,34
 1096 681 1096 681 1096 559 c 0,35,36
 1096 272 1096 272 973 121.5 c 128,-1,37
 850 -29 850 -29 616 -29 c 0,38,39
 513 -29 513 -29 434.5 0.5 c 128,-1,40
 356 30 356 30 299 90 c 1,41,-1
 139 -96 l 1,42,-1
 47 -20 l 1,43,-1
 217 180 l 1,20,21
EndSplineSet
EndChar
StartChar: thorn
Encoding: 254 254 254
Width: 1233
Flags: W
Fore
375 141 m 1,0,-1
 375 -426 l 1,1,-1
 190 -426 l 1,2,-1
 190 1567 l 1,3,-1
 375 1567 l 1,4,-1
 375 977 l 1,5,6
 421 1060 421 1060 497.5 1103.5 c 128,-1,7
 574 1147 574 1147 674 1147 c 0,8,9
 877 1147 877 1147 992.5 990 c 128,-1,10
 1108 833 1108 833 1108 555 c 0,11,12
 1108 282 1108 282 992 126.5 c 128,-1,13
 876 -29 876 -29 674 -29 c 0,14,15
 572 -29 572 -29 495.5 14.5 c 128,-1,16
 419 58 419 58 375 141 c 1,0,-1
915 559 m 0,17,18
 915 773 915 773 847.5 882 c 128,-1,19
 780 991 780 991 647 991 c 0,20,21
 513 991 513 991 444 881.5 c 128,-1,22
 375 772 375 772 375 559 c 0,23,24
 375 347 375 347 444 237 c 128,-1,25
 513 127 513 127 647 127 c 0,26,27
 780 127 780 127 847.5 236 c 128,-1,28
 915 345 915 345 915 559 c 0,17,18
EndSplineSet
EndChar
StartChar: dcroat
Encoding: 273 273 273
Width: 1233
Flags: W
Fore
858 977 m 1,0,-1
 858 1286 l 1,1,-1
 553 1286 l 1,2,-1
 553 1407 l 1,3,-1
 858 1407 l 1,4,-1
 858 1556 l 1,5,-1
 1042 1556 l 1,6,-1
 1042 1407 l 1,7,-1
 1233 1407 l 1,8,-1
 1233 1286 l 1,9,-1
 1042 1286 l 1,10,-1
 1042 0 l 1,11,-1
 858 0 l 1,12,-1
 858 141 l 1,13,14
 812 58 812 58 735.5 14.5 c 128,-1,15
 659 -29 659 -29 559 -29 c 0,16,17
 356 -29 356 -29 239.5 128.5 c 128,-1,18
 123 286 123 286 123 563 c 0,19,20
 123 836 123 836 240 991.5 c 128,-1,21
 357 1147 357 1147 559 1147 c 0,22,23
 660 1147 660 1147 737 1103.5 c 128,-1,24
 814 1060 814 1060 858 977 c 1,0,-1
317 559 m 0,25,26
 317 345 317 345 385 236 c 128,-1,27
 453 127 453 127 586 127 c 0,28,29
 719 127 719 127 788.5 237 c 128,-1,30
 858 347 858 347 858 559 c 0,31,32
 858 772 858 772 788.5 881.5 c 128,-1,33
 719 991 719 991 586 991 c 0,34,35
 453 991 453 991 385 882 c 128,-1,36
 317 773 317 773 317 559 c 0,25,26
EndSplineSet
EndChar
StartChar: Hbar
Encoding: 294 294 294
Width: 1233
Flags: W
Fore
137 1493 m 1,0,-1
 339 1493 l 1,1,-1
 339 1269 l 1,2,-1
 893 1269 l 1,3,-1
 893 1493 l 1,4,-1
 1095 1493 l 1,5,-1
 1095 1269 l 1,6,-1
 1230 1269 l 1,7,-1
 1230 1105 l 1,8,-1
 1095 1105 l 1,9,-1
 1095 0 l 1,10,-1
 893 0 l 1,11,-1
 893 711 l 1,12,-1
 339 711 l 1,13,-1
 339 0 l 1,14,-1
 137 0 l 1,15,-1
 137 1105 l 1,16,-1
 3 1105 l 1,17,-1
 3 1269 l 1,18,-1
 137 1269 l 1,19,-1
 137 1493 l 1,0,-1
339 1105 m 1,20,-1
 339 881 l 1,21,-1
 893 881 l 1,22,-1
 893 1105 l 1,23,-1
 339 1105 l 1,20,-1
EndSplineSet
EndChar
StartChar: hbar
Encoding: 295 295 295
Width: 1233
Flags: W
Fore
1051 694 m 2,0,-1
 1051 0 l 1,1,-1
 866 0 l 1,2,-1
 866 694 l 2,3,4
 866 845 866 845 813 916 c 128,-1,5
 760 987 760 987 647 987 c 0,6,7
 518 987 518 987 448.5 895.5 c 128,-1,8
 379 804 379 804 379 633 c 2,9,-1
 379 0 l 1,10,-1
 195 0 l 1,11,-1
 195 1270 l 1,12,-1
 70 1270 l 1,13,-1
 70 1434 l 1,14,-1
 195 1434 l 1,15,-1
 195 1556 l 1,16,-1
 379 1556 l 1,17,-1
 379 1434 l 1,18,-1
 732 1434 l 1,19,-1
 732 1270 l 1,20,-1
 379 1270 l 1,21,-1
 379 952 l 1,22,23
 428 1048 428 1048 512 1097.5 c 128,-1,24
 596 1147 596 1147 711 1147 c 0,25,26
 882 1147 882 1147 966.5 1034.5 c 128,-1,27
 1051 922 1051 922 1051 694 c 2,0,-1
EndSplineSet
EndChar
StartChar: dotlessi
Encoding: 305 305 305
Width: 1233
Flags: W
Fore
256 1120 m 1,0,-1
 727 1120 l 1,1,-1
 727 143 l 1,2,-1
 1092 143 l 1,3,-1
 1092 0 l 1,4,-1
 178 0 l 1,5,-1
 178 143 l 1,6,-1
 543 143 l 1,7,-1
 543 977 l 1,8,-1
 256 977 l 1,9,-1
 256 1120 l 1,0,-1
EndSplineSet
EndChar
StartChar: IJ
Encoding: 306 306 306
Width: 1233
Flags: W
Fore
651.6 64 m 1,0,-1
 651.6 300 l 1,1,2
 713.48 219 713.48 219 779.44 178.5 c 128,-1,3
 845.4 138 845.4 138 916.12 138 c 0,4,5
 1013.36 138 1013.36 138 1051.78 212.5 c 0,6,7
 1090.2 287 1090.2 287 1090.2 490 c 2,8,-1
 1090.2 1326 l 1,9,-1
 831.12 1326 l 1,10,-1
 831.12 1496 l 1,11,-1
 1227.56 1496 l 1,12,-1
 1227.56 490 l 2,13,14
 1227.56 208 1227.56 208 1155.82 91 c 0,15,16
 1084.08 -26 1084.08 -26 916.12 -26 c 0,17,18
 850.84 -26 850.84 -26 786.24 -4 c 0,19,20
 721.64 18 721.64 18 651.6 64 c 1,0,-1
-1 1493 m 1,21,-1
 604.17 1493 l 1,22,-1
 604.17 1323 l 1,23,-1
 375.68 1323 l 1,24,-1
 375.68 170 l 1,25,-1
 604.17 170 l 1,26,-1
 604.17 0 l 1,27,-1
 -1 0 l 1,28,-1
 -1 170 l 1,29,-1
 227.49 170 l 1,30,-1
 227.49 1323 l 1,31,-1
 -1 1323 l 1,32,-1
 -1 1493 l 1,21,-1
EndSplineSet
LCarets: 0 65535 '    ' 1 0 
EndChar
StartChar: ij
Encoding: 307 307 307
Width: 1233
Flags: W
Fore
978 -31 m 2,0,-1
 978 966 l 1,1,-1
 661 966 l 1,2,-1
 661 1109 l 1,3,-1
 1162 1109 l 1,4,-1
 1162 -31 l 2,5,6
 1162 -226 1162 -226 1072.5 -331.5 c 128,-1,7
 983 -437 983 -437 818 -437 c 2,8,-1
 564 -437 l 1,9,-1
 564 -281 l 1,10,-1
 798 -281 l 2,11,12
 888 -281 888 -281 933 -218.5 c 128,-1,13
 978 -156 978 -156 978 -31 c 2,0,-1
978 1545 m 1,14,-1
 1162 1545 l 1,15,-1
 1162 1312 l 1,16,-1
 978 1312 l 1,17,-1
 978 1545 l 1,14,-1
59.0801 1120 m 1,18,-1
 445.3 1120 l 1,19,-1
 445.3 143 l 1,20,-1
 744.6 143 l 1,21,-1
 744.6 0 l 1,22,-1
 -4.87988 0 l 1,23,-1
 -4.87988 143 l 1,24,-1
 294.42 143 l 1,25,-1
 294.42 977 l 1,26,-1
 59.0801 977 l 1,27,-1
 59.0801 1120 l 1,18,-1
294.42 1556 m 1,28,-1
 445.3 1556 l 1,29,-1
 445.3 1323 l 1,30,-1
 294.42 1323 l 1,31,-1
 294.42 1556 l 1,28,-1
EndSplineSet
LCarets: 0 65535 '    ' 1 0 
EndChar
StartChar: kgreenlandic
Encoding: 312 312 312
Width: 1233
Flags: W
Fore
236 1120 m 1,0,-1
 426 1120 l 1,1,-1
 426 655 l 1,2,-1
 909 1120 l 1,3,-1
 1133 1120 l 1,4,-1
 692 698 l 1,5,-1
 1202 0 l 1,6,-1
 977 0 l 1,7,-1
 563 578 l 1,8,-1
 426 449 l 1,9,-1
 426 0 l 1,10,-1
 236 0 l 1,11,-1
 236 1120 l 1,0,-1
EndSplineSet
EndChar
StartChar: Lslash
Encoding: 321 321 321
Width: 1233
Flags: W
Fore
215 1493 m 1,0,-1
 418 1493 l 1,1,-1
 418 877 l 1,2,-1
 733 1096 l 1,3,-1
 811 985 l 1,4,-1
 418 711 l 1,5,-1
 418 170 l 1,6,-1
 1139 170 l 1,7,-1
 1139 0 l 1,8,-1
 215 0 l 1,9,-1
 215 571 l 1,10,-1
 70 465 l 1,11,-1
 -10 575 l 1,12,-1
 215 733 l 1,13,-1
 215 1493 l 1,0,-1
EndSplineSet
EndChar
StartChar: lslash
Encoding: 322 322 322
Width: 1233
Flags: W
Fore
639 406 m 2,0,1
 639 282 639 282 684.5 219 c 128,-1,2
 730 156 730 156 819 156 c 2,3,-1
 1034 156 l 1,4,-1
 1034 0 l 1,5,-1
 801 0 l 2,6,7
 636 0 636 0 545.5 106 c 128,-1,8
 455 212 455 212 455 406 c 2,9,-1
 455 698 l 1,10,-1
 156 489 l 1,11,-1
 76 600 l 1,12,-1
 455 864 l 1,13,-1
 455 1423 l 1,14,-1
 160 1423 l 1,15,-1
 160 1567 l 1,16,-1
 639 1567 l 1,17,-1
 639 989 l 1,18,-1
 954 1208 l 1,19,-1
 1034 1098 l 1,20,-1
 639 823 l 1,21,-1
 639 406 l 2,0,1
EndSplineSet
EndChar
StartChar: Eng
Encoding: 330 330 330
Width: 1233
Flags: W
Fore
149 1493 m 1,0,-1
 334 1493 l 1,1,-1
 899 364 l 1,2,-1
 899 1493 l 1,3,-1
 1084 1493 l 1,4,-1
 1084 -20 l 2,5,6
 1084 -215 1084 -215 995 -320 c 0,7,8
 905 -426 905 -426 740 -426 c 2,9,-1
 535 -426 l 1,10,-1
 535 -270 l 1,11,-1
 720 -270 l 2,12,13
 810 -270 810 -270 855 -208 c 0,14,15
 899 -146 899 -146 899 0 c 1,16,-1
 334 1129 l 1,17,-1
 334 0 l 1,18,-1
 149 0 l 1,19,-1
 149 1493 l 1,0,-1
EndSplineSet
EndChar
StartChar: eng
Encoding: 331 331 331
Width: 1233
Flags: W
Fore
1051 694 m 2,0,-1
 1051 -20 l 2,1,2
 1051 -215 1051 -215 962 -320 c 0,3,4
 872 -426 872 -426 707 -426 c 2,5,-1
 502 -426 l 1,6,-1
 502 -270 l 1,7,-1
 687 -270 l 2,8,9
 777 -270 777 -270 822 -208 c 0,10,11
 866 -146 866 -146 866 -20 c 2,12,-1
 866 694 l 2,13,14
 866 845 866 845 813 916 c 128,-1,15
 760 987 760 987 647 987 c 0,16,17
 518 987 518 987 448 896 c 0,18,19
 379 804 379 804 379 633 c 2,20,-1
 379 0 l 1,21,-1
 195 0 l 1,22,-1
 195 1120 l 1,23,-1
 379 1120 l 1,24,-1
 379 952 l 1,25,26
 428 1048 428 1048 512 1098 c 0,27,28
 596 1147 596 1147 711 1147 c 0,29,30
 882 1147 882 1147 966 1034 c 0,31,32
 1051 922 1051 922 1051 694 c 2,0,-1
EndSplineSet
EndChar
StartChar: OE
Encoding: 338 338 338
Width: 1233
Flags: W
Fore
1217 170 m 1,0,-1
 1217 0 l 1,1,-1
 612 0 l 2,2,3
 317 0 317 0 194.5 166.5 c 128,-1,4
 72 333 72 333 72 745 c 0,5,6
 72 1162 72 1162 194 1327.5 c 128,-1,7
 316 1493 316 1493 612 1493 c 2,8,-1
 1206 1493 l 1,9,-1
 1206 1323 l 1,10,-1
 848 1323 l 1,11,-1
 848 881 l 1,12,-1
 1176 881 l 1,13,-1
 1176 711 l 1,14,-1
 848 711 l 1,15,-1
 848 170 l 1,16,-1
 1217 170 l 1,0,-1
590 1323 m 2,17,18
 413 1323 413 1323 343.5 1208 c 128,-1,19
 274 1093 274 1093 274 745 c 0,20,21
 274 399 274 399 343.5 284.5 c 128,-1,22
 413 170 413 170 590 170 c 2,23,-1
 651 170 l 1,24,-1
 651 1323 l 1,25,-1
 590 1323 l 2,17,18
EndSplineSet
EndChar
StartChar: oe
Encoding: 339 339 339
Width: 1233
Flags: W
Fore
1047 657 m 1,0,1
 1047 668 1047 668 1048 687 c 128,-1,2
 1049 706 1049 706 1049 715 c 0,3,4
 1049 860 1049 860 1009 927.5 c 128,-1,5
 969 995 969 995 883 995 c 0,6,7
 796 995 796 995 757.5 926.5 c 128,-1,8
 719 858 719 858 719 700 c 2,9,-1
 719 657 l 1,10,-1
 1047 657 l 1,0,1
373 123 m 0,11,12
 475 123 475 123 516 207 c 128,-1,13
 557 291 557 291 557 530 c 0,14,15
 557 821 557 821 517 908 c 128,-1,16
 477 995 477 995 373 995 c 0,17,18
 270 995 270 995 230 911.5 c 128,-1,19
 190 828 190 828 190 559 c 0,20,21
 190 290 190 290 230 206.5 c 128,-1,22
 270 123 270 123 373 123 c 0,11,12
1210 514 m 1,23,-1
 719 514 l 1,24,-1
 719 430 l 2,25,26
 719 267 719 267 768.5 195 c 128,-1,27
 818 123 818 123 930 123 c 0,28,29
 1010 123 1010 123 1075.5 149.5 c 128,-1,30
 1141 176 1141 176 1188 227 c 1,31,-1
 1188 55 l 1,32,33
 1129 12 1129 12 1066.5 -8.5 c 128,-1,34
 1004 -29 1004 -29 930 -29 c 0,35,36
 832 -29 832 -29 758.5 4.5 c 128,-1,37
 685 38 685 38 637 104 c 1,38,39
 585 36 585 36 521 3.5 c 128,-1,40
 457 -29 457 -29 373 -29 c 0,41,42
 184 -29 184 -29 99 109 c 128,-1,43
 14 247 14 247 14 559 c 0,44,45
 14 871 14 871 99 1009 c 128,-1,46
 184 1147 184 1147 373 1147 c 0,47,48
 462 1147 462 1147 526 1116 c 128,-1,49
 590 1085 590 1085 637 1020 c 1,50,51
 674 1082 674 1082 739 1114.5 c 128,-1,52
 804 1147 804 1147 891 1147 c 0,53,54
 1066 1147 1066 1147 1138 1028.5 c 128,-1,55
 1210 910 1210 910 1210 604 c 2,56,-1
 1210 514 l 1,23,-1
EndSplineSet
EndChar
StartChar: Tbar
Encoding: 358 358 358
Width: 1233
Flags: W
TeX: 0 0 0 0
Fore
47 1493 m 1,0,-1
 1186 1493 l 1,1,-1
 1186 1323 l 1,2,-1
 719 1323 l 1,3,-1
 719 747 l 1,4,-1
 984 747 l 1,5,-1
 984 577 l 1,6,-1
 719 577 l 1,7,-1
 719 0 l 1,8,-1
 516 0 l 1,9,-1
 516 577 l 1,10,-1
 251 577 l 1,11,-1
 251 747 l 1,12,-1
 516 747 l 1,13,-1
 516 1323 l 1,14,-1
 47 1323 l 1,15,-1
 47 1493 l 1,0,-1
EndSplineSet
EndChar
StartChar: tbar
Encoding: 359 359 359
Width: 1233
Flags: W
TeX: 0 0 0 0
Fore
614 1438 m 1,0,-1
 614 1120 l 1,1,-1
 1032 1120 l 1,2,-1
 1032 977 l 1,3,-1
 614 977 l 1,4,-1
 614 744 l 1,5,-1
 843 744 l 1,6,-1
 843 602 l 1,7,-1
 614 602 l 1,8,-1
 614 369 l 2,9,10
 614 245 614 245 661 196 c 128,-1,11
 708 147 708 147 825 147 c 2,12,-1
 1032 147 l 1,13,-1
 1032 0 l 1,14,-1
 807 0 l 2,15,16
 600 0 600 0 515 83 c 128,-1,17
 430 166 430 166 430 369 c 2,18,-1
 430 602 l 1,19,-1
 201 602 l 1,20,-1
 201 744 l 1,21,-1
 430 744 l 1,22,-1
 430 977 l 1,23,-1
 131 977 l 1,24,-1
 131 1120 l 1,25,-1
 430 1120 l 1,26,-1
 430 1438 l 1,27,-1
 614 1438 l 1,0,-1
EndSplineSet
EndChar
StartChar: longs
Encoding: 383 383 383
Width: 1233
Flags: W
Fore
678.005 1219 m 9,0,-1
 678 0 l 1,1,-1
 494 0 l 1,2,-1
 494 977 l 1,3,-1
 195 977 l 1,4,-1
 195 1120 l 1,5,-1
 494 1120 l 1,6,-1
 494 1198 l 2,7,8
 494 1382 494 1382 578.5 1469 c 128,-1,9
 663 1556 663 1556 842 1556 c 2,10,-1
 1063 1556 l 1,11,-1
 1063 1403 l 1,12,-1
 854 1403 l 2,13,14
 755 1403 755 1403 716.5 1362.5 c 128,-1,15
 678 1322 678 1322 678.005 1219 c 9,0,-1
EndSplineSet
EndChar
StartChar: uni0181
Encoding: 385 385 385
Width: 1233
Flags: W
TeX: 117 0 0 0
Fore
539.5 1327 m 1,0,-1
 539.5 877 l 1,1,-1
 655.5 877 l 2,2,3
 803.5 877 803.5 877 876 932.5 c 128,-1,5
 948.5 988.004 948.5 988.004 948.5 1102 c 0,6,7
 948.5 1215 948.5 1215 876 1271 c 128,-1,9
 803.488 1327 803.488 1327 655.5 1327 c 2,10,-1
 539.5 1327 l 1,0,-1
670 1493 m 2,11,12
 902 1493 902 1493 1026.5 1397 c 0,13,14
 1151.5 1301 1151.5 1301 1151.5 1124 c 0,15,16
 1151.5 986.989 1151.5 986.989 1087.5 906 c 128,-1,18
 1023.49 824.999 1023.49 824.999 899.5 805 c 1,19,20
 1048.5 772.998 1048.5 772.998 1130.75 671.499 c 128,-1,22
 1213 570 1213 570 1213 418 c 0,23,24
 1213 217.993 1213 217.993 1077.24 108.996 c 128,-1,26
 941.49 0 941.49 0 690.5 0 c 2,27,-1
 337.5 0 l 1,28,-1
 337.5 1327 l 1,29,30
 283.994 1327 283.994 1327 224 1280 c 0,31,32
 175.5 1242 175.5 1242 175.5 1128 c 2,33,-1
 175.5 1079 l 1,34,-1
 20 1079 l 1,35,-1
 20 1149 l 2,36,37
 20 1330 20 1330 115.5 1411.5 c 0,38,39
 212 1493 212 1493 338 1493 c 2,40,-1
 670 1493 l 2,11,12
539.5 713 m 1,41,-1
 539.5 166 l 1,42,-1
 680.5 166 l 2,43,44
 843.505 166 843.505 166 922 233.5 c 128,-1,46
 1000.5 301.009 1000.5 301.009 1000.5 440 c 0,47,48
 1000.5 579.992 1000.5 579.992 922 646.5 c 128,-1,50
 843.504 713 843.504 713 680.5 713 c 2,51,-1
 539.5 713 l 1,41,-1
EndSplineSet
EndChar
StartChar: uni0183
Encoding: 387 387 387
Width: 1233
Flags: W
TeX: 117 0 0 0
Fore
377 977 m 1,0,1
 421 1059 421 1059 498.5 1103 c 0,2,3
 576 1147 576 1147 678 1147 c 0,4,5
 880 1147 880 1147 996 991.5 c 0,6,7
 1112 836 1112 836 1112 563 c 0,8,9
 1112 286 1112 286 995.5 128.5 c 0,10,11
 879 -29 879 -29 676 -29 c 0,12,13
 576 -29 576 -29 499.5 14.5 c 0,14,15
 423 58 423 58 377 141 c 1,16,-1
 377 0 l 1,17,-1
 193 0 l 1,18,-1
 193 1556 l 1,19,-1
 945 1556 l 1,20,-1
 945 1372 l 1,21,-1
 377 1372 l 1,22,-1
 377 977 l 1,0,1
918 559 m 0,23,24
 918 773 918 773 850 882 c 0,25,26
 782 991 782 991 649 991 c 0,27,28
 515 991 515 991 446 881.5 c 0,29,30
 377 772 377 772 377 559 c 0,31,32
 377 347 377 347 446 237 c 0,33,34
 515 127 515 127 649 127 c 0,35,36
 782 127 782 127 850 236 c 0,37,38
 918 345 918 345 918 559 c 0,23,24
EndSplineSet
EndChar
StartChar: uni0184
Encoding: 388 388 388
Width: 1233
Flags: W
TeX: 117 0 0 0
Fore
417 713 m 1,0,-1
 417 166 l 1,1,-1
 656 166 l 2,2,3
 832 166 832 166 907 228 c 0,4,5
 982 289 982 289 982 430 c 0,6,7
 982 576 982 576 903 644 c 0,8,9
 824 713 824 713 656 713 c 2,10,-1
 417 713 l 1,0,-1
417 877 m 1,1,-1
 652 877 l 1,2,3
 1031 862 1031 862 1132 671 c 0,4,5
 1185 571 1185 571 1185 410 c 0,6,7
 1185 207 1185 207 1052 104 c 0,8,9
 919 0 919 0 656 0 c 2,10,-1
 214 0 l 1,11,-1
 214 948 l 1,0,0
 48 1176 l 1,12,-1
 417 1493 l 1,13,-1
 417 877 l 1,1,-1
EndSplineSet
EndChar
StartChar: uni0185
Encoding: 389 389 389
Width: 1233
Flags: W
TeX: 117 0 0 0
Fore
978 559 m 0,0,1
 978 773 978 773 910 882 c 128,-1,2
 842 991 842 991 710 991 c 0,3,4
 576 991 576 991 506 882 c 128,-1,5
 438 772 438 772 438 559 c 0,6,7
 438 347 438 347 506 237 c 128,-1,8
 576 127 576 127 710 127 c 0,9,10
 842 127 842 127 910 236 c 128,-1,11
 978 345 978 345 978 559 c 0,0,1
438 977 m 1,12,13
 482 1059 482 1059 559 1103 c 128,-1,14
 636 1147 636 1147 738 1147 c 0,15,16
 940 1147 940 1147 1056 992 c 128,-1,17
 1172 836 1172 836 1172 563 c 0,18,19
 1172 286 1172 286 1056 128 c 128,-1,20
 940 -29 940 -29 736 -29 c 0,21,22
 636 -29 636 -29 560 14 c 128,-1,23
 484 58 484 58 438 141 c 1,24,-1
 438 0 l 1,25,-1
 254 0 l 1,26,-1
 254 948 l 1,0,0
 60 1176 l 1,27,-1
 438 1556 l 1,28,-1
 438 977 l 1,12,13
EndSplineSet
EndChar
StartChar: uni0186
Encoding: 390 390 390
Width: 1233
Flags: W
TeX: 117 0 0 0
Fore
139 1438 m 1,0,1
 216 1479 216 1479 297 1499.5 c 128,-1,2
 378 1520 378 1520 469 1520 c 0,3,4
 754 1520 754 1520 913.5 1315.5 c 128,-1,5
 1073 1111 1073 1111 1073 745 c 0,6,7
 1073 377 1073 377 914.5 174 c 128,-1,8
 756 -29 756 -29 469 -29 c 0,9,10
 378 -29 378 -29 297 -8.5 c 128,-1,11
 216 12 216 12 139 53 c 1,12,-1
 139 260 l 1,13,14
 212 199 212 199 296.5 167 c 128,-1,15
 381 135 381 135 469 135 c 0,16,17
 666 135 666 135 764 287 c 128,-1,18
 862 439 862 439 862 745 c 0,19,20
 862 1052 862 1052 764 1204 c 128,-1,21
 666 1356 666 1356 469 1356 c 0,22,23
 383 1356 383 1356 298 1324 c 128,-1,24
 213 1292 213 1292 139 1231 c 1,25,-1
 139 1438 l 1,0,1
EndSplineSet
EndChar
StartChar: uni0187
Encoding: 391 391 391
Width: 1233
Flags: W
TeX: 117 0 0 0
Fore
994 53 m 1,0,1
 917 12 917 12 836 -8.5 c 0,2,3
 755 -29 755 -29 664 -29 c 0,4,5
 377 -29 377 -29 218.5 174 c 0,6,7
 60 377 60 377 60 745 c 0,8,9
 60 1043 60 1043 219.5 1247.5 c 0,10,11
 379 1452 379 1452 664 1452 c 0,12,13
 753.514 1452 753.514 1452 833.351 1432.16 c 1,14,15
 855.554 1482.92 855.554 1482.92 898 1533 c 0,16,17
 988 1639 988 1639 1153 1639 c 2,18,-1
 1173 1639 l 1,19,-1
 1173 1483 l 1,20,21
 1089.13 1483 1089.13 1483 1038 1421 c 0,22,23
 994.015 1367.66 994.015 1367.66 994 1233.09 c 0,24,-1
 994 1163 l 1,25,26
 920 1224 920 1224 835 1256 c 0,27,28
 750 1288 750 1288 664 1288 c 0,29,30
 467 1288 467 1288 369 1136 c 0,31,32
 271 984 271 984 271 745 c 0,33,34
 271 439 271 439 369 287 c 0,35,36
 467 135 467 135 664 135 c 0,37,38
 752 135 752 135 836.5 167 c 0,39,40
 921 199 921 199 994 260 c 1,41,-1
 994 53 l 1,0,1
EndSplineSet
EndChar
StartChar: uni0188
Encoding: 392 392 392
Width: 1233
Flags: W
TeX: 117 0 0 0
Fore
960 57 m 1,0,1
 886 14 886 14 807.5 -7.5 c 0,2,3
 729 -29 729 -29 647 -29 c 0,4,5
 387 -29 387 -29 240.5 127 c 0,6,7
 94 283 94 283 94 559 c 0,8,9
 94 835 94 835 240.5 991 c 0,10,11
 387 1147 387 1147 647 1147 c 0,12,13
 717.028 1147 717.028 1147 784.066 1131.3 c 1,14,15
 803.405 1244.51 803.405 1244.51 864 1316 c 0,16,17
 954 1422 954 1422 1119 1422 c 2,18,-1
 1139 1422 l 1,19,-1
 1139 1266 l 1,20,21
 1049 1266 1049 1266 1004 1204 c 0,22,23
 960 1142 960 1142 960 1016 c 2,24,-1
 960 868 l 1,25,26
 887 933 887 933 813.5 962 c 0,27,28
 740 991 740 991 647 991 c 0,29,30
 474 991 474 991 381 879 c 0,31,32
 288 767 288 767 288 559 c 0,33,34
 288 352 288 352 381.5 239.5 c 0,35,36
 475 127 475 127 647 127 c 0,37,38
 743 127 743 127 819 156.5 c 0,39,40
 895 186 895 186 960 248 c 1,41,-1
 960 57 l 1,0,1
EndSplineSet
EndChar
StartChar: uni018A
Encoding: 394 394 394
Width: 1233
Flags: W
TeX: 117 0 0 0
Fore
326 1493 m 2,0,-1
 559 1493 l 2,1,2
 901.001 1493 901.001 1493 1063 1311 c 0,3,4
 1225 1129 1225 1129 1225 745 c 0,5,6
 1225 363 1225 363 1063 181.5 c 0,7,8
 901 0 901 0 559 0 c 2,9,-1
 326 0 l 1,10,-1
 326 1327 l 1,11,12
 272.494 1327 272.494 1327 212.5 1280 c 0,13,14
 164 1242 164 1242 164 1128 c 2,15,-1
 164 1079 l 1,16,-1
 8 1079 l 1,17,-1
 8 1149 l 2,18,19
 8 1330.01 8 1330.01 104 1411.5 c 0,20,21
 200.01 1493 200.01 1493 326 1493 c 2,0,-1
555 166 m 2,22,23
 810.001 166 810.001 166 911 291.5 c 0,24,25
 1012 417 1012 417 1012 745 c 0,26,27
 1012 1076 1012 1076 911.5 1201.5 c 0,28,29
 811.001 1327 811.001 1327 555 1327 c 2,30,-1
 529 1327 l 1,31,-1
 529 166 l 1,32,-1
 555 166 l 2,22,23
EndSplineSet
EndChar
StartChar: uni018B
Encoding: 395 395 395
Width: 1233
Flags: W
TeX: 117 0 0 0
Fore
899 713 m 1,0,-1
 660 713 l 2,10,-1
 492 713 492 713 413 644.5 c 0,8,9
 334 576 334 576 334 430 c 0,6,7
 334 289 334 289 409 227.5 c 0,4,5
 484 166 484 166 660 166 c 2,2,3
 899 166 l 1,1,-1
 899 713 l 1,0,-1
200 1327 m 129,-1,-1
 200 1493 l 1,13,-1
 1102 1493 l 1,12,-1
 1102 0 l 1,11,-1
 660 0 l 2,10,-1
 397 0 397 0 264 103.5 c 0,8,9
 131 206.996 131 206.996 131 410 c 0,6,7
 131 570.76 131 570.76 184 671 c 0,4,5
 285.429 862.441 285.429 862.441 664 877 c 1,2,3
 899 877 l 1,1,-1
 899 1327 l 1,0,-1
 200 1327 l 129,-1,-1
EndSplineSet
EndChar
StartChar: uni018C
Encoding: 396 396 396
Width: 1233
Flags: W
TeX: 117 0 0 0
Fore
351 559 m 0,0,1
 351 345 351 345 419 236 c 0,2,3
 487 127 487 127 620 127 c 0,4,5
 754 127 754 127 823 237 c 0,6,7
 892 347 892 347 892 559 c 0,8,9
 892 772 892 772 823 881.5 c 0,10,11
 754 991 754 991 620 991 c 0,12,13
 487 991 487 991 419 882 c 0,14,15
 351 773 351 773 351 559 c 0,0,1
324 1372 m 1,16,-1
 324 1556 l 1,17,-1
 1076 1556 l 1,18,-1
 1076 0 l 1,19,-1
 892 0 l 1,20,-1
 892 141 l 1,21,22
 846 58 846 58 769.5 14.5 c 0,23,24
 693 -29 693 -29 593 -29 c 0,25,26
 390 -29 390 -29 273.5 128.5 c 0,27,28
 157 286 157 286 157 563 c 0,29,30
 157 836 157 836 273 991.5 c 0,31,32
 389 1147 389 1147 591 1147 c 0,33,34
 693 1147 693 1147 770.5 1103 c 0,35,36
 848 1059 848 1059 892 977 c 1,37,-1
 892 1372 l 1,38,-1
 324 1372 l 1,16,-1
EndSplineSet
EndChar
StartChar: uni018D
Encoding: 397 397 397
Width: 1233
Flags: W
TeX: 117 0 0 0
Fore
616 127 m 0,0,1
 756 127 756 127 828 236 c 128,-1,2
 900 345 900 345 900 559 c 0,3,4
 900 772 900 772 828 881.5 c 128,-1,5
 756 991 756 991 616 991 c 0,6,7
 475 991 475 991 403 881.5 c 128,-1,8
 331 772 331 772 331 559 c 0,9,10
 331 345 331 345 403 236 c 128,-1,11
 475 127 475 127 616 127 c 0,0,1
898 51.4697 m 1,12,13
 916.934 42.0303 916.934 42.0303 956.806 2.5 c 0,14,15
 1018.84 -58.9902 1018.84 -58.9902 1018.84 -151.25 c 0,16,17
 1018.84 -287 1018.84 -287 900.627 -369.125 c 0,18,19
 782 -451 782 -451 585 -451 c 0,19,20
 483 -451 483 -451 433.369 -439.25 c 0,21,-1
 282 -403.25 l 1,22,-1
 282 -229.75 l 1,23,24
 348 -254 348 -254 418.427 -268.75 c 0,25,26
 493.197 -284.027 493.197 -284.027 565.613 -284.027 c 0,0,0
 575.357 -284.027 575.357 -284.027 585.058 -283.75 c 2,27,-1
 616.642 -282.85 l 2,28,29
 690.476 -280.745 690.476 -280.745 750.062 -237.62 c 2,30,-1
 788.779 -209.6 l 1,31,32
 815.72 -186.3 815.72 -186.3 815.72 -140.25 c 0,33,34
 815.72 -107.43 815.72 -107.43 802.612 -88.4004 c 0,35,36
 786.038 -64.3398 786.038 -64.3398 745.083 -42.75 c 0,37,38
 721.164 -30.1396 721.164 -30.1396 616 -29 c 0,39,40
 380.915 -26.4502 380.915 -26.4502 259.5 122 c 0,41,42
 136 273 136 273 136 559 c 0,43,44
 136 846 136 846 259 996.5 c 128,-1,45
 382 1147 382 1147 616 1147 c 0,46,47
 849 1147 849 1147 972 996.5 c 128,-1,48
 1095 846 1095 846 1095 559 c 0,49,50
 1095 272.774 1095 272.774 972 122 c 0,51,52
 941 84 941 84 898 51.4697 c 1,12,13
EndSplineSet
EndChar
StartChar: uni018E
Encoding: 398 398 398
Width: 1233
Flags: W
TeX: 117 0 0 0
Fore
1102 1493 m 1,0,-1
 1102 0 l 1,11,-1
 197 0 l 1,10,-1
 197 170 l 1,9,-1
 900 170 l 1,8,-1
 900 711 l 1,7,-1
 246 711 l 1,6,-1
 246 881 l 1,5,-1
 900 881 l 1,4,-1
 900 1323 l 1,3,-1
 216 1323 l 1,2,-1
 216 1493 l 1,1,-1
 1102 1493 l 1,0,-1
EndSplineSet
EndChar
StartChar: uni018F
Encoding: 399 399 399
Width: 1233
Flags: W
TeX: 117 0 0 0
Fore
117 745 m 2,0,-1
 117 828 l 1,1,-1
 903.841 828 l 1,2,3
 896.154 1092.48 896.154 1092.48 837.5 1215 c 0,4,5
 770 1356 770 1356 616 1356 c 0,6,7
 530 1356 530 1356 445 1324 c 0,8,9
 360 1292 360 1292 286 1231 c 1,10,-1
 286 1438 l 1,11,12
 363 1479 363 1479 444 1499.5 c 0,13,14
 525 1520 525 1520 616 1520 c 0,15,16
 869 1520 869 1520 992.5 1328 c 0,17,18
 1116 1136 1116 1136 1116 745 c 0,19,20
 1116 355 1116 355 992.5 163 c 0,21,22
 869 -29 869 -29 616 -29 c 0,23,24
 363 -29 363 -29 240 162 c 0,25,26
 117 353 117 353 117 745 c 2,0,-1
903.252 644 m 1,27,-1
 329.758 644 l 1,28,29
 338.894 394.244 338.894 394.244 395.5 276 c 0,30,31
 463 135 463 135 616 135 c 0,32,33
 770 135 770 135 837.5 275.5 c 0,34,35
 894.138 393.392 894.138 393.392 903.252 644 c 1,27,-1
EndSplineSet
EndChar
StartChar: uni0190
Encoding: 400 400 400
Width: 1233
Flags: W
TeX: 117 0 0 0
Fore
440 799 m 1,0,1
 309 833 309 833 240.5 915 c 128,-1,40
 172 997 172 997 172 1120 c 0,38,39
 172 1301 172 1301 302.5 1410.5 c 128,-1,37
 433 1520 433 1520 651 1520 c 0,35,36
 724 1520 724 1520 818.5 1504 c 128,-1,34
 913 1488 913 1488 1034 1456 c 1,32,33
 1034 1270 l 1,31,-1
 930 1310 930 1310 835 1330 c 128,-1,30
 740 1350 740 1350 651 1350 c 0,28,29
 517 1350 517 1350 444.5 1288.5 c 128,-1,27
 372 1227 372 1227 372 1112 c 0,25,26
 372 1003 372 1003 450 942 c 128,-1,24
 528 881 528 881 667 881 c 2,22,23
 821 881 l 1,21,-1
 821 715 l 1,20,-1
 667 715 l 2,19,-1
 515 715 515 715 426 638.5 c 128,-1,18
 337 562 337 562 337 432 c 0,16,17
 337 291 337 291 426 216 c 128,-1,15
 515 141 515 141 681 141 c 0,13,14
 779 141 779 141 878 167 c 128,-1,12
 977 193 977 193 1079 246 c 1,10,11
 1079 45 l 1,9,-1
 976 9 976 9 869 -10 c 128,-1,8
 762 -29 762 -29 659 -29 c 0,6,7
 414 -29 414 -29 275.5 88.5 c 128,-1,5
 137 206 137 206 137 412 c 0,3,4
 137 561 137 561 215 660.5 c 128,-1,2
 293 760 293 760 440 799 c 1,0,1
EndSplineSet
EndChar
StartChar: uni0191
Encoding: 401 401 401
Width: 1233
Flags: W
TeX: 117 0 0 0
Fore
380 1493 m 1,0,-1
 1170 1493 l 1,1,-1
 1170 1323 l 1,2,-1
 583 1323 l 1,3,-1
 583 883 l 1,4,-1
 1107 883 l 1,5,-1
 1107 713 l 1,6,-1
 583 713 l 1,7,-1
 583 -20 l 2,8,9
 583 -215 583 -215 494 -320 c 0,10,11
 404 -426 404 -426 239 -426 c 2,12,-1
 63 -426 l 1,13,-1
 63 -270 l 1,14,-1
 201 -270 l 2,15,16
 291 -270 291 -270 336 -208 c 0,17,18
 380 -146 380 -146 380 -20 c 2,19,-1
 380 1493 l 1,0,-1
EndSplineSet
EndChar
StartChar: florin
Encoding: 402 402 402
Width: 1233
Flags: W
Fore
1063 1556 m 1,0,-1
 1063 1403 l 1,1,-1
 854 1403 l 1,2,-1
 852.237 1403 l 2,3,4
 754.651 1402.64 754.651 1402.64 716 1362 c 0,5,6
 678 1322 678 1322 678 1219 c 2,7,-1
 678 1120 l 1,8,-1
 1063 1120 l 1,9,-1
 1063 977 l 1,10,-1
 678 977 l 1,11,-1
 678 -20 l 2,12,13
 678 -234 678 -234 597 -330 c 0,14,15
 515 -426 515 -426 334 -426 c 2,16,-1
 264 -426 l 1,17,-1
 264 -270 l 1,18,-1
 313 -270 l 2,19,20
 418 -270 418 -270 456 -222 c 0,21,22
 494 -173 494 -173 494 -20 c 2,23,-1
 491.553 977 l 1,24,-1
 195 977 l 1,25,-1
 195 1120 l 1,26,-1
 491.195 1120 l 1,27,-1
 491 1198 l 2,28,29
 490.55 1377.87 490.55 1377.87 578 1470 c 0,30,31
 614.946 1508.92 614.946 1508.92 675.018 1530.24 c 0,32,33
 744.59 1556 744.59 1556 842 1556 c 2,34,-1
 850.692 1556 l 1,35,-1
 853.929 1556 l 1,36,-1
 1063 1556 l 1,0,-1
EndSplineSet
EndChar
StartChar: uni0193
Encoding: 403 403 403
Width: 1233
Flags: W
TeX: 117 0 0 0
Fore
1053.5 123 m 1,0,1
 972.5 48 972.5 48 871 9.5 c 128,-1,3
 769.5 -29 769.5 -29 651.5 -29 c 0,4,5
 367.5 -29 367.5 -29 209.75 174.5 c 128,-1,7
 52 378 52 378 52 745 c 0,8,9
 52 1111 52 1111 211.75 1315.5 c 128,-1,11
 371.5 1520 371.5 1520 656.5 1520 c 0,12,13
 750.5 1520 750.5 1520 836.5 1493.5 c 0,14,15
 853.465 1488.27 853.465 1488.27 870.196 1481.98 c 1,16,17
 885.066 1507.71 885.066 1507.71 906.5 1533 c 0,18,19
 996.5 1639 996.5 1639 1161.5 1639 c 2,20,-1
 1181 1639 l 1,21,-1
 1181 1483 l 1,22,23
 1097.13 1483 1097.13 1483 1046.5 1421 c 0,24,25
 1002.51 1366.84 1002.51 1366.84 1002.5 1233.09 c 0,26,-1
 1002.5 1206 l 1,27,28
 921.5 1283 921.5 1283 836.5 1319.5 c 128,-1,30
 751.5 1356 751.5 1356 656.5 1356 c 0,31,32
 459.5 1356 459.5 1356 361 1203.5 c 128,-1,34
 262.5 1051 262.5 1051 262.5 745 c 0,35,36
 262.5 434 262.5 434 358 284.5 c 128,-1,38
 453.5 135 453.5 135 651.5 135 c 0,39,40
 718.5 135 718.5 135 769 150.5 c 128,-1,42
 819.5 166 819.5 166 860.5 199 c 1,43,-1
 860.5 600 l 1,44,-1
 643.5 600 l 1,45,-1
 643.5 766 l 1,46,-1
 1053.5 766 l 1,47,-1
 1053.5 123 l 1,0,1
EndSplineSet
EndChar
StartChar: uni0194
Encoding: 404 404 404
Width: 1233
Flags: W
TeX: 0 0 0 0
Fore
730.5 650 m 1,5,-1
 1054 201.04 1054 201.04 1054 -194 c 8,0,0
 1054 -430 1054 -430 638 -430 c 8,0,0
 198 -430 198 -430 198 -194 c 16,0,0
 198 173.43 198 173.43 492.5 657 c 1,0,0
 28 1353 l 1,0,-1
 244 1353 l 1,1,-1
 615.5 798 l 1,2,-1
 988 1353 l 1,3,-1
 1206 1353 l 1,4,-1
 730.5 650 l 1,5,-1
600.5 495 m 1,0,0
 402 194.1 402 194.1 402 -130 c 8,0,0
 402 -268 402 -268 618 -268 c 16,0,0
 822 -268 822 -268 822 -130 c 16,0,0
 822 194.575 822 194.575 600.5 495 c 1,0,0
EndSplineSet
EndChar
StartChar: uni0195
Encoding: 405 405 405
Width: 1233
Flags: W
TeX: 117 0 0 0
Fore
754.875 694 m 2,0,-1
 754.875 406 l 1,1,-1
 753.975 406 l 1,2,3
 753.975 253 753.975 253 788.175 204 c 0,4,5
 825.877 151.635 825.877 151.635 880.875 156 c 0,6,7
 900.468 157.555 900.468 157.555 953.775 231 c 0,8,9
 1001.47 296.719 1001.47 296.719 1001.47 453 c 2,10,-1
 1001.47 864 l 1,11,-1
 1167.97 864 l 1,12,-1
 1167.97 453 l 2,13,14
 1167.97 225.007 1167.97 225.007 1091.92 112.5 c 0,15,16
 1015.88 0 1015.88 0 861.975 0 c 0,17,18
 735.075 0 735.075 0 661.275 96 c 0,19,20
 588.375 192 588.375 192 588.375 406 c 2,21,-1
 588.375 694 l 2,22,23
 588.375 844.999 588.375 844.999 540.675 916 c 0,24,25
 492.975 987 492.975 987 427.275 987 c 0,26,27
 355.725 987 355.725 987 293.175 895.5 c 0,28,29
 230.625 804 230.625 804 230.625 633 c 2,30,-1
 230.625 0 l 1,31,-1
 65.0254 0 l 1,32,-1
 65.0254 1556 l 1,33,-1
 230.625 1556 l 1,34,-1
 230.625 952 l 1,35,36
 307.866 1086.49 307.866 1086.49 324.675 1097.5 c 0,37,38
 400.275 1147 400.275 1147 484.875 1147 c 0,39,40
 602.774 1147 602.774 1147 678.825 1034.5 c 0,41,42
 754.875 922.002 754.875 922.002 754.875 694 c 2,0,-1
EndSplineSet
EndChar
StartChar: uni0196
Encoding: 406 406 406
Width: 1233
Flags: W
TeX: 117 0 0 0
Fore
514 1323 m 1,0,-1
 201 1323 l 1,1,-1
 201 1493 l 1,2,-1
 1030 1493 l 1,3,-1
 1030 1323 l 1,4,-1
 717 1323 l 1,5,-1
 717 421 l 2,6,7
 717 293.637 717 293.637 761 233 c 0,8,9
 806 171 806 171 896 171 c 2,10,-1
 1081 171 l 1,11,-1
 1082 0 l 1,12,-1
 865 0 l 2,13,14
 695.451 0 695.451 0 603 106 c 0,15,16
 514 208.052 514 208.052 514 406 c 2,17,-1
 514 1323 l 1,0,-1
EndSplineSet
EndChar
StartChar: uni0197
Encoding: 407 407 407
Width: 1233
Flags: W
TeX: 117 0 0 0
Fore
201 1493 m 1,0,-1
 1030 1493 l 1,1,-1
 1030 1323 l 1,2,-1
 717 1323 l 1,3,-1
 717 747 l 1,4,-1
 719 747 l 1,5,-1
 984 747 l 1,6,-1
 984 577 l 1,7,-1
 719 577 l 1,8,-1
 717 577 l 1,9,-1
 717 170 l 1,10,-1
 1030 170 l 1,11,-1
 1030 0 l 1,12,-1
 201 0 l 1,13,-1
 201 170 l 1,14,-1
 514 170 l 1,15,-1
 514 577 l 1,16,-1
 251 577 l 1,17,-1
 251 747 l 1,18,-1
 514 747 l 1,19,-1
 514 1323 l 1,20,-1
 201 1323 l 1,21,-1
 201 1493 l 1,0,-1
EndSplineSet
EndChar
StartChar: uni0198
Encoding: 408 408 408
Width: 1233
Flags: W
TeX: 117 0 0 0
Fore
646.556 1180 m 2,0,-1
 808.015 1349.9 808.015 1349.9 913.113 1362.25 c 0,20,21
 933.782 1364.68 933.782 1364.68 953.604 1364.68 c 0,0,0
 1080.01 1364.68 1080.01 1364.68 1171.95 1266 c 2,18,19
 1219 1215 l 1,17,-1
 1113 1101 l 1,16,-1
 1080.26 1138.22 l 2,15,-1
 1035.46 1189.13 1035.46 1189.13 975.313 1189.13 c 0,0,0
 957.906 1189.13 957.906 1189.13 939.215 1184.87 c 0,13,14
 873.161 1169.79 873.161 1169.79 763.823 1055 c 2,11,12
 600 883 l 1,10,-1
 1198 0 l 1,9,-1
 954 0 l 1,8,-1
 467 748 l 1,7,-1
 313 584 l 1,6,-1
 313 0 l 1,5,-1
 110 0 l 1,4,-1
 110 1493 l 1,3,-1
 313 1493 l 1,2,-1
 313 829 l 1,1,-1
 646.556 1180 l 2,0,-1
EndSplineSet
EndChar
StartChar: uni0199
Encoding: 409 409 409
Width: 1233
Flags: W
TeX: 117 0 0 0
Fore
236 1002 m 1,0,-1
 236 1150 l 2,1,2
 236 1345 236 1345 325 1450 c 0,3,4
 415 1556 415 1556 580 1556 c 2,5,-1
 785 1556 l 1,6,-1
 785 1400 l 1,7,-1
 600 1400 l 2,8,9
 510 1400 510 1400 465 1338 c 0,10,11
 421 1276 421 1276 421 1150 c 1,12,-1
 426 1150 l 1,13,-1
 426 655 l 1,14,-1
 909 1120 l 1,15,-1
 1133 1120 l 1,16,-1
 692 698 l 1,17,-1
 1202 0 l 1,18,-1
 977 0 l 1,19,-1
 563 578 l 1,20,-1
 426 449 l 1,21,-1
 426 0 l 1,22,-1
 236 0 l 1,23,-1
 236 1002 l 1,0,-1
EndSplineSet
EndChar
StartChar: uni019A
Encoding: 410 410 410
Width: 1233
Flags: W
TeX: 117 0 0 0
Fore
639 406 m 2,0,1
 639 282 639 282 684.5 219 c 0,2,3
 730 156 730 156 819 156 c 2,4,-1
 1034 156 l 1,5,-1
 1034 0 l 1,6,-1
 801 0 l 2,7,8
 636 0 636 0 545.5 106 c 0,9,10
 455 212 455 212 455 406 c 2,11,-1
 455 602 l 1,12,-1
 227 602 l 1,13,-1
 227 744 l 1,14,-1
 455 744 l 1,15,-1
 455 1423 l 1,16,-1
 160 1423 l 1,17,-1
 160 1567 l 1,18,-1
 639 1567 l 1,19,-1
 639 744 l 1,20,-1
 648 744 l 1,21,-1
 869 744 l 1,22,-1
 869 602 l 1,23,-1
 648 602 l 1,24,-1
 639 602 l 1,25,-1
 639 406 l 2,0,1
EndSplineSet
EndChar
StartChar: uni019B
Encoding: 411 411 411
Width: 1233
Flags: W
TeX: 117 0 0 0
Fore
578.858 1213.1 m 1,0,-1
 927 1455 l 1,1,-1
 1007 1345 l 1,2,-1
 636.45 1087.02 l 1,3,-1
 1133 0 l 1,4,-1
 942 0 l 1,5,-1
 620.641 703.503 l 1,6,-1
 291 0 l 1,7,-1
 100 0 l 1,8,-1
 524.827 913.255 l 1,9,-1
 491.34 986.562 l 1,10,-1
 129 736 l 1,11,-1
 49 847 l 1,12,-1
 433.679 1112.79 l 1,13,-1
 260 1493 l 1,14,-1
 451 1493 l 1,15,-1
 578.858 1213.1 l 1,0,-1
EndSplineSet
EndChar
StartChar: uni019C
Encoding: 412 412 412
Width: 1233
Flags: W
TeX: 117 0 0 0
Fore
568 114 m 1,0,1
 534 42 534 42 481.5 7.5 c 0,2,3
 429 -27 429 -27 355 -27 c 0,4,5
 220 -27 220 -27 164.5 77.5 c 0,6,7
 109 182 109 182 109 471 c 2,8,-1
 109 1493 l 1,9,-1
 277 1493 l 1,10,-1
 277 479 l 2,11,12
 277 242 277 242 303.5 184.5 c 0,13,14
 330 127 330 127 400 127 c 0,15,16
 480 127 480 127 509.5 188.5 c 0,17,18
 539 250 539 250 539 479 c 2,19,-1
 539 1493 l 1,20,-1
 707 1493 l 1,21,-1
 707 479 l 2,22,23
 707 239 707 239 735.5 183 c 0,24,25
 764 127 764 127 838 127 c 0,26,27
 911 127 911 127 939.5 188.5 c 0,28,29
 968 250 968 250 968 479 c 2,30,-1
 968 1493 l 1,31,-1
 1135 1493 l 1,32,-1
 1135 0 l 1,33,-1
 968 0 l 1,34,-1
 968 96 l 1,35,36
 935 36 935 36 885.5 4.5 c 0,37,38
 836 -27 836 -27 773 -27 c 0,39,40
 697 -27 697 -27 646.5 8 c 0,41,42
 596 43 596 43 568 114 c 1,0,1
EndSplineSet
EndChar
StartChar: uni019D
Encoding: 413 413 413
Width: 1233
Flags: W
TeX: 117 0 0 0
Fore
190 1493 m 1,0,-1
 420.4 1493 l 1,1,-1
 874 264 l 1,2,-1
 874 1493 l 1,3,-1
 1049 1493 l 1,4,-1
 1049 0 l 1,5,-1
 819.101 0 l 1,6,-1
 365.5 1229 l 1,7,-1
 365.5 -20 l 2,8,9
 365.5 -215 365.5 -215 285.4 -320 c 0,10,11
 204.4 -426 204.4 -426 55.9004 -426 c 2,12,-1
 29 -426 l 1,13,-1
 29 -270 l 1,14,15
 110 -270 110 -270 150.4 -208 c 0,16,17
 190 -147.228 190 -147.228 190 -20 c 2,18,-1
 190 1493 l 1,0,-1
EndSplineSet
EndChar
StartChar: uni019E
Encoding: 414 414 414
Width: 1233
Flags: W
TeX: 117 0 0 0
Fore
1051 694 m 2,0,-1
 1051 -430 l 1,1,-1
 866 -430 l 1,2,-1
 866 694 l 2,3,4
 866 845 866 845 813 916 c 128,-1,5
 760 987 760 987 647 987 c 0,6,7
 518 987 518 987 448.5 895.5 c 128,-1,8
 379 804 379 804 379 633 c 2,9,-1
 379 0 l 1,10,-1
 195 0 l 1,11,-1
 195 1120 l 1,12,-1
 379 1120 l 1,13,-1
 379 952 l 1,14,15
 428 1048 428 1048 512 1097.5 c 128,-1,16
 596 1147 596 1147 711 1147 c 0,17,18
 882 1147 882 1147 966.5 1034.5 c 128,-1,19
 1051 922 1051 922 1051 694 c 2,0,-1
EndSplineSet
EndChar
StartChar: uni019F
Encoding: 415 415 415
Width: 1233
Flags: W
TeX: 117 0 0 0
Fore
1116 745 m 0,0,1
 1116 355 1116 355 992.5 163 c 0,2,3
 869 -29 869 -29 616 -29 c 0,4,5
 363 -29 363 -29 240 162 c 0,6,7
 117 353 117 353 117 745 c 0,8,9
 117 1136 117 1136 240.5 1328 c 0,10,11
 364 1520 364 1520 616 1520 c 0,12,13
 869 1520 869 1520 992.5 1328 c 0,14,15
 1116 1136 1116 1136 1116 745 c 0,0,1
903.841 828 m 1,16,17
 896.154 1092.48 896.154 1092.48 837.5 1215 c 0,18,19
 770 1356 770 1356 616 1356 c 0,20,21
 463 1356 463 1356 395.5 1215 c 0,22,23
 336.846 1092.48 336.846 1092.48 329.159 828 c 1,24,-1
 903.841 828 l 1,16,17
329.758 644 m 1,25,26
 338.894 394.244 338.894 394.244 395.5 276 c 0,27,28
 463 135 463 135 616 135 c 0,29,30
 770 135 770 135 837.5 275.5 c 0,31,32
 894.138 393.392 894.138 393.392 903.252 644 c 1,33,-1
 329.758 644 l 1,25,26
EndSplineSet
EndChar
StartChar: uni01A2
Encoding: 418 418 418
Width: 1233
Flags: W
TeX: 117 0 0 0
Fore
45 745 m 0,0,1
 45 1416.74 45 1416.74 378.533 1505.77 c 0,2,3
 431.842 1520 431.842 1520 494 1520 c 0,4,5
 700.337 1520 700.337 1520 810.844 1362.34 c 1,6,-1
 957.826 1493 l 1,7,-1
 1188 1493 l 1,8,-1
 1188 0 l 1,9,-1
 1012.72 0 l 1,10,-1
 1012.72 1229 l 1,11,-1
 832.725 1068.98 l 1,12,-1
 832.725 163 l 1,13,14
 721.699 -29 721.699 -29 494 -29 c 0,15,16
 266.299 -29 266.299 -29 155.65 162 c 128,-1,17
 45.0002 353 45.0002 353 45 745 c 0,0,1
693.225 1215 m 1,18,19
 632.475 1356 632.475 1356 493.875 1356 c 0,20,21
 356.174 1356 356.174 1356 295.424 1215 c 128,-1,22
 234.674 1074 234.674 1074 234.674 745 c 0,23,24
 234.674 417 234.674 417 295.424 276 c 128,-1,25
 356.174 135 356.174 135 493.875 135 c 0,26,27
 632.475 135 632.475 135 693.225 275.5 c 1,28,-1
 693.225 1215 l 1,18,19
EndSplineSet
EndChar
StartChar: uni01A3
Encoding: 419 419 419
Width: 1233
Flags: W
TeX: 117 0 0 0
Fore
86.0879 559 m 0,0,1
 86.0879 995.367 86.0879 995.367 335.767 1110.07 c 0,2,3
 416.164 1147 416.164 1147 517.188 1147 c 0,4,5
 726.888 1147 726.888 1147 838.038 996 c 1,6,-1
 838.06 953.469 l 1,7,-1
 964.464 1063 l 1,8,-1
 1194.86 1063 l 1,9,-1
 1194.86 -430 l 1,10,-1
 1019.36 -430 l 1,11,-1
 1019.36 799 l 1,12,-1
 838.22 642.036 l 1,13,-1
 838.487 121.5 l 1,14,15
 727.788 -29 727.788 -29 517.188 -29 c 0,16,17
 282.742 -29 282.742 -29 172.327 158.794 c 0,18,19
 86.0879 305.47 86.0879 305.47 86.0879 559 c 0,0,1
261.588 559 m 0,20,21
 261.588 163.542 261.588 163.542 477.348 129.973 c 0,22,23
 496.454 127 496.454 127 517.188 127 c 0,24,25
 644.088 127 644.088 127 708.888 236.5 c 1,26,-1
 708.888 882 l 1,27,28
 644.088 991 644.088 991 517.188 991 c 0,29,30
 310.655 991 310.655 991 270.754 705.021 c 0,31,32
 261.588 639.325 261.588 639.325 261.588 559 c 0,20,21
EndSplineSet
EndChar
StartChar: uni01A4
Encoding: 420 420 420
Width: 1233
Flags: W
TeX: 117 0 0 0
Fore
1177 1047 m 0,0,1
 1177 699.302 1177 699.302 864.958 621.5 c 0,2,3
 778.728 600 778.728 600 669.25 600 c 2,4,-1
 575.75 600 l 1,5,-1
 575.75 0 l 1,6,-1
 373.75 0 l 1,7,-1
 373.75 1327 l 1,8,9
 320.244 1327 320.244 1327 260.25 1280 c 0,10,11
 211.75 1242 211.75 1242 211.75 1128 c 2,12,-1
 211.75 1079 l 1,13,-1
 56 1079 l 1,14,-1
 56 1149 l 2,15,16
 56 1330 56 1330 151.75 1411.5 c 0,17,18
 247.76 1493 247.76 1493 373.75 1493 c 2,19,-1
 669.25 1493 l 2,20,21
 1076.4 1493 1076.4 1493 1157.6 1201.43 c 0,22,23
 1177 1131.77 1177 1131.77 1177 1047 c 0,0,1
669.25 766 m 2,24,25
 880.342 766 880.342 766 943.742 923.011 c 0,26,27
 966.25 978.752 966.25 978.752 966.25 1047 c 0,28,29
 966.25 1180 966.25 1180 888.25 1253.5 c 128,-1,31
 810.25 1327 810.25 1327 669.25 1327 c 2,32,-1
 575.75 1327 l 1,33,-1
 575.75 766 l 1,34,-1
 669.25 766 l 2,24,25
EndSplineSet
EndChar
StartChar: uni01A5
Encoding: 421 421 421
Width: 1233
Flags: W
TeX: 117 0 0 0
Fore
375 559 m 0,0,1
 375 183.785 375 183.785 583.53 134.103 c 0,2,3
 613.341 127 613.341 127 647 127 c 0,4,5
 780 127 780 127 847.5 236 c 0,6,7
 915 345 915 345 915 559 c 0,8,9
 915 976.831 915 976.831 663.737 990.55 c 0,10,11
 655.497 991 655.497 991 647 991 c 0,12,13
 432.606 991 432.606 991 386.884 718.5 c 0,14,15
 375 647.67 375 647.67 375 559 c 0,0,1
375 977 m 1,16,17
 465.662 1140.59 465.662 1140.59 659.785 1146.78 c 0,18,19
 666.81 1147 666.81 1147 674 1147 c 0,20,21
 877 1147 877 1147 992.5 990 c 0,22,23
 1108 833 1108 833 1108 555 c 0,24,25
 1108 282 1108 282 992 126.5 c 0,26,27
 876 -29 876 -29 674 -29 c 0,28,29
 572 -29 572 -29 495.5 14.5 c 0,30,31
 419 58 419 58 375 141 c 1,32,-1
 375 -426 l 1,33,-1
 190 -426 l 1,34,-1
 190 1026 l 2,35,36
 190 1328.08 190 1328.08 393.101 1407.29 c 0,37,38
 456.463 1432 456.463 1432 534 1432 c 2,39,-1
 739 1432 l 1,40,-1
 739 1276 l 1,41,-1
 554 1276 l 2,42,43
 385.454 1276 385.454 1276 375.627 1055.12 c 0,44,45
 375 1041.02 375 1041.02 375 1026 c 2,46,-1
 375 977 l 1,16,17
EndSplineSet
EndChar
StartChar: uni01A6
Encoding: 422 422 422
Width: 1233
Flags: W
TeX: 117 0 0 0
Fore
760 441 m 1,0,1
 838 421 838 421 893 365.5 c 0,2,3
 946.809 311.202 946.809 311.202 1030 144 c 2,3,-1
 1233 -264 l 1,4,-1
 1016 -264 l 1,5,-1
 838 113 l 1,6,7
 761 274 761 274 699.5 320.5 c 128,-1,8
 638 367 638 367 539 367 c 2,9,-1
 346 367 l 1,10,-1
 346 0 l 1,11,-1
 143 0 l 1,12,-1
 143 1493 l 1,13,-1
 346 1493 l 1,0,0
 346 1229 l 1,0,0
 559 1229 l 2,14,15
 805 1229 805 1229 936 1118 c 128,-1,16
 1067 1007 1067 1007 1067 797 c 0,17,18
 1067 649 1067 649 986.5 555.5 c 128,-1,19
 906 462 906 462 760 441 c 1,0,1
346 1063 m 1,20,-1
 346 533 l 1,21,-1
 567 533 l 2,22,23
 712 533 712 533 783 598 c 128,-1,24
 854 663 854 663 854 797 c 0,25,26
 854 926 854 926 778.5 994.5 c 128,-1,27
 703 1063 703 1063 559 1063 c 2,28,-1
 346 1063 l 1,20,-1
EndSplineSet
EndChar
StartChar: uni01A7
Encoding: 423 423 423
Width: 1233
Flags: W
TeX: 117 0 0 0
Fore
225 1442 m 1,0,-1
 330 1481 330 1481 425 1500.5 c 128,-1,39
 520 1520 520 1520 606 1520 c 0,37,38
 829 1520 829 1520 963.5 1399.5 c 128,-1,36
 1098 1279 1098 1279 1098 1079 c 0,34,35
 1098 919 1098 919 1004 824 c 128,-1,33
 910 729 910 729 702 682 c 2,31,32
 594 657 l 2,30,-1
 449 625 449 625 390.5 566 c 128,-1,29
 332 507 332 507 332 395 c 0,27,28
 332 272 332 272 417 203.5 c 128,-1,26
 502 135 502 135 655 135 c 0,24,25
 759 135 759 135 861.5 169 c 128,-1,23
 964 203 964 203 1079 276 c 1,21,22
 1079 61 l 1,20,-1
 972 16 972 16 866 -6.5 c 128,-1,19
 760 -29 760 -29 655 -29 c 0,17,18
 403 -29 403 -29 271 83 c 128,-1,16
 139 195 139 195 139 408 c 0,14,15
 139 589 139 589 235 694 c 128,-1,13
 331 799 331 799 541 848 c 2,11,12
 647 872 l 2,10,-1
 796 907 796 907 850.5 959 c 128,-1,9
 905 1011 905 1011 905 1110 c 0,7,8
 905 1223 905 1223 822 1289.5 c 128,-1,6
 739 1356 739 1356 596 1356 c 0,4,5
 502 1356 502 1356 409.5 1326 c 128,-1,3
 317 1296 317 1296 225 1237 c 1,1,2
 225 1442 l 1,0,-1
EndSplineSet
EndChar
StartChar: uni01A8
Encoding: 424 424 424
Width: 1233
Flags: W
TeX: 117 0 0 0
Fore
270 1081 m 1,0,-1
 350 1114 350 1114 433 1130.5 c 128,-1,39
 516 1147 516 1147 606 1147 c 0,37,38
 808 1147 808 1147 917 1059.5 c 128,-1,36
 1026 972 1026 972 1026 811 c 0,34,35
 1026 684 1026 684 953 610.5 c 128,-1,33
 880 537 880 537 721 506 c 2,31,32
 652 492 l 1,30,-1
 644 490 l 2,29,-1
 399 441 399 441 399 313 c 0,27,28
 399 224 399 224 466 174.5 c 128,-1,26
 533 125 533 125 655 125 c 0,24,25
 739 125 739 125 833 151.5 c 128,-1,23
 927 178 927 178 1030 231 c 1,21,22
 1030 41 l 1,20,-1
 924 6 924 6 833 -11.5 c 128,-1,19
 742 -29 742 -29 659 -29 c 0,17,18
 449 -29 449 -29 331 64.5 c 128,-1,16
 213 158 213 158 213 324 c 0,14,15
 213 449 213 449 283.5 527 c 128,-1,13
 354 605 354 605 491 631 c 2,11,12
 565 645 l 2,10,-1
 748 680 748 680 794 717 c 128,-1,9
 840 754 840 754 840 829 c 0,7,8
 840 912 840 912 778.5 952.5 c 128,-1,6
 717 993 717 993 592 993 c 0,4,5
 509 993 509 993 429 970 c 128,-1,3
 349 947 349 947 270 901 c 1,1,2
 270 1081 l 1,0,-1
EndSplineSet
EndChar
StartChar: uni01AA
Encoding: 426 426 426
Width: 1233
Flags: W
TeX: 117 0 0 0
Fore
568 1284 m 1,0,-1
 560.943 1329.16 560.943 1329.16 543 1352 c 1,7,8
 510 1400 510 1400 400 1400 c 0,5,6
 276.023 1400 276.023 1400 273 1335 c 0,3,4
 270 1284 270 1284 389 1284 c 2,1,2
 568 1284 l 1,0,-1
765 1130 m 1,9,-1
 763 -89 l 1,33,-1
 763 -192.5 763 -192.5 802 -233 c 0,31,32
 839.037 -273 839.037 -273 939 -273 c 2,29,30
 1115 -273 l 1,28,-1
 1115 -426 l 1,27,-1
 941 -426 l 2,26,-1
 746.474 -426 746.474 -426 665 -340 c 0,24,25
 578 -248.5 578 -248.5 578 -68 c 2,22,23
 578 1130 l 1,21,-1
 388 1130 l 2,20,-1
 118 1130 118 1130 118 1340 c 0,18,19
 118 1556 118 1556 421 1556 c 0,16,17
 601.5 1556 601.5 1556 684 1460 c 0,14,15
 737.218 1396.14 737.218 1396.14 755 1285 c 1,12,13
 946 1285 l 1,11,-1
 946 1130 l 1,10,-1
 765 1130 l 1,9,-1
EndSplineSet
EndChar
StartChar: uni01AB
Encoding: 427 427 427
Width: 1233
Flags: W
TeX: 117 0 0 0
Fore
614 1438 m 1,0,-1
 614 1120 l 1,1,-1
 1032 1120 l 1,2,-1
 1032 977 l 1,3,-1
 614 977 l 1,4,-1
 614 369 l 2,5,6
 614 245 614 245 661 196 c 128,-1,8
 708 147 708 147 825 147 c 2,9,-1
 1032 147 l 1,10,-1
 1032 0 l 1,11,-1
 1032 -20 l 2,12,13
 1032 -215 1032 -215 943 -320 c 0,14,15
 853 -426 853 -426 688 -426 c 2,16,-1
 483 -426 l 1,17,-1
 483 -270 l 1,18,-1
 668 -270 l 2,19,20
 758 -270 758 -270 803 -208 c 0,21,22
 847 -146 847 -146 847 -20 c 2,23,-1
 847 0 l 1,24,-1
 807 0 l 2,25,26
 600 0 600 0 515 83 c 128,-1,28
 430 166 430 166 430 369 c 2,29,-1
 430 977 l 1,30,-1
 131 977 l 1,31,-1
 131 1120 l 1,32,-1
 430 1120 l 1,33,-1
 430 1438 l 1,34,-1
 614 1438 l 1,0,-1
EndSplineSet
EndChar
StartChar: uni01AC
Encoding: 428 428 428
Width: 1233
Flags: W
TeX: 117 0 0 0
Fore
453 1327 m 2,0,1
 322.103 1335.31 322.103 1335.31 251.5 1280 c 0,2,3
 203 1242 203 1242 203 1128 c 2,4,-1
 203 1079 l 1,5,-1
 47 1079 l 1,6,-1
 47 1149 l 2,7,8
 47 1330.01 47 1330.01 143 1411.5 c 0,9,10
 239.01 1493 239.01 1493 453 1493 c 2,11,-1
 1186 1493 l 1,12,-1
 1186 1323 l 1,13,-1
 719 1323 l 1,14,-1
 719 0 l 1,15,-1
 516 0 l 1,16,-1
 516 1323 l 1,17,-1
 453 1327 l 2,0,1
EndSplineSet
EndChar
StartChar: uni01AD
Encoding: 429 429 429
Width: 1233
Flags: W
TeX: 117 0 0 0
Fore
614 1120 m 1,0,-1
 1032 1120 l 1,1,-1
 1032 977 l 1,2,-1
 614 977 l 1,3,-1
 614 369 l 2,4,5
 614 245 614 245 661 196 c 0,6,7
 708 147 708 147 825 147 c 2,8,-1
 1032 147 l 1,9,-1
 1032 0 l 1,10,-1
 807 0 l 2,11,12
 600 0 600 0 515 83 c 0,13,14
 430 166 430 166 430 369 c 2,15,-1
 430 977 l 1,16,-1
 131 977 l 1,17,-1
 131 1120 l 1,18,-1
 429 1120 l 1,19,-1
 429 1150 l 2,20,21
 429 1345 429 1345 518 1450 c 0,22,23
 608 1556 608 1556 773 1556 c 2,24,-1
 978 1556 l 1,25,-1
 978 1400 l 1,26,-1
 793 1400 l 2,27,28
 703 1400 703 1400 658 1338 c 0,29,30
 614 1276 614 1276 614 1150 c 2,31,-1
 614 1120 l 1,0,-1
EndSplineSet
EndChar
StartChar: uni01AE
Encoding: 430 430 430
Width: 1233
Flags: W
TeX: 117 0 0 0
Fore
47 1493 m 1,0,-1
 1186 1493 l 1,1,-1
 1186 1323 l 1,2,-1
 719 1323 l 1,3,-1
 719 128 l 1,4,-1
 719 0 l 1,5,-1
 719 -20 l 2,6,7
 719 -146 719 -146 763 -208 c 0,8,9
 808 -270 808 -270 898 -270 c 2,10,-1
 1083 -270 l 1,11,-1
 1083 -426 l 1,12,-1
 860 -426 l 2,13,14
 695 -426 695 -426 605 -320 c 0,15,16
 516 -215 516 -215 516 -20 c 2,17,-1
 516 0 l 1,18,-1
 516 128 l 1,19,-1
 516 1323 l 1,20,-1
 47 1323 l 1,21,-1
 47 1493 l 1,0,-1
EndSplineSet
EndChar
StartChar: uni01B1
Encoding: 433 433 433
Width: 1233
Flags: W
TeX: 117 0 0 0
Fore
1159 1460 m 1,0,-1
 1159 1288 l 1,1,-1
 914 1288 l 1,2,3
 1037 1154 1037 1154 1092 1010 c 128,-1,4
 1147 866 1147 866 1147 678 c 0,5,6
 1147 367 1147 367 1003 183.5 c 128,-1,7
 859 0 859 0 619 0 c 0,8,9
 377 0 377 0 232.5 183 c 128,-1,10
 88 366 88 366 88 678 c 0,11,12
 88 866 88 866 143.5 1010.5 c 128,-1,13
 199 1155 199 1155 322 1288 c 1,14,-1
 74 1288 l 1,15,-1
 74 1460 l 1,16,-1
 537 1460 l 1,17,-1
 537 1288 l 1,18,19
 417 1212 417 1212 350 1047.5 c 128,-1,20
 283 883 283 883 283 661 c 0,21,22
 283 431 283 431 373 298.5 c 128,-1,23
 463 166 463 166 617 166 c 0,24,25
 771 166 771 166 860.5 298.5 c 128,-1,26
 950 431 950 431 950 661 c 0,27,28
 950 883 950 883 883 1047.5 c 128,-1,29
 816 1212 816 1212 696 1288 c 1,30,-1
 696 1460 l 1,31,-1
 1159 1460 l 1,0,-1
EndSplineSet
EndChar
StartChar: uni01B2
Encoding: 434 434 434
Width: 1233
Flags: W
TeX: 117 0 0 0
Fore
505.5 0 m 0,0,1
 335.951 0 335.951 0 243.5 106 c 0,2,3
 154 208 154 208 154 406 c 2,4,-1
 154 1493 l 1,5,-1
 357.5 1493 l 1,6,-1
 357.5 421 l 2,7,8
 357.5 295 357.5 295 401.5 233 c 0,9,10
 446.5 171 446.5 171 536.5 171 c 0,11,12
 690.5 171 690.5 171 780 303.5 c 128,-1,14
 869.5 436 869.5 436 869.5 666 c 0,15,16
 869.5 888 869.5 888 802.5 1052.5 c 128,-1,18
 735.5 1217 735.5 1217 615.5 1293 c 1,19,-1
 833.5 1293 l 1,20,21
 956.5 1159 956.5 1159 1011.25 1015 c 128,-1,23
 1066 871 1066 871 1066 683 c 0,24,25
 1066 372 1066 372 922.5 188.5 c 0,26,27
 775.09 0 775.09 0 505.5 0 c 0,0,1
EndSplineSet
EndChar
StartChar: uni01B3
Encoding: 435 435 435
Width: 1233
Flags: W
TeX: 117 0 0 0
Fore
875 1140 m 2,0,-1
 629 670 l 1,1,-1
 629 0 l 1,2,-1
 446 0 l 1,3,-1
 446 670 l 1,4,-1
 17 1493 l 1,5,-1
 210 1493 l 1,6,-1
 538 834 l 1,7,-1
 737 1235 l 2,8,9
 836 1435 836 1435 945 1477 c 0,10,11
 991 1495 991 1495 1036 1495 c 0,12,13
 1116 1495 1116 1495 1191 1438 c 2,14,-1
 1216 1419 l 1,15,-1
 1145 1285 l 1,16,-1
 1135 1294 l 2,17,18
 1101 1325 1101 1325 1061 1325 c 0,19,20
 1033 1325 1033 1325 1002 1309 c 0,21,22
 951 1285 951 1285 875 1140 c 2,0,-1
EndSplineSet
EndChar
StartChar: uni01B4
Encoding: 436 436 436
Width: 1233
Flags: W
TeX: 117 0 0 0
Fore
622 -104 m 2,0,1
 540.958 -306.508 540.958 -306.508 470 -365 c 0,2,3
 396 -426 396 -426 272 -426 c 2,4,-1
 125 -426 l 1,5,-1
 125 -272 l 1,6,-1
 233 -272 l 2,7,8
 309 -272 309 -272 351 -236 c 128,-1,10
 393 -200 393 -200 444 -66 c 2,11,-1
 477 18 l 1,12,-1
 24 1120 l 1,13,-1
 219 1120 l 1,14,-1
 569 244 l 1,15,-1
 848 943 l 2,16,17
 898.315 1069.06 898.315 1069.06 978.85 1110.19 c 0,18,19
 1022.15 1132.3 1022.15 1132.3 1073.04 1132.3 c 0,0,0
 1121.75 1132.3 1121.75 1132.3 1177.43 1112.04 c 2,20,-1
 1225 1095 l 1,21,-1
 1172 948 l 1,22,-1
 1143.81 958.261 l 2,23,24
 1115.53 968.552 1115.53 968.552 1093.99 968.552 c 0,0,0
 1051.23 968.552 1051.23 968.552 1035 928 c 2,25,-1
 622 -104 l 2,0,1
EndSplineSet
EndChar
StartChar: uni01B5
Encoding: 437 437 437
Width: 1233
Flags: W
TeX: 117 0 0 0
Fore
178 1493 m 1,0,-1
 1147 1493 l 1,1,-1
 1147 1339 l 1,2,-1
 751.996 747 l 1,3,-1
 984 747 l 1,4,-1
 984 577 l 1,5,-1
 719 577 l 1,6,-1
 638.565 577 l 1,7,-1
 367 170 l 1,8,-1
 1169 170 l 1,9,-1
 1169 0 l 1,10,-1
 156 0 l 1,11,-1
 156 154 l 1,12,-1
 430.642 577 l 1,13,-1
 251 577 l 1,14,-1
 251 747 l 1,15,-1
 541.019 747 l 1,16,-1
 915 1323 l 1,17,-1
 178 1323 l 1,18,-1
 178 1493 l 1,0,-1
EndSplineSet
EndChar
StartChar: uni01B6
Encoding: 438 438 438
Width: 1233
Flags: W
TeX: 117 0 0 0
Fore
222 1122 m 1,0,-1
 1035 1122 l 1,1,-1
 1035 954 l 1,2,-1
 764.684 616 l 1,3,-1
 1076.75 616 l 1,4,-1
 1076.75 452 l 1,5,-1
 723.25 452 l 1,6,-1
 633.525 452 l 1,7,-1
 392 150 l 1,8,-1
 1035 150 l 1,9,-1
 1035 0 l 1,10,-1
 198 0 l 1,11,-1
 198 170 l 1,12,-1
 423.25 452 l 1,13,-1
 156.25 452 l 1,14,-1
 156.25 616 l 1,15,-1
 554.246 616 l 1,16,-1
 841 975 l 1,17,-1
 222 975 l 1,18,-1
 222 1122 l 1,0,-1
EndSplineSet
EndChar
StartChar: uni01B7
Encoding: 439 439 439
Width: 1233
Flags: W
TeX: 117 0 0 0
Fore
227.5 435 m 1,0,1
 227.5 292.378 227.5 292.378 327.5 217 c 0,2,3
 426.998 142 426.998 142 616.5 142 c 128,-1,5
 806.002 142 806.002 142 905.5 217 c 0,6,7
 1005.5 292.378 1005.5 292.378 1005.5 435 c 0,8,9
 1005.5 568.796 1005.5 568.796 913.5 642 c 0,10,11
 820.5 716 820.5 716 655.5 716 c 2,12,-1
 481.5 716 l 1,13,-1
 481.5 882 l 1,14,-1
 851.5 1323 l 1,15,-1
 114.5 1323 l 1,16,-1
 114.5 1493 l 1,17,-1
 1083.5 1493 l 1,18,-1
 1083.5 1325 l 1,19,-1
 707.5 884 l 1,20,21
 812.178 884 812.178 884 941.5 828 c 0,22,23
 1040.02 785.337 1040.02 785.337 1125.5 677 c 0,24,25
 1206.5 573 1206.5 573 1206.5 435 c 0,26,27
 1206.5 214 1206.5 214 1054.5 93 c 128,-1,29
 902.5 -28 902.5 -28 622.5 -28 c 0,30,31
 330.5 -28 330.5 -28 178.5 93 c 128,-1,33
 26.5 214 26.5 214 26.5 435 c 1,34,-1
 227.5 435 l 1,0,1
EndSplineSet
EndChar
StartChar: uni01B8
Encoding: 440 440 440
Width: 1233
Flags: W
TeX: 117 0 0 0
Fore
1005.5 435 m 1,0,-1
 1206.5 435 l 1,1,2
 1206.5 214 1206.5 214 1054.5 93 c 0,3,4
 902.5 -28 902.5 -28 610.5 -28 c 0,5,6
 330.5 -28 330.5 -28 178.5 93 c 0,7,8
 26.5 214 26.5 214 26.5 435 c 0,9,10
 26.5 573 26.5 573 107.5 677 c 0,11,12
 192.977 785.337 192.977 785.337 291.5 828 c 0,13,14
 420.822 884 420.822 884 525.5 884 c 1,15,-1
 149.5 1325 l 1,16,-1
 149.5 1493 l 1,17,-1
 1118.5 1493 l 1,18,-1
 1118.5 1323 l 1,19,-1
 381.5 1323 l 1,20,-1
 751.5 882 l 1,21,-1
 751.5 716 l 1,22,-1
 577.5 716 l 2,23,24
 412.5 716 412.5 716 319.5 642 c 0,25,26
 227.5 568.796 227.5 568.796 227.5 435 c 0,27,28
 227.5 292.378 227.5 292.378 327.5 217 c 0,29,30
 426.998 142 426.998 142 616.5 142 c 0,31,32
 806.002 142 806.002 142 905.5 217 c 0,33,34
 1005.5 292.378 1005.5 292.378 1005.5 435 c 1,0,-1
EndSplineSet
EndChar
StartChar: uni01B9
Encoding: 441 441 441
Width: 1233
Flags: W
TeX: 117 0 0 0
Fore
624 476 m 1,0,0
 213 952 l 1,2,-1
 213 1120 l 1,1,-1
 1087 1120 l 1,0,-1
 1087 973 l 1,9,-1
 420 973 l 1,8,-1
 850 474 l 1,0,0
 850 308 l 1,20,-1
 676 308 l 2,19,-1
 511 308 511 308 418 234 c 128,-1,18
 326 159 326 159 326 27 c 0,16,17
 326 -116 326 -116 426 -191 c 128,-1,15
 525 -266 525 -266 715 -266 c 0,13,14
 824 -266 824 -266 924 -241 c 128,-1,12
 1024 -216 1024 -216 1108 -167 c 1,10,11
 1108 -362 l 1,9,-1
 1002 -399 1002 -399 902 -418 c 128,-1,8
 803 -436 803 -436 709 -436 c 0,6,7
 429 -436 429 -436 277 -315 c 128,-1,5
 125 -194 125 -194 125 27 c 0,3,4
 125 165 125 165 206 269 c 128,-1,2
 292 378 292 378 390 420 c 0,0,1
 518 476 518 476 624 476 c 1,0,0
EndSplineSet
EndChar
StartChar: uni01BB
Encoding: 443 443 443
Width: 1233
Flags: W
TeX: 117 0 0 0
Fore
164 1421 m 1,0,1
 372.102 1520 372.102 1520 563 1520 c 0,2,3
 782 1520 782 1520 915.5 1403.5 c 0,4,5
 1049 1287 1049 1287 1049 1098 c 0,6,7
 1049 1002 1049 1002 1004.5 906 c 0,8,9
 970.393 832.421 970.393 832.421 903.602 747 c 1,10,-1
 984 747 l 1,11,-1
 984 577 l 1,12,-1
 754.375 577 l 1,13,-1
 697.5 514 l 1,14,-1
 373 170 l 1,15,-1
 1059 170 l 1,16,-1
 1059 0 l 1,17,-1
 152 0 l 1,18,-1
 152 170 l 1,19,-1
 533.508 577 l 1,20,-1
 251 577 l 1,21,-1
 251 747 l 1,22,-1
 684.996 747 l 1,23,24
 789.533 876.914 789.533 876.914 820.259 961.254 c 0,25,26
 842 1020.93 842 1020.93 842 1083 c 0,27,28
 842 1268.12 842 1268.12 692.017 1327.55 c 0,29,30
 635.355 1350 635.355 1350 567 1350 c 0,31,32
 386.329 1350 386.329 1350 164 1217 c 1,33,-1
 164 1421 l 1,0,1
EndSplineSet
EndChar
StartChar: uni01BC
Encoding: 444 444 444
Width: 1233
Flags: W
TeX: 117 0 0 0
Fore
616 142 m 0,0,1
 931.944 142 931.944 142 992.801 341.035 c 0,2,3
 1006 384.204 1006 384.204 1006 435 c 0,4,5
 1006 569 1006 569 914 642 c 0,6,7
 820 716 820 716 656 716 c 2,8,-1
 215 716 l 1,9,-1
 215 1493 l 1,10,-1
 1139 1493 l 1,11,-1
 1139 1323 l 1,12,-1
 418 1323 l 1,13,-1
 418 884 l 1,14,-1
 708 884 l 2,15,16
 812.678 884 812.678 884 942 828 c 0,17,18
 1040.52 785.337 1040.52 785.337 1126 677 c 0,19,20
 1206 575.605 1206 575.605 1206 435 c 0,21,22
 1206 214 1206 214 1054 93 c 0,23,24
 902 -28 902 -28 622 -28 c 0,25,26
 191.999 -28 191.999 -28 69.5716 227.914 c 0,27,28
 26 318.993 26 318.993 26 435 c 1,29,-1
 228 435 l 1,30,31
 228 253.939 228 253.939 385.89 182.831 c 0,32,33
 476.552 142 476.552 142 616 142 c 0,0,1
EndSplineSet
EndChar
StartChar: uni01BD
Encoding: 445 445 445
Width: 1233
Flags: W
TeX: 117 0 0 0
Fore
518 -266 m 0,0,1
 829.281 -266 829.281 -266 892.469 -70.9237 c 0,2,3
 907 -26.0635 907 -26.0635 907 27 c 0,4,5
 907 160.796 907 160.796 815 234 c 0,6,7
 722 308 722 308 557 308 c 2,8,-1
 257 308 l 1,9,-1
 257 1120 l 1,10,-1
 1009 1120 l 1,11,-1
 1009 936 l 1,12,-1
 441 936 l 1,13,-1
 441 474.513 l 1,14,-1
 609 476 l 2,15,16
 711.597 476.908 711.597 476.908 843 420 c 0,17,18
 941.53 377.329 941.53 377.329 1027 269 c 0,19,20
 1108 165 1108 165 1108 27 c 0,21,22
 1108 -194 1108 -194 956 -315 c 0,23,24
 804 -436 804 -436 524 -436 c 0,25,26
 337 -436 337 -436 125 -362 c 1,27,-1
 125 -167 l 1,28,29
 294.714 -266 294.714 -266 518 -266 c 0,0,1
EndSplineSet
EndChar
StartChar: uni01BE
Encoding: 446 446 446
Width: 1233
Flags: W
TeX: 117 0 0 0
Fore
845 439 m 0,0,1
 845 553.365 845 553.365 771.323 632.032 c 0,2,3
 682.38 727 682.38 727 509 727 c 2,4,-1
 447 727 l 1,5,-1
 447 998 l 1,6,-1
 218 998 l 1,7,-1
 218 1162 l 1,8,-1
 447 1162 l 1,9,-1
 447 1438 l 1,10,-1
 649 1438 l 1,11,-1
 649 1162 l 1,12,-1
 880 1162 l 1,13,-1
 880 998 l 1,14,-1
 649 998 l 1,15,-1
 649 873 l 1,16,17
 814.391 843.814 814.391 843.814 922.126 734.076 c 0,18,19
 1039 615.028 1039 615.028 1039 439 c 0,20,21
 1039 253.527 1039 253.527 929 128 c 0,22,23
 791.42 -29 791.42 -29 517 -29 c 0,24,25
 345.98 -29 345.98 -29 194 41 c 1,26,-1
 194 213 l 1,27,28
 350.007 127 350.007 127 509 127 c 0,29,30
 687.516 127 687.516 127 787 241 c 0,31,32
 844.003 306.321 844.003 306.321 845 439 c 0,0,1
EndSplineSet
EndChar
StartChar: uni01C0
Encoding: 448 448 448
Width: 1233
Flags: W
TeX: 117 0 0 0
Fore
515.5 1493 m 1,0,-1
 717.5 1493 l 1,1,-1
 717.5 0 l 1,2,-1
 515.5 0 l 1,3,-1
 515.5 1493 l 1,0,-1
EndSplineSet
EndChar
StartChar: uni01C2
Encoding: 450 450 450
Width: 1233
Flags: W
TeX: 117 0 0 0
Fore
515.5 1493 m 1,0,-1
 717.5 1493 l 1,1,-1
 717.5 1089 l 1,2,-1
 1068.5 1089 l 1,3,-1
 1068.5 921 l 1,4,-1
 717.5 921 l 1,5,-1
 717.5 681 l 1,6,-1
 1068.5 681 l 1,7,-1
 1068.5 511 l 1,8,-1
 717.5 511 l 1,9,-1
 717.5 0 l 1,10,-1
 515.5 0 l 1,11,-1
 515.5 511 l 1,12,-1
 164.5 511 l 1,13,-1
 164.5 681 l 1,14,-1
 515.5 681 l 1,15,-1
 515.5 921 l 1,16,-1
 164.5 921 l 1,17,-1
 164.5 1089 l 1,18,-1
 515.5 1089 l 1,19,-1
 515.5 1493 l 1,0,-1
EndSplineSet
EndChar
StartChar: uni01F6
Encoding: 502 502 502
Width: 1233
Flags: W
TeX: 117 0 0 0
Fore
877.05 135 m 0,0,1
 930.994 135 930.994 135 956.287 214.362 c 0,2,3
 988.65 315.908 988.65 315.908 988.65 586 c 2,4,-1
 988.65 881 l 1,5,-1
 1171.35 881 l 1,6,-1
 1171.35 561 l 2,7,8
 1171.35 187.567 1171.35 187.567 1067.4 48 c 0,9,10
 1010.05 -29 1010.05 -29 877.05 -29 c 0,11,12
 748.769 -29 748.769 -29 676.8 53.5 c 0,13,14
 543.15 206.707 543.15 206.707 543.15 561 c 2,15,-1
 543.15 711 l 1,16,-1
 244.35 711 l 1,17,-1
 244.35 0 l 1,18,-1
 61.6504 0 l 1,19,-1
 61.6504 1493 l 1,20,-1
 244.35 1493 l 1,21,-1
 244.35 881 l 1,22,-1
 543.15 881 l 1,23,-1
 543.15 1493 l 1,24,-1
 725.85 1493 l 1,25,-1
 725.85 586 l 2,26,27
 725.85 312.882 725.85 312.882 807.75 174 c 0,28,29
 830.749 135 830.749 135 877.05 135 c 0,0,1
EndSplineSet
EndChar
StartChar: uni0221
Encoding: 545 545 545
Width: 1233
Flags: W
TeX: 117 0 0 0
Fore
877 144 m 25,0,1
 888.529 126.045 888.529 126.045 955 127 c 0,2,3
 1077.73 126.989 1077.73 126.989 1081 282 c 0,4,5
 1085 344 1085 344 1021 344 c 128,-1,6
 957 344 957 344 877 144 c 25,0,1
788 406 m 2,7,8
 788 289.857 788 289.857 801 255 c 1,9,10
 914.804 498.729 914.804 498.729 1019 500 c 0,11,12
 1183 502 1183 502 1183 284 c 0,13,14
 1183 -29 1183 -29 933 -29 c 0,15,16
 862.5 -29 862.5 -29 813.5 -12 c 1,17,18
 783.558 -90.5645 783.558 -90.5645 764.331 -148 c 1,19,-1
 645.267 -148 l 1,20,-1
 713 46 l 1,21,22
 681.428 59.1363 681.428 59.1363 643 148 c 2,23,-1
 627 185 l 1,24,25
 599.191 94.6195 599.191 94.6195 543 42 c 0,26,27
 465.978 -30.1271 465.978 -30.1271 365.71 -29 c 0,28,29
 202.737 -27.168 202.737 -27.168 110.909 128.5 c 0,30,31
 18.0004 286 18.0004 286 18 563 c 0,32,33
 18 836 18 836 111.308 991.5 c 128,-1,34
 204.615 1147 204.615 1147 365.71 1147 c 0,35,36
 446.258 1147 446.258 1147 507.665 1103.5 c 128,-1,37
 569.072 1060 569.072 1060 604.162 977 c 1,38,-1
 604.162 1556 l 1,39,-1
 788 1556 l 1,40,-1
 788 406 l 2,7,8
172.715 559 m 128,-1,42
 172.715 345 172.715 345 226.945 236 c 128,-1,43
 281.175 127 281.175 127 387.242 127 c 128,-1,44
 493.31 127 493.31 127 548.736 237 c 128,-1,45
 604.162 347 604.162 347 604.162 559 c 0,46,47
 604.162 772 604.162 772 548.736 881.5 c 128,-1,48
 493.31 991 493.31 991 387.242 991 c 128,-1,49
 281.175 991 281.175 991 226.945 882 c 128,-1,41
 172.715 773 172.715 773 172.715 559 c 128,-1,42
EndSplineSet
EndChar
StartChar: uni0224
Encoding: 548 548 548
Width: 1233
Flags: W
TeX: 117 0 0 0
Fore
178 1493 m 1,0,-1
 1147 1493 l 1,1,-1
 1147 1339 l 1,2,-1
 367 170 l 1,3,-1
 1169 170 l 1,4,-1
 1169 128 l 1,5,-1
 1170 128 l 1,6,-1
 1170 -20 l 2,7,8
 1170 -215 1170 -215 1081 -320 c 0,9,10
 991 -426 991 -426 826 -426 c 2,11,-1
 621 -426 l 1,12,-1
 621 -270 l 1,13,-1
 806 -270 l 2,14,15
 896 -270 896 -270 941 -208 c 0,16,17
 985 -146 985 -146 985 -20 c 2,18,-1
 985 5.55112e-16 l 1,19,-1
 156 0 l 1,20,-1
 156 154 l 1,21,-1
 915 1323 l 1,22,-1
 178 1323 l 1,23,-1
 178 1493 l 1,0,-1
EndSplineSet
EndChar
StartChar: uni0225
Encoding: 549 549 549
Width: 1233
Flags: W
TeX: 117 0 0 0
Fore
227 1122 m 1,0,-1
 1040 1122 l 1,1,-1
 1040 954 l 1,2,-1
 397 150 l 1,3,-1
 1040 150 l 1,4,-1
 1040 0 l 1,5,-1
 1032 -3.55271e-15 l 1,6,-1
 1032 -20 l 2,7,8
 1032 -215 1032 -215 943 -320 c 0,9,10
 853 -426 853 -426 688 -426 c 2,11,-1
 483 -426 l 1,12,-1
 483 -270 l 1,13,-1
 668 -270 l 2,14,15
 758 -270 758 -270 803 -208 c 0,16,17
 847 -146 847 -146 847 -20 c 2,18,-1
 847 5.55112e-16 l 1,19,-1
 203 0 l 1,20,-1
 203 170 l 1,21,-1
 846 975 l 1,22,-1
 227 975 l 1,23,-1
 227 1122 l 1,0,-1
EndSplineSet
EndChar
StartChar: uni0234
Encoding: 564 564 564
Width: 1233
Flags: W
TeX: 117 0 0 0
Fore
728 144 m 25,0,0
 739.529 126.045 739.529 126.045 806 127 c 0,1,2
 928.729 126.989 928.729 126.989 932 282 c 0,3,4
 936 344 936 344 872 344 c 128,-1,5
 808 344 808 344 728 144 c 25,0,0
664.5 -12 m 1,0,0
 634.558 -90.5645 634.558 -90.5645 615.331 -148 c 1,1,-1
 496.267 -148 l 1,2,-1
 564 46 l 1,3,4
 545.414 51.0103 545.414 51.0103 494 148 c 0,5,6
 455 221.572 455 221.572 455 406 c 2,7,-1
 455 1423 l 1,8,-1
 160 1423 l 1,9,-1
 160 1567 l 1,10,-1
 639 1567 l 1,11,-1
 639 406 l 2,12,13
 639 289.875 639 289.875 652 255 c 1,14,15
 765.804 498.729 765.804 498.729 870 500 c 0,16,17
 1034 502 1034 502 1034 284 c 0,18,19
 1034 -29 1034 -29 784 -29 c 0,20,21
 713.5 -29 713.5 -29 664.5 -12 c 1,0,0
EndSplineSet
EndChar
StartChar: uni0235
Encoding: 565 565 565
Width: 1233
Flags: W
TeX: 117 0 0 0
Fore
819.999 144 m 25,0,0
 831.528 126.045 831.528 126.045 897.999 127 c 0,1,2
 1020.73 126.989 1020.73 126.989 1024 282 c 0,3,4
 1028 344 1028 344 963.999 344 c 128,-1,5
 899.999 344 899.999 344 819.999 144 c 25,0,0
714.999 406 m 2,7,-1
 714.999 292.275 714.999 292.275 736.999 246 c 1,8,9
 858.88 497.749 858.88 497.749 961.999 500 c 0,10,11
 1121.28 501.942 1121.28 501.942 1125.86 295.941 c 0,12,13
 1125.99 290.058 1125.99 290.058 1126 284 c 0,14,15
 1126.26 -28.0011 1126.26 -28.0011 875.999 -29 c 0,16,17
 805.499 -29 805.499 -29 756.499 -12 c 1,18,19
 726.557 -90.5645 726.557 -90.5645 707.33 -148 c 1,20,-1
 588.266 -148 l 1,21,-1
 655.999 46 l 1,22,23
 637.413 51.0103 637.413 51.0103 585.999 148 c 0,24,25
 546.999 221.572 546.999 221.572 546.999 406 c 2,26,-1
 546.999 641 l 2,27,28
 546.999 877.978 546.999 877.978 520.499 935.5 c 128,-1,29
 493.999 993 493.999 993 403.999 993 c 0,30,31
 330.999 993 330.999 993 302.499 931.5 c 128,-1,32
 273.999 870 273.999 870 273.999 641 c 2,33,-1
 273.999 0 l 1,34,-1
 106.999 0 l 1,35,-1
 106.999 1120 l 1,36,-1
 273.999 1120 l 1,37,-1
 273.999 1024 l 1,38,39
 306.999 1084 306.999 1084 356.499 1115.5 c 128,-1,40
 405.999 1147 405.999 1147 468.999 1147 c 0,41,42
 602.236 1147 602.236 1147 659.499 1042.5 c 0,43,44
 714.999 941.217 714.999 941.217 714.999 649 c 2,45,-1
 714.999 406 l 2,7,-1
EndSplineSet
EndChar
StartChar: uni0236
Encoding: 566 566 566
Width: 1233
Flags: W
TeX: 117 0 0 0
Fore
703 144 m 25,0,0
 714.529 126.045 714.529 126.045 781 127 c 0,1,2
 903.729 126.989 903.729 126.989 907 282 c 0,3,4
 911 344 911 344 847 344 c 128,-1,5
 783 344 783 344 703 144 c 25,0,0
614 406 m 2,5,6
 614 289.875 614 289.875 627 255 c 1,7,8
 740.804 498.729 740.804 498.729 845 500 c 0,9,10
 1009 502 1009 502 1009 284 c 0,11,12
 1009 -29 1009 -29 759 -29 c 0,13,14
 688.5 -29 688.5 -29 639.5 -12 c 1,15,16
 609.558 -90.5645 609.558 -90.5645 590.331 -148 c 1,17,-1
 471.267 -148 l 1,18,-1
 539 46 l 1,19,20
 520.414 51.0103 520.414 51.0103 469 148 c 0,21,22
 430 221.572 430 221.572 430 406 c 2,23,-1
 430 977 l 1,24,-1
 131 977 l 1,25,-1
 131 1120 l 1,26,-1
 430 1120 l 1,27,-1
 430 1438 l 1,28,-1
 614 1438 l 1,29,-1
 614 1120 l 1,30,-1
 1032 1120 l 1,31,-1
 1032 977 l 1,32,-1
 614 977 l 1,33,-1
 614 406 l 2,5,6
EndSplineSet
EndChar
StartChar: dotlessj
Encoding: 567 567 567
Width: 1233
Flags: W
Fore
600 -20 m 2,0,-1
 600 977 l 1,1,-1
 283 977 l 1,2,-1
 283 1120 l 1,3,-1
 784 1120 l 1,4,-1
 784 -20 l 2,5,6
 784 -215 784 -215 694.5 -320.5 c 128,-1,7
 605 -426 605 -426 440 -426 c 2,8,-1
 186 -426 l 1,9,-1
 186 -270 l 1,10,-1
 420 -270 l 2,11,12
 510 -270 510 -270 555 -207.5 c 128,-1,13
 600 -145 600 -145 600 -20 c 2,0,-1
EndSplineSet
EndChar
StartChar: uni0238
Encoding: 568 568 568
Width: 1233
Flags: W
TeX: 117 0 0 0
Fore
236.7 559 m 0,0,1
 236.7 345 236.7 345 277.5 236 c 0,2,3
 318.3 127 318.3 127 398.101 127 c 0,4,5
 477.9 127 477.9 127 519.601 237 c 0,6,7
 561.3 347 561.3 347 561.3 559 c 0,8,9
 561.3 772 561.3 772 519.601 881.5 c 0,10,11
 477.9 991 477.9 991 398.101 991 c 0,12,13
 318.3 991 318.3 991 277.5 882 c 0,14,15
 236.7 773 236.7 773 236.7 559 c 0,0,1
996.3 559 m 0,16,17
 996.3 773 996.3 773 955.5 882 c 0,18,19
 914.7 991 914.7 991 834.9 991 c 0,20,21
 754.5 991 754.5 991 713.1 881.5 c 0,22,23
 671.7 772 671.7 772 671.7 559 c 0,24,25
 671.7 347 671.7 347 713.1 237 c 0,26,27
 754.5 127 754.5 127 834.9 127 c 0,28,29
 914.7 127 914.7 127 955.5 236 c 0,30,31
 996.3 345 996.3 345 996.3 559 c 0,16,17
671.7 977 m 1,32,33
 698.1 1059 698.1 1059 744.6 1103 c 0,34,35
 791.1 1147 791.1 1147 852.3 1147 c 0,36,37
 973.5 1147 973.5 1147 1043.1 991.5 c 0,38,39
 1112.7 836 1112.7 836 1112.7 563 c 0,40,41
 1112.7 286 1112.7 286 1042.8 128.5 c 0,42,43
 972.9 -29 972.9 -29 851.1 -29 c 0,44,45
 791.1 -29 791.1 -29 745.2 14.5 c 0,46,47
 699.3 58 699.3 58 671.7 141 c 1,48,-1
 671.7 0 l 1,49,-1
 561.3 0 l 1,50,-1
 561.3 141 l 1,51,52
 533.7 58 533.7 58 487.8 14.5 c 0,53,54
 441.9 -29 441.9 -29 381.9 -29 c 0,55,56
 260.101 -29 260.101 -29 190.2 128.5 c 0,57,58
 120.3 286 120.3 286 120.3 563 c 0,59,60
 120.3 836 120.3 836 190.5 991.5 c 0,61,62
 260.7 1147 260.7 1147 381.9 1147 c 0,63,64
 442.5 1147 442.5 1147 488.7 1103.5 c 0,65,66
 534.9 1060 534.9 1060 561.3 977 c 1,67,-1
 561.3 1556 l 1,68,-1
 671.7 1556 l 1,69,-1
 671.7 977 l 1,32,33
EndSplineSet
EndChar
StartChar: uni0239
Encoding: 569 569 569
Width: 1233
Flags: W
TeX: 117 0 0 0
Fore
996.3 559 m 0,0,1
 996.3 773 996.3 773 955.5 882 c 0,2,3
 914.7 991 914.7 991 834.9 991 c 0,4,5
 755.1 991 755.1 991 713.4 881 c 0,6,7
 671.709 771.023 671.709 771.023 671.7 559.087 c 0,8,9
 671.7 346 671.7 346 713.4 236.5 c 0,10,11
 755.1 127 755.1 127 834.9 127 c 0,12,13
 914.7 127 914.7 127 955.5 236 c 0,14,15
 996.3 345 996.3 345 996.3 559 c 0,0,1
236.7 559 m 0,16,17
 236.7 345 236.7 345 277.5 236 c 0,18,19
 318.3 127 318.3 127 398.101 127 c 0,20,21
 478.5 127 478.5 127 519.9 236.5 c 0,22,23
 561.296 345.99 561.296 345.99 561.3 558.961 c 0,24,25
 561.3 771 561.3 771 519.9 881 c 0,26,27
 478.5 991 478.5 991 398.101 991 c 0,28,29
 318.3 991 318.3 991 277.5 882 c 0,30,31
 236.7 773 236.7 773 236.7 559 c 0,16,17
561.3 141 m 1,32,33
 534.9 59 534.9 59 488.4 15 c 0,34,35
 441.9 -29 441.9 -29 380.7 -29 c 0,36,37
 259.5 -29 259.5 -29 189.9 126.5 c 0,38,39
 120.3 282 120.3 282 120.3 555 c 0,40,41
 120.3 832 120.3 832 190.2 989.5 c 0,42,43
 260.101 1147 260.101 1147 381.9 1147 c 0,44,45
 441.9 1147 441.9 1147 487.8 1103.5 c 0,46,47
 533.7 1060 533.7 1060 561.3 977 c 1,48,-1
 561.3 1118 l 1,49,-1
 671.7 1118 l 1,50,-1
 671.7 977 l 1,51,52
 699.3 1060 699.3 1060 745.2 1103.5 c 0,53,54
 791.1 1147 791.1 1147 851.1 1147 c 0,55,56
 972.9 1147 972.9 1147 1042.8 989.5 c 0,57,58
 1112.7 832 1112.7 832 1112.7 555 c 0,59,60
 1112.7 282 1112.7 282 1042.5 126.5 c 0,61,62
 972.3 -29 972.3 -29 851.1 -29 c 0,63,64
 790.5 -29 790.5 -29 744.3 14.5 c 0,65,66
 698.1 58 698.1 58 671.7 141 c 1,67,-1
 671.7 -438 l 1,68,-1
 561.3 -438 l 1,69,-1
 561.3 141 l 1,32,33
EndSplineSet
EndChar
StartChar: uni023A
Encoding: 570 570 570
Width: 1233
Flags: W
TeX: 117 0 0 0
Fore
494 1493 m 1,0,-1
 739 1493 l 1,1,-1
 834.723 1180.28 l 1,2,-1
 1100 1559 l 1,3,-1
 1200 1485 l 1,4,-1
 880.914 1029.37 l 1,5,-1
 1196 0 l 1,6,-1
 987 0 l 1,7,-1
 877 389 l 1,8,-1
 432.448 389 l 1,9,-1
 302.473 203.407 l 1,10,-1
 246 0 l 1,11,-1
 160.023 -4.44089e-15 l 1,12,-1
 111 -70 l 1,13,-1
 8 0 l 1,14,-1
 59.5096 73.538 l 1,15,-1
 494 1493 l 1,0,-1
545.9 551 m 1,16,-1
 829 551 l 1,17,-1
 748.389 840.138 l 1,18,-1
 545.9 551 l 1,16,-1
705.138 995.274 m 1,19,-1
 616 1315 l 1,20,-1
 408.986 572.469 l 1,21,-1
 705.138 995.274 l 1,19,-1
EndSplineSet
EndChar
StartChar: uni023B
Encoding: 571 571 571
Width: 1233
Flags: W
TeX: 117 0 0 0
Fore
368 513.5 m 1,0,0
 931.665 1317.67 l 1,1,-1
 914 1324 l 2,2,3
 829 1356 829 1356 743 1356 c 0,4,5
 546 1356 546 1356 448 1204 c 0,6,7
 350 1052 350 1052 350 745 c 0,8,9
 350 619.109 350 619.109 368 513.5 c 1,0,0
1073 53 m 1,0,1
 996 12 996 12 915 -8.5 c 0,2,3
 834 -29 834 -29 743 -29 c 0,4,5
 456 -29 456 -29 297.5 174 c 2,6,-1
 289.357 184.679 l 1,7,-1
 111 -70 l 1,8,-1
 8 0 l 1,9,-1
 220.141 302.865 l 1,10,11
 139 481.698 139 481.698 139 745 c 0,12,13
 139 1111 139 1111 298.5 1315.5 c 0,14,15
 458 1520 458 1520 743 1520 c 0,16,17
 834 1520 834 1520 915 1499.5 c 0,18,19
 973.57 1484.68 973.57 1484.68 1030.05 1459.13 c 1,20,-1
 1100 1559 l 1,21,-1
 1200 1485 l 1,22,-1
 1073 1303.65 l 1,23,-1
 1073 1231 l 1,24,25
 1056.73 1244.41 1056.73 1244.41 1039.92 1256.42 c 1,26,-1
 410.906 358.241 l 1,27,28
 427.258 319.171 427.258 319.171 448 287 c 0,29,30
 546 135 546 135 743 135 c 0,31,32
 831 135 831 135 915.5 167 c 0,33,34
 1000 199 1000 199 1073 260 c 1,35,-1
 1073 53 l 1,0,1
EndSplineSet
EndChar
StartChar: uni023C
Encoding: 572 572 572
Width: 1233
Flags: W
TeX: 117 0 0 0
Fore
404.728 406 m 1,0,0
 880.728 973.363 l 1,1,2
 819.449 991 819.449 991 748 991 c 0,3,4
 575 991 575 991 482 879 c 0,5,6
 389 767 389 767 389 559 c 0,7,8
 389 475.901 389 475.901 404.728 406 c 1,0,0
1061 57 m 1,0,1
 987 14 987 14 908.5 -7.5 c 0,2,3
 830 -29 830 -29 748 -29 c 0,4,5
 488 -29 488 -29 341.5 127 c 2,6,-1
 333.672 135.538 l 1,7,-1
 139 -96 l 1,8,-1
 47 -20 l 1,9,-1
 263.403 237.842 l 1,10,11
 195 370.406 195 370.406 195 559 c 0,12,13
 195 835 195 835 341.5 991 c 0,14,15
 488 1147 488 1147 748 1147 c 0,16,17
 829 1147 829 1147 906 1126 c 0,18,19
 945.645 1115.19 945.645 1115.19 985.555 1098.28 c 1,20,-1
 1081 1212 l 1,21,-1
 1174 1135 l 1,22,-1
 1061 1000.6 l 1,23,-1
 1061 868 l 1,24,25
 1027.31 897.999 1027.31 897.999 993.51 920.331 c 1,26,-1
 454.303 279.013 l 1,27,28
 467.14 257.981 467.14 257.981 482.5 239.5 c 0,29,30
 576 127 576 127 748 127 c 0,31,32
 844 127 844 127 920 156.5 c 0,33,34
 996 186 996 186 1061 248 c 1,35,-1
 1061 57 l 1,0,1
EndSplineSet
EndChar
StartChar: uni023D
Encoding: 573 573 573
Width: 1233
Flags: W
TeX: 117 0 0 0
Fore
288 1493 m 1,0,-1
 491 1493 l 1,1,-1
 491 747 l 1,2,-1
 754 747 l 1,3,-1
 754 577 l 1,4,-1
 491 577 l 1,5,-1
 491 170 l 1,6,-1
 1212 170 l 1,7,-1
 1212 0 l 1,8,-1
 288 0 l 1,9,-1
 288 577 l 1,10,-1
 21 577 l 1,11,-1
 21 747 l 1,12,-1
 288 747 l 1,13,-1
 288 1493 l 1,0,-1
EndSplineSet
EndChar
StartChar: uni023E
Encoding: 574 574 574
Width: 1233
Flags: W
TeX: 117 0 0 0
Fore
717 976.296 m 1,0,0
 959.857 1323 l 1,2,-1
 717 1323 l 1,1,-1
 717 976.296 l 1,0,0
514 686.702 m 1,0,-1
 514 1323 l 1,15,-1
 47 1323 l 1,14,-1
 47 1493 l 1,13,-1
 1078.77 1493 l 1,12,-1
 1125 1559 l 1,11,-1
 1225 1485 l 1,10,-1
 1186 1429.31 l 1,9,-1
 1186 1323 l 1,8,-1
 1111.55 1323 l 1,7,-1
 717 759.619 l 1,6,-1
 717 0 l 1,5,-1
 514 0 l 1,4,-1
 514 469.752 l 1,3,-1
 136 -70 l 1,2,-1
 33 0 l 1,1,-1
 514 686.702 l 1,0,-1
EndSplineSet
EndChar
StartChar: uni023F
Encoding: 575 575 575
Width: 1233
Flags: W
TeX: 117 0 0 0
Fore
973 1081 m 1,0,-1
 973 901 l 1,1,2
 894 947 894 947 814 970 c 0,3,4
 734 993 734 993 651 993 c 0,5,6
 526 993 526 993 464.5 952.5 c 0,7,8
 403 912 403 912 403 829 c 0,9,10
 403 754 403 754 449 717 c 0,11,12
 495 680 495 680 678 645 c 2,13,-1
 752 631 l 2,14,15
 889 605 889 605 959.5 527 c 0,16,17
 1030 449 1030 449 1030 324 c 0,18,19
 1030 158 1030 158 912 64.5 c 0,20,21
 807.761 -18.0962 807.761 -18.0962 631.728 -27.7284 c 1,22,-1
 784 -180 l 1,23,-1
 931 -306 l 2,24,25
 973 -342 973 -342 1049 -342 c 1,26,-1
 1049 -496 l 1,27,-1
 1010 -496 l 2,28,29
 926.019 -496 926.019 -496 812 -435 c 0,30,31
 740.514 -396.755 740.514 -396.755 652 -306 c 2,32,-1
 415 -63 l 2,33,34
 363.679 -10.3798 363.679 -10.3798 262.599 25.3336 c 2,35,-1
 213 41 l 1,36,-1
 213 231 l 1,37,38
 335.8 235.665 335.8 235.665 457.782 139.602 c 1,39,40
 525.646 125 525.646 125 588 125 c 0,41,42
 710 125 710 125 777 174.5 c 0,43,44
 844 224 844 224 844 313 c 0,45,46
 844 441 844 441 599 490 c 2,47,-1
 591 492 l 1,48,-1
 522 506 l 2,49,50
 361.432 538.579 361.432 538.579 290 610.5 c 0,51,52
 217 684 217 684 217 811 c 0,53,54
 217 972 217 972 326 1059.5 c 0,55,56
 435 1147 435 1147 637 1147 c 0,57,58
 727 1147 727 1147 810 1130.5 c 0,59,60
 893 1114 893 1114 973 1081 c 1,0,-1
EndSplineSet
EndChar
StartChar: uni0240
Encoding: 576 576 576
Width: 1233
Flags: W
TeX: 117 0 0 0
Fore
227 1122 m 1,0,-1
 1040 1122 l 1,1,-1
 1040 954 l 1,2,-1
 378.304 133.319 l 1,3,4
 427.411 115.589 427.411 115.589 459 84 c 2,5,-1
 723 -180 l 1,6,-1
 870 -306 l 2,7,8
 912 -342 912 -342 988 -342 c 2,9,-1
 1040 -342 l 1,10,-1
 1040 -496 l 1,11,-1
 949 -496 l 2,12,13
 865.019 -496 865.019 -496 751 -435 c 0,14,15
 679.514 -396.755 679.514 -396.755 591 -306 c 2,16,-1
 354 -63 l 2,17,18
 292.556 -0.000209808 292.556 -0.000209808 203 0 c 1,19,-1
 203 156 l 1,20,-1
 203 170 l 1,21,-1
 846 975 l 1,22,-1
 227 975 l 1,23,-1
 227 1122 l 1,0,-1
EndSplineSet
EndChar
StartChar: uni0241
Encoding: 577 577 577
Width: 1233
Flags: W
TeX: 117 0 0 0
Fore
373.75 1327 m 2,0,-1
 320.244 1327 320.244 1327 260.25 1280 c 0,31,32
 211.75 1242 211.75 1242 211.75 1128 c 2,33,-1
 211.75 1079 l 1,34,-1
 55.75 1079 l 1,35,-1
 55.75 1149 l 2,36,37
 55.75 1330.01 55.75 1330.01 151.75 1411.5 c 0,38,39
 247.758 1493 247.758 1493 373.75 1493 c 2,9,-1
 669.25 1493 l 2,10,11
 919.25 1493 919.25 1493 1048.25 1379.5 c 128,-1,12
 1177.25 1266 1177.25 1266 1177.25 1047 c 0,13,14
 1177.25 826 1177.25 826 1048.75 713 c 128,-1,15
 920.25 600 920.25 600 669.25 600 c 1,17,-1
 669.25 0 l 1,18,-1
 467.25 0 l 1,19,-1
 467.25 766 l 1,1,-1
 669.25 766 l 2,2,3
 809.25 766 809.25 766 887.75 840 c 128,-1,4
 966.25 914 966.25 914 966.25 1047 c 0,5,6
 966.25 1180 966.25 1180 888.25 1253.5 c 128,-1,7
 810.25 1327 810.25 1327 669.25 1327 c 2,8,-1
 373.75 1327 l 2,0,-1
EndSplineSet
EndChar
StartChar: uni0245
Encoding: 581 581 581
Width: 1233
Flags: W
TeX: 0 0 0 0
Fore
617 1323 m 1,0,-1
 266 0 l 1,1,-1
 57 0 l 1,2,-1
 494 1493 l 1,3,-1
 739 1493 l 1,4,-1
 1176 0 l 1,5,-1
 967 0 l 1,6,-1
 617 1323 l 1,0,-1
EndSplineSet
EndChar
StartChar: uni0250
Encoding: 592 592 592
Width: 1233
Flags: W
Fore
510.5 555 m 1,0,-1
 571.5 555 l 2,1,2
 732.5 555 732.5 555 814 611.5 c 128,-1,3
 895.5 668 895.5 668 895.5 780 c 0,4,5
 895.5 881 895.5 881 834.5 937 c 128,-1,6
 773.5 993 773.5 993 665.5 993 c 0,7,8
 513.5 993 513.5 993 426.5 887.5 c 128,-1,9
 339.5 782 339.5 782 338.5 596 c 1,10,-1
 338.5 555 l 1,11,-1
 510.5 555 l 1,0,-1
153.5 479 m 2,12,-1
 153.5 1118 l 1,13,-1
 338.5 1118 l 1,14,-1
 338.5 952 l 1,15,16
 397.5 1052 397.5 1052 487 1099.5 c 128,-1,17
 576.5 1147 576.5 1147 704.5 1147 c 0,18,19
 875.5 1147 875.5 1147 977.5 1050.5 c 128,-1,20
 1079.5 954 1079.5 954 1079.5 792 c 0,21,22
 1079.5 605 1079.5 605 954 508 c 128,-1,23
 828.5 411 828.5 411 585.5 411 c 2,24,-1
 338.5 411 l 1,25,-1
 338.5 382 l 1,26,27
 339.5 248 339.5 248 406.5 187.5 c 128,-1,28
 473.5 127 473.5 127 620.5 127 c 0,29,30
 714.5 127 714.5 127 810.5 154 c 128,-1,31
 906.5 181 906.5 181 997.5 233 c 1,32,-1
 997.5 49 l 1,33,34
 895.5 10 895.5 10 802 -9.5 c 128,-1,35
 708.5 -29 708.5 -29 620.5 -29 c 0,36,37
 481.5 -29 481.5 -29 383 12 c 128,-1,38
 284.5 53 284.5 53 223.5 135 c 0,39,40
 185.5 185 185.5 185 169.5 258.5 c 128,-1,41
 153.5 332 153.5 332 153.5 479 c 2,12,-1
EndSplineSet
EndChar
StartChar: uni0251
Encoding: 593 593 593
Width: 1233
Flags: W
TeX: 0 0 0 0
Fore
892 977 m 1,0,-1
 892 1116 l 1,1,-1
 1076 1116 l 1,2,-1
 1076 0 l 1,3,-1
 892 0 l 1,4,-1
 892 141 l 1,5,6
 846 58 846 58 769.5 14.5 c 128,-1,7
 693 -29 693 -29 593 -29 c 0,8,9
 390 -29 390 -29 273.5 128.5 c 128,-1,10
 157 286 157 286 157 563 c 0,11,12
 157 836 157 836 274 991.5 c 128,-1,13
 391 1147 391 1147 593 1147 c 0,14,15
 694 1147 694 1147 771 1103.5 c 128,-1,16
 848 1060 848 1060 892 977 c 1,0,-1
351 559 m 0,17,18
 351 345 351 345 419 236 c 128,-1,19
 487 127 487 127 620 127 c 0,20,21
 753 127 753 127 822.5 237 c 128,-1,22
 892 347 892 347 892 559 c 0,23,24
 892 772 892 772 822.5 881.5 c 128,-1,25
 753 991 753 991 620 991 c 0,26,27
 487 991 487 991 419 882 c 128,-1,28
 351 773 351 773 351 559 c 0,17,18
EndSplineSet
EndChar
StartChar: uni0252
Encoding: 594 594 594
Width: 1233
Flags: W
TeX: 0 0 0 0
Fore
341 141 m 1,0,-1
 341 2 l 1,1,-1
 157 2 l 1,2,-1
 157 1118 l 1,3,-1
 341 1118 l 1,4,-1
 341 977 l 1,5,6
 387 1060 387 1060 463.5 1103.5 c 128,-1,7
 540 1147 540 1147 640 1147 c 0,8,9
 843 1147 843 1147 959.5 989.5 c 128,-1,10
 1076 832 1076 832 1076 555 c 0,11,12
 1076 282 1076 282 959 126.5 c 128,-1,13
 842 -29 842 -29 640 -29 c 0,14,15
 539 -29 539 -29 462 14.5 c 128,-1,16
 385 58 385 58 341 141 c 1,0,-1
882 559 m 0,17,18
 882 773 882 773 814 882 c 128,-1,19
 746 991 746 991 613 991 c 0,20,21
 480 991 480 991 410.5 881 c 128,-1,22
 341 771 341 771 341 559 c 0,23,24
 341 346 341 346 410.5 236.5 c 128,-1,25
 480 127 480 127 613 127 c 0,26,27
 746 127 746 127 814 236 c 128,-1,28
 882 345 882 345 882 559 c 0,17,18
EndSplineSet
EndChar
StartChar: uni0253
Encoding: 595 595 595
Width: 1233
Flags: W
TeX: 0 0 0 0
Fore
882 559 m 0,0,1
 882 773 882 773 814 882 c 128,-1,2
 746 991 746 991 613 991 c 0,3,4
 479 991 479 991 410 881.5 c 128,-1,5
 341 772 341 772 341 559 c 0,6,7
 341 347 341 347 410 237 c 128,-1,8
 479 127 479 127 613 127 c 0,9,10
 746 127 746 127 814 236 c 128,-1,11
 882 345 882 345 882 559 c 0,0,1
342 977.125 m 1,13,-1
 386.345 1059.12 386.345 1059.12 462.5 1103 c 128,-1,14
 540 1147 540 1147 642 1147 c 0,15,16
 844 1147 844 1147 960 991.5 c 128,-1,17
 1076 836 1076 836 1076 563 c 0,18,19
 1076 286 1076 286 959.5 128.5 c 128,-1,20
 843 -29 843 -29 640 -29 c 0,21,22
 540 -29 540 -29 463.5 14.5 c 128,-1,23
 387 58 387 58 341 141 c 1,24,-1
 341 0 l 1,25,-1
 157 0 l 1,26,-1
 157 1002 l 1,27,-1
 157 1150 l 2,5,6
 157 1345 157 1345 246 1450 c 128,-1,7
 337.451 1556 337.451 1556 501 1556 c 2,8,-1
 706 1556 l 1,9,-1
 706 1400 l 1,10,-1
 521 1400 l 2,11,12
 431.003 1400 431.003 1400 386 1338 c 128,-1,13
 342 1277.57 342 1277.57 342 1150 c 2,0,-1
 342 977.125 l 1,13,-1
EndSplineSet
EndChar
StartChar: uni0254
Encoding: 596 596 596
Width: 1233
Flags: W
Fore
183.5 1061 m 1,0,1
 257.5 1104 257.5 1104 336 1125.5 c 128,-1,2
 414.5 1147 414.5 1147 496.5 1147 c 0,3,4
 756.5 1147 756.5 1147 903 991 c 128,-1,5
 1049.5 835 1049.5 835 1049.5 559 c 0,6,7
 1049.5 283 1049.5 283 903 127 c 128,-1,8
 756.5 -29 756.5 -29 496.5 -29 c 0,9,10
 415.5 -29 415.5 -29 338.5 -8 c 128,-1,11
 261.5 13 261.5 13 183.5 57 c 1,12,-1
 183.5 250 l 1,13,14
 256.5 185 256.5 185 330 156 c 128,-1,15
 403.5 127 403.5 127 496.5 127 c 0,16,17
 669.5 127 669.5 127 762.5 239 c 128,-1,18
 855.5 351 855.5 351 855.5 559 c 0,19,20
 855.5 766 855.5 766 762 878.5 c 128,-1,21
 668.5 991 668.5 991 496.5 991 c 0,22,23
 400.5 991 400.5 991 324.5 961.5 c 128,-1,24
 248.5 932 248.5 932 183.5 870 c 1,25,-1
 183.5 1061 l 1,0,1
EndSplineSet
EndChar
StartChar: uni0255
Encoding: 597 597 597
Width: 1233
Flags: W
TeX: 0 0 0 0
Fore
609.625 142.487 m 1,0,1
 670.163 123 670.163 123 744.498 123 c 0,2,3
 890.498 123 890.498 123 890.498 180 c 0,4,5
 889.499 255 889.499 255 758.498 255 c 0,6,7
 657.199 255 657.199 255 609.625 142.487 c 1,0,1
573.088 -19.847 m 1,8,9
 567.498 -76.5702 567.498 -76.5702 567.498 -145 c 1,10,-1
 414.498 -148 l 1,11,12
 414.498 -44.1461 414.498 -44.1461 426.98 39.9538 c 1,13,14
 369.746 74.9977 369.746 74.9977 322.498 126 c 0,15,16
 173.498 287 173.498 287 173.498 555 c 0,17,18
 173.498 829 173.498 829 324.498 986 c 0,19,20
 474.499 1143 474.499 1143 736.498 1143 c 0,21,22
 821.503 1143 821.503 1143 902.498 1126 c 0,23,24
 983.502 1108 983.502 1108 1059.5 1073 c 1,25,-1
 1059.5 901 l 1,26,27
 981.49 944.003 981.49 944.003 902.498 966 c 0,28,29
 824.498 987 824.498 987 744.498 987 c 0,30,31
 565.497 987 565.497 987 466.498 874 c 0,32,33
 367.498 760 367.498 760 367.498 555 c 0,34,35
 367.498 350 367.498 350 466.498 236 c 0,36,37
 472.661 228.965 472.661 228.965 479.134 222.369 c 1,38,39
 563.828 398 563.828 398 759.498 398 c 0,40,41
 1058.5 398 1058.5 398 1059.5 152 c 0,42,43
 1060.5 -37 1060.5 -37 726.498 -37 c 0,44,45
 644.426 -37 644.426 -37 573.088 -19.847 c 1,8,9
EndSplineSet
EndChar
StartChar: uni0256
Encoding: 598 598 598
Width: 1233
Flags: W
TeX: 0 0 0 0
Fore
331.476 559 m 128,-1,1
 331.476 344.999 331.476 344.999 385.909 236 c 128,-1,2
 440.346 127 440.346 127 546.815 127 c 128,-1,3
 653.284 127 653.284 127 708.921 237 c 128,-1,4
 764.558 347.005 764.558 347.005 764.558 559 c 0,5,6
 764.558 771.996 764.558 771.996 708.921 881.5 c 128,-1,7
 653.283 991 653.283 991 546.815 991 c 128,-1,8
 440.346 991 440.346 991 385.909 882 c 128,-1,0
 331.476 773.001 331.476 773.001 331.476 559 c 128,-1,1
764.558 977 m 1,9,-1
 764.558 1556 l 1,10,-1
 946.173 1556 l 1,11,-1
 946.173 -20 l 2,12,13
 946.173 -145.999 946.173 -145.999 981.393 -208 c 0,14,15
 1017.42 -270 1017.42 -270 1089.46 -270 c 2,16,-1
 1095.17 -270 l 1,17,-1
 1095.17 -426 l 1,18,-1
 1039.13 -426 l 2,19,20
 907.051 -426 907.051 -426 835.003 -320 c 0,21,22
 763.757 -215.001 763.757 -215.001 763.757 -20 c 2,23,-1
 763.757 141 l 1,24,25
 726.563 57.998 726.563 57.998 666.493 14.5 c 0,26,27
 605.254 -29 605.254 -29 525.2 -29 c 0,28,29
 344.839 -29 344.839 -29 241.335 128.5 c 128,-1,30
 137.827 286.002 137.827 286.002 137.827 563 c 0,31,32
 137.827 835.999 137.827 835.999 241.777 991.5 c 128,-1,33
 345.73 1147 345.73 1147 525.2 1147 c 0,34,35
 606.054 1147 606.054 1147 667.693 1103.5 c 128,-1,36
 729.334 1060 729.334 1060 764.558 977 c 1,9,-1
EndSplineSet
EndChar
StartChar: uni0257
Encoding: 599 599 599
Width: 1233
Flags: W
TeX: 0 0 0 0
Fore
312.303 559 m 128,-1,1
 312.303 344.999 312.303 344.999 366.736 236 c 128,-1,3
 421.173 127 421.173 127 527.643 127 c 128,-1,5
 634.111 127 634.111 127 689.748 237 c 128,-1,7
 745.385 347.005 745.385 347.005 745.385 559 c 0,8,9
 745.385 771.996 745.385 771.996 689.748 881.5 c 128,-1,11
 634.11 991 634.11 991 527.643 991 c 128,-1,13
 421.173 991 421.173 991 366.736 882 c 128,-1,15
 312.303 773.001 312.303 773.001 312.303 559 c 128,-1,1
744.584 1002 m 1,16,-1
 744.584 1150 l 2,17,18
 744.584 1345 744.584 1345 815.83 1450 c 0,19,20
 887.878 1556 887.878 1556 1019.96 1556 c 2,21,-1
 1076 1556 l 1,22,-1
 1076 1400 l 1,23,-1
 1071.29 1400 l 2,24,25
 999.246 1400 999.246 1400 963.22 1338 c 0,26,27
 928 1276 928 1276 928 1150 c 2,28,-1
 928 0 l 1,31,-1
 745.385 0 l 1,32,-1
 745.385 141 l 1,33,34
 708.563 58.0025 708.563 58.0025 647.32 14.5 c 128,-1,36
 586.081 -29 586.081 -29 506.027 -29 c 0,37,38
 326.468 -29 326.468 -29 223.424 128.5 c 128,-1,40
 120.376 286.002 120.376 286.002 120.376 563 c 0,41,42
 120.376 835.999 120.376 835.999 223.863 991.5 c 128,-1,44
 327.355 1147 327.355 1147 506.027 1147 c 0,45,46
 586.881 1147 586.881 1147 648.521 1103.5 c 128,-1,48
 710.161 1060 710.161 1060 745.385 977 c 1,49,-1
 744.584 1002 l 1,16,-1
EndSplineSet
EndChar
StartChar: uni0258
Encoding: 600 600 600
Width: 1233
Flags: W
Fore
122 606 m 2,0,-1
 122 857 122 857 245.5 1002 c 128,-1,21
 369 1147 369 1147 583 1147 c 0,19,20
 823 1147 823 1147 967 987 c 128,-1,18
 1111 827 1111 827 1111 559 c 0,16,17
 1111 284 1111 284 964 127.5 c 128,-1,15
 817 -29 817 -29 556 -29 c 0,13,14
 465 -29 465 -29 367.5 -7.5 c 128,-1,12
 270 14 270 14 165 57 c 1,10,11
 165 240 l 1,9,-1
 274 183 274 183 370 155 c 128,-1,8
 466 127 466 127 554 127 c 0,6,7
 728 127 728 127 823.5 227 c 128,-1,5
 919 327 919 327 919 510 c 2,3,4
 919 516 l 1,2,-1
 122 516 l 1,1,-1
 122 606 l 2,0,-1
306 660 m 1,22,23
 912 659 l 1,28,-1
 896 815 896 815 810 903 c 128,-1,27
 724 991 724 991 591 991 c 0,25,26
 455 991 455 991 382.5 906.5 c 128,-1,24
 310 822 310 822 306 660 c 1,22,23
EndSplineSet
EndChar
StartChar: uni0259
Encoding: 601 601 601
Width: 1233
Flags: W
Fore
122 512 m 2,0,-1
 122 602 l 1,1,-1
 919 602 l 1,2,-1
 919 608 l 2,3,4
 919 791 919 791 823.5 891 c 128,-1,5
 728 991 728 991 554 991 c 0,6,7
 466 991 466 991 370 963 c 128,-1,8
 274 935 274 935 165 878 c 1,9,-1
 165 1061 l 1,10,11
 270 1104 270 1104 367.5 1125.5 c 128,-1,12
 465 1147 465 1147 556 1147 c 0,13,14
 817 1147 817 1147 964 990.5 c 128,-1,15
 1111 834 1111 834 1111 559 c 0,16,17
 1111 291 1111 291 967 131 c 128,-1,18
 823 -29 823 -29 583 -29 c 0,19,20
 369 -29 369 -29 245.5 116 c 128,-1,21
 122 261 122 261 122 512 c 2,0,-1
306 458 m 1,22,23
 310 296 310 296 382.5 211.5 c 128,-1,24
 455 127 455 127 591 127 c 0,25,26
 724 127 724 127 810 215 c 128,-1,27
 896 303 896 303 912 459 c 1,28,-1
 306 458 l 1,22,23
EndSplineSet
EndChar
StartChar: uni025A
Encoding: 602 602 602
Width: 1233
Flags: W
TeX: 0 0 0 0
Fore
578 214 m 1,0,1
 656.001 352.002 656.001 352.002 654 559 c 0,2,3
 654.631 621.088 654.631 621.088 647.215 677.117 c 1,4,-1
 178 321 l 1,5,6
 201 252.002 201 252.002 226 217 c 0,7,8
 288.001 127 288.001 127 391 127 c 0,9,10
 518.999 127 518.999 127 578 214 c 1,0,1
786.642 783.108 m 1,11,12
 810 686.85 810 686.85 810 569 c 0,13,14
 810 293.999 810 293.999 697 132 c 0,15,16
 584 -29 584 -29 393 -29 c 0,17,18
 220.001 -29 220.001 -29 121 116 c 0,19,20
 50.0016 218.995 50.0016 218.995 30 375 c 1,21,-1
 612.188 818.245 l 1,22,23
 597.256 857.128 597.256 857.128 577 892 c 0,24,25
 519.001 991.999 519.001 991.999 360 991 c 0,26,27
 278.007 990.001 278.007 990.001 204 965 c 0,28,29
 128.001 938.999 128.001 938.999 54 887 c 1,30,-1
 54 1061 l 1,31,32
 129.003 1103 129.003 1103 208 1125 c 0,33,34
 287.003 1147 287.003 1147 368 1147 c 0,35,36
 571.999 1147 571.999 1147 691 991 c 0,37,38
 717.969 955.646 717.969 955.646 738.826 914.643 c 1,39,-1
 893 1032 l 1,40,-1
 1033 1032 l 1,41,-1
 1033 884 l 2,42,43
 1033 730.997 1033 730.997 1062 682 c 0,44,45
 1090 634 1090 634 1170 634 c 2,46,-1
 1203 634 l 1,47,-1
 1203 478 l 1,48,-1
 1154 478 l 2,49,50
 1022 478 1022 478 955 574 c 0,51,52
 893 663.999 893 663.999 893 864 c 1,53,-1
 786.642 783.108 l 1,11,12
EndSplineSet
EndChar
StartChar: uni025B
Encoding: 603 603 603
Width: 1233
Flags: W
TeX: 0 0 0 0
Fore
449 607 m 1,0,1
 330 632 330 632 265 697 c 0,2,3
 201 761 201 761 201 855 c 0,4,5
 201 989 201 989 323 1068 c 128,-1,6
 445 1147 445 1147 654 1147 c 0,7,8
 735 1147 735 1147 826 1135 c 0,9,10
 918 1123 918 1123 1023 1099 c 1,11,-1
 1023 932 l 1,12,13
 919 959 919 959 832 972 c 0,14,15
 746 984 746 984 670 984 c 0,16,17
 532 984 532 984 458 941 c 128,-1,18
 384 898 384 898 384 824 c 0,19,20
 384 763 384 763 456 720 c 0,21,22
 528 676 528 676 663 676 c 2,23,-1
 829 676 l 1,24,-1
 829 532 l 1,25,-1
 670 532 l 2,26,27
 520 532 520 532 436 477 c 128,-1,28
 352 422 352 422 352 341 c 0,29,30
 352 243 352 243 442 190 c 0,31,32
 533 138 533 138 706 138 c 0,33,34
 805 138 805 138 896 156 c 0,35,36
 987 173 987 173 1064 207 c 1,37,-1
 1064 34 l 1,38,39
 967 6 967 6 877 -8 c 0,40,41
 786 -22 786 -22 700 -22 c 0,42,43
 446 -22 446 -22 307 69 c 0,44,45
 169 161 169 161 169 327 c 0,46,47
 169 436 169 436 243 510 c 128,-1,48
 317 584 317 584 449 607 c 1,0,1
EndSplineSet
EndChar
StartChar: uni025C
Encoding: 604 604 604
Width: 1233
Flags: W
TeX: 0 0 0 0
Fore
783 607 m 1,0,1
 915 584 915 584 989.5 510 c 128,-1,2
 1064 436 1064 436 1064 327 c 0,3,4
 1064 161 1064 161 925.5 69.5 c 128,-1,5
 787 -22 787 -22 532 -22 c 0,6,7
 447 -22 447 -22 356 -8 c 128,-1,8
 265 6 265 6 169 34 c 1,9,-1
 169 207 l 1,10,11
 245 173 245 173 336 155.5 c 128,-1,12
 427 138 427 138 527 138 c 0,13,14
 700 138 700 138 790.5 190.5 c 128,-1,15
 881 243 881 243 881 341 c 0,16,17
 881 422 881 422 796.5 477 c 128,-1,18
 712 532 712 532 562 532 c 2,19,-1
 404 532 l 1,20,-1
 404 676 l 1,21,-1
 569 676 l 2,22,23
 705 676 705 676 777 719.5 c 128,-1,24
 849 763 849 763 849 824 c 0,25,26
 849 898 849 898 774.5 941 c 128,-1,27
 700 984 700 984 562 984 c 0,28,29
 487 984 487 984 400.5 971.5 c 128,-1,30
 314 959 314 959 210 932 c 1,31,-1
 210 1099 l 1,32,33
 315 1123 315 1123 406.5 1135 c 128,-1,34
 498 1147 498 1147 578 1147 c 0,35,36
 788 1147 788 1147 910 1068 c 128,-1,37
 1032 989 1032 989 1032 855 c 0,38,39
 1032 761 1032 761 967 696.5 c 128,-1,40
 902 632 902 632 783 607 c 1,0,1
EndSplineSet
EndChar
StartChar: uni025D
Encoding: 605 605 605
Width: 1233
Flags: W
TeX: 0 0 0 0
Fore
517.125 607 m 1,0,1
 616.127 583.999 616.127 583.999 671.625 510 c 0,2,3
 727.875 435.999 727.875 435.999 727.875 327 c 0,4,5
 727.875 161.001 727.875 161.001 623.625 69 c 0,6,7
 520.124 -22 520.124 -22 328.875 -22 c 0,8,9
 265.12 -22 265.12 -22 196.875 -8 c 0,10,11
 128.625 6.00098 128.625 6.00098 56.625 34 c 1,12,-1
 56.625 207 l 1,13,14
 113.625 173.001 113.625 173.001 181.875 156 c 0,15,16
 250.125 138 250.125 138 325.125 138 c 0,17,18
 454.874 138 454.874 138 522.375 190 c 0,19,20
 590.625 243.001 590.625 243.001 590.625 341 c 0,21,22
 590.625 422.001 590.625 422.001 526.875 477 c 0,23,24
 463.874 532 463.874 532 351.375 532 c 2,25,-1
 232.875 532 l 1,26,-1
 232.875 676 l 1,27,-1
 356.625 676 l 2,28,29
 458.626 676 458.626 676 512.625 720 c 0,30,31
 566.625 762.999 566.625 762.999 566.625 824 c 0,32,33
 566.625 898.001 566.625 898.001 511.125 941 c 0,34,35
 454.874 984 454.874 984 351.375 984 c 0,36,37
 295.125 984 295.125 984 229.875 972 c 0,38,39
 165.382 959.002 165.382 959.002 87.375 932 c 1,40,-1
 87.375 1099 l 1,41,42
 166.125 1123 166.125 1123 234.375 1135 c 0,43,44
 303.375 1147 303.375 1147 363.375 1147 c 0,45,46
 520.874 1147 520.874 1147 612.375 1068 c 0,47,48
 687.444 1003.19 687.444 1003.19 700.924 901.352 c 1,49,-1
 870.375 1032 l 1,50,-1
 1008.38 1032 l 1,51,-1
 1008.38 884 l 2,52,53
 1008.38 730.999 1008.38 730.999 1036.88 682 c 0,54,55
 1065.38 634 1065.38 634 1144.12 634 c 2,56,-1
 1176.38 634 l 1,57,-1
 1176.38 478 l 1,58,-1
 1128.38 478 l 2,59,60
 997.477 478 997.477 478 931.875 574 c 0,61,62
 870.375 664 870.375 664 870.51 864 c 1,63,-1
 660.375 702.115 l 1,64,-1
 659.826 703.401 l 1,65,-1
 655.125 697 l 2,66,67
 606.375 631.999 606.375 631.999 517.125 607 c 1,0,1
EndSplineSet
EndChar
StartChar: uni025E
Encoding: 606 606 606
Width: 1233
Flags: W
TeX: 0 0 0 0
Fore
670.5 984 m 0,28,29
 331.5 984 331.5 984 330.75 566 c 1,0,0
 330.75 120 330.75 120 670.5 119 c 0,28,29
 788.25 119 788.25 119 843 173 c 128,-1,27
 906.75 237 906.75 237 906.75 311 c 0,25,26
 906.75 389 906.75 389 847.5 443 c 128,-1,24
 815.25 473 815.25 473 676.5 473 c 2,22,23
 540 473 l 9,0,0
 540 630 l 1,21,-1
 676.5 630 l 2,22,23
 815.25 630 815.25 630 847.5 660 c 128,-1,24
 906.75 715 906.75 715 906.75 792 c 0,25,26
 906.75 869 906.75 869 843 930 c 128,-1,27
 786 984 786 984 670.5 984 c 0,28,29
450.75 1099 m 0,32,33
 534.75 1144 534.75 1144 684 1145 c 0,35,36
 856.5 1145 856.5 1145 957 1059 c 128,-1,37
 1057.5 972 1057.5 972 1057.5 824 c 0,38,39
 1057.5 721 1057.5 721 1004.25 650 c 128,-1,40
 951 579 951 579 852.75 552 c 1,0,1
 951 524 951 524 1004.25 453 c 128,-1,40
 1057.5 382 1057.5 382 1057.5 279 c 0,38,39
 1057.5 131 1057.5 131 957 45 c 128,-1,37
 856.5 -42 856.5 -42 684 -42 c 0,35,36
 537 -44 537 -44 450.75 18 c 0,0,0
 175.5 212 175.5 212 175.5 556 c 0,0,0
 175.5 953 175.5 953 450.75 1099 c 0,32,33
EndSplineSet
EndChar
StartChar: uni025F
Encoding: 607 607 607
Width: 1233
Flags: W
Fore
1092.25 616 m 1,0,-1
 1092.25 452 l 1,1,-1
 738.75 452 l 1,2,-1
 738.75 -20 l 2,3,4
 738.75 -215 738.75 -215 649.25 -320.5 c 128,-1,6
 559.75 -426 559.75 -426 394.75 -426 c 2,7,-1
 140.75 -426 l 1,8,-1
 140.75 -270 l 1,9,-1
 374.75 -270 l 2,10,11
 464.75 -270 464.75 -270 509.75 -207.5 c 128,-1,13
 554.75 -145 554.75 -145 554.75 -20 c 2,14,-1
 554.75 452 l 1,15,-1
 171.75 452 l 1,16,-1
 171.75 616 l 1,17,-1
 554.75 616 l 1,18,-1
 554.75 977 l 1,19,-1
 237.75 977 l 1,20,-1
 237.75 1120 l 1,21,-1
 738.75 1120 l 1,22,-1
 738.75 616 l 1,23,-1
 1092.25 616 l 1,0,-1
EndSplineSet
EndChar
StartChar: uni0260
Encoding: 608 608 608
Width: 1233
Flags: W
TeX: 0 0 0 0
Fore
748.65 1116 m 1,0,-1
 748.65 1150 l 2,1,2
 748.65 1345 748.65 1345 820.588 1450 c 0,3,4
 893.333 1556 893.333 1556 1026.7 1556 c 2,5,-1
 1076 1556 l 1,6,-1
 1076 1400 l 1,7,-1
 1049.74 1400 l 2,8,9
 992.087 1400 992.087 1400 963.262 1338 c 0,10,11
 935.079 1276 935.079 1276 935.079 1150 c 2,12,-1
 936.34 72 l 2,13,14
 936.766 -179.482 936.766 -179.482 830.883 -310 c 0,15,16
 725.429 -440 725.429 -440 520.721 -440 c 0,17,18
 459.287 -440 459.287 -440 392.205 -426 c 128,-1,19
 325.117 -411.999 325.117 -411.999 258.033 -385 c 1,20,-1
 258.033 -203 l 1,21,22
 337.251 -249.004 337.251 -249.004 401.904 -271 c 128,-1,23
 466.568 -293 466.568 -293 520.721 -293 c 0,24,25
 641.152 -293 641.152 -293 696.113 -212 c 128,-1,26
 751.076 -131.001 751.076 -131.001 751.076 45 c 2,27,-1
 751.076 53 l 1,28,-1
 751.076 178 l 1,29,30
 715.511 83.9972 715.511 83.9972 654.084 38 c 128,-1,31
 592.656 -8 592.656 -8 504.555 -8 c 0,32,33
 330.734 -8 330.734 -8 226.969 149 c 128,-1,34
 123.209 305.997 123.209 305.997 123.209 569 c 0,35,36
 123.209 802.003 123.209 802.003 226.968 959 c 128,-1,37
 330.734 1116 330.734 1116 504.555 1116 c 1,38,-1
 748.65 1116 l 1,0,-1
751.076 569 m 1,39,-1
 752 992 l 1,40,-1
 537.693 991 l 1,41,42
 428.58 991 428.58 991 371.189 883.5 c 128,-1,43
 313.805 775.999 313.805 775.999 313.805 569 c 128,-1,44
 313.805 362.001 313.805 362.001 371.596 253.5 c 128,-1,45
 429.386 145 429.386 145 539.311 145 c 0,46,47
 641.959 145 641.959 145 696.52 254 c 128,-1,48
 751.076 362.999 751.076 362.999 751.076 569 c 1,39,-1
EndSplineSet
EndChar
StartChar: uni0261
Encoding: 609 609 609
Width: 1233
Flags: W
TeX: 0 0 0 0
Fore
892 569 m 1,0,1
 892 992 l 1,2,-1
 628 991 l 1,3,4
 493 991 493 991 422 883.5 c 128,-1,5
 351 776 351 776 351 569 c 128,-1,7
 351 362 351 362 422.5 253.5 c 128,-1,8
 494 145 494 145 630 145 c 0,9,10
 757 145 757 145 824.5 254 c 128,-1,11
 892 363 892 363 892 569 c 1,0,1
1076 72 m 2,12,13
 1076 -180 1076 -180 957 -310 c 128,-1,14
 838 -440 838 -440 607 -440 c 0,15,16
 531 -440 531 -440 448 -426 c 128,-1,17
 365 -412 365 -412 282 -385 c 1,18,-1
 282 -203 l 1,19,20
 380 -249 380 -249 460 -271 c 128,-1,21
 540 -293 540 -293 607 -293 c 0,22,23
 756 -293 756 -293 824 -212 c 128,-1,24
 892 -131 892 -131 892 45 c 2,25,-1
 892 53 l 1,26,-1
 892 178 l 1,27,28
 848 84 848 84 772 38 c 128,-1,29
 696 -8 696 -8 587 -8 c 0,30,31
 391 -8 391 -8 274 149 c 128,-1,32
 157 306 157 306 157 569 c 0,33,34
 157 796.072 157 796.072 274 959 c 0,35,36
 386.743 1116 386.743 1116 587 1116 c 2,36,37
 1076 1116 l 1,41,-1
 1076 72 l 2,12,13
EndSplineSet
EndChar
StartChar: uni0262
Encoding: 610 610 610
Width: 1233
Flags: W
TeX: 0 0 0 0
Fore
945.5 178 m 128,-1,12
 945.5 460 l 1,4,-1
 790.5 460 l 1,2,-1
 790.5 600 l 1,3,-1
 1111.5 600 l 1,4,-1
 1111.5 72 l 1,2,-1
 1039.5 38 1039.5 38 952.5 18 c 128,-1,16
 874.5 0 874.5 0 672.5 0 c 0,17,18
 419.5 0 419.5 0 270.5 159 c 128,-1,19
 121.5 318 121.5 318 121.5 588 c 0,20,21
 121.5 862 121.5 862 272.5 1019 c 128,-1,22
 422.5 1176 422.5 1176 684.5 1176 c 0,23,24
 746.5 1176 746.5 1176 850.5 1158 c 128,-1,25
 954.5 1141 954.5 1141 1081.5 1066 c 1,0,-1
 1081.5 894 l 1,1,2
 961.5 971 961.5 971 850.5 998 c 128,-1,3
 763.5 1020 763.5 1020 692.5 1020 c 0,4,5
 513.5 1020 513.5 1020 414.5 906 c 128,-1,6
 315.5 793 315.5 793 315.5 588 c 0,7,8
 315.5 383 315.5 383 414.5 270 c 128,-1,9
 513.5 156 513.5 156 692.5 156 c 0,10,11
 865.5 156 865.5 156 945.5 178 c 128,-1,12
EndSplineSet
EndChar
StartChar: uni0263
Encoding: 611 611 611
Width: 1233
Flags: W
TeX: 0 0 0 0
Fore
737.5 572 m 1,5,-1
 1020.5 126.136 1020.5 126.136 1020.5 -194 c 0,0,0
 1020.5 -425.749 1020.5 -425.749 636.5 -430 c 0,0,0
 213.921 -434.857 213.921 -434.857 212.5 -194 c 0,0,0
 210.352 147.713 210.352 147.713 499.5 579 c 1,0,0
 102.5 1120 l 1,0,-1
 319.5 1120 l 1,1,-1
 622.5 720 l 1,2,-1
 913.5 1120 l 1,3,-1
 1130.5 1120 l 1,4,-1
 737.5 572 l 1,5,-1
616.5 452 m 1,0,0
 396.5 144 396.5 144 399.5 -130 c 0,0,0
 401.99 -268.01 401.99 -268.01 615.5 -268 c 16,0,0
 818.948 -267.986 818.948 -267.986 819.5 -130 c 0,0,0
 820.5 120 820.5 120 616.5 452 c 1,0,0
EndSplineSet
EndChar
StartChar: uni0264
Encoding: 612 612 612
Width: 1233
Flags: W
TeX: 0 0 0 0
Fore
500 586 m 1,0,-1
 102 1120 l 1,1,-1
 320 1120 l 1,2,-1
 616 721 l 1,3,-1
 914 1120 l 1,4,-1
 1130 1120 l 1,5,-1
 726 575 l 1,6,7
 904 334 904 334 904 167 c 0,8,9
 904 0 904 0 619 0 c 0,10,11
 316 0 316 0 316 167 c 0,12,13
 316 344 316 344 500 586 c 1,0,-1
608 440 m 1,14,15
 491 282 491 282 491 223 c 0,16,17
 491 119 491 119 614 119 c 16,18,19
 727 119 727 119 727 223 c 0,20,21
 727 286 727 286 608 440 c 1,14,15
EndSplineSet
EndChar
StartChar: uni0265
Encoding: 613 613 613
Width: 1233
Flags: W
Fore
188.5 424 m 2,0,-1
 188.5 1118 l 1,1,-1
 372.5 1118 l 1,2,-1
 372.5 424 l 2,3,4
 372.5 273 372.5 273 426 202 c 128,-1,5
 479.5 131 479.5 131 591.5 131 c 0,6,7
 721.5 131 721.5 131 790.5 222.5 c 128,-1,8
 859.5 314 859.5 314 859.5 485 c 2,9,-1
 859.5 1118 l 1,10,-1
 1044.5 1118 l 1,11,-1
 1044.5 -430 l 1,12,-1
 859.5 -430 l 1,13,-1
 859.5 168 l 1,14,15
 810.5 71 810.5 71 726 21 c 128,-1,16
 641.5 -29 641.5 -29 528.5 -29 c 0,17,18
 356.5 -29 356.5 -29 272.5 83.5 c 128,-1,19
 188.5 196 188.5 196 188.5 424 c 2,0,-1
EndSplineSet
EndChar
StartChar: uni0266
Encoding: 614 614 614
Width: 1233
Flags: W
Fore
373.5 961.5 m 1,13,-1
 372.5 952 l 1,14,15
 421.5 1048 421.5 1048 505.5 1097.5 c 128,-1,16
 589.5 1147 589.5 1147 704.5 1147 c 0,17,18
 875.5 1147 875.5 1147 960 1034.5 c 128,-1,19
 1044.5 922 1044.5 922 1044.5 694 c 2,0,-1
 1044.5 0 l 1,1,-1
 859.5 0 l 1,2,-1
 859.5 694 l 2,3,4
 859.5 845 859.5 845 806.5 916 c 128,-1,5
 753.5 987 753.5 987 640.5 987 c 0,6,7
 511.5 987 511.5 987 442 895.5 c 128,-1,8
 372.5 804 372.5 804 372.5 633 c 2,9,-1
 372.5 0 l 1,10,-1
 188.5 0 l 1,11,-1
 188.5 1002 l 1,12,-1
 188.5 1150 l 2,5,6
 188.5 1345 188.5 1345 277.5 1450 c 128,-1,7
 367.5 1556 367.5 1556 532.5 1556 c 2,8,-1
 737.5 1556 l 1,9,-1
 737.5 1400 l 1,10,-1
 552.5 1400 l 2,11,12
 462.5 1400 462.5 1400 417.5 1338 c 128,-1,13
 373.5 1276 373.5 1276 373.5 1150 c 2,0,-1
 373.5 961.5 l 1,13,-1
EndSplineSet
EndChar
StartChar: uni0267
Encoding: 615 615 615
Width: 1233
Flags: W
Fore
373.5 961.5 m 1,0,-1
 372.5 952 l 1,1,2
 421.499 1048 421.499 1048 505.5 1097.5 c 0,3,4
 589.5 1147 589.5 1147 704.5 1147 c 0,5,6
 875.499 1147 875.499 1147 960 1034.5 c 0,7,8
 1044.5 922.001 1044.5 922.001 1044.5 694 c 2,9,-1
 1044.5 128 l 1,10,-1
 1044.5 0 l 1,11,-1
 1044.5 -20 l 2,12,13
 1044.5 -215.001 1044.5 -215.001 955.5 -320 c 0,14,15
 865.499 -426 865.499 -426 700.5 -426 c 2,16,-1
 495.5 -426 l 1,17,-1
 495.5 -270 l 1,18,-1
 680.5 -270 l 2,19,20
 770.501 -270 770.501 -270 815.5 -208 c 0,21,22
 859.5 -146 859.5 -146 859.5 -20 c 2,23,-1
 859.5 0 l 1,24,-1
 859.5 128 l 1,25,-1
 859.5 694 l 2,26,27
 859.5 845 859.5 845 806.5 916 c 0,28,29
 753.5 987 753.5 987 640.5 987 c 0,30,31
 511.501 987 511.501 987 442 895.5 c 0,32,33
 372.5 804.001 372.5 804.001 372.5 633 c 2,34,-1
 372.5 0 l 1,35,-1
 188.5 0 l 1,36,-1
 188.5 1002 l 1,37,-1
 188.5 1150 l 2,38,39
 188.5 1345 188.5 1345 277.5 1450 c 0,40,41
 367.501 1556 367.501 1556 532.5 1556 c 2,42,-1
 737.5 1556 l 1,43,-1
 737.5 1400 l 1,44,-1
 552.5 1400 l 2,45,46
 462.499 1400 462.499 1400 417.5 1338 c 0,47,48
 373.5 1276 373.5 1276 373.5 1150 c 2,49,-1
 373.5 961.5 l 1,0,-1
EndSplineSet
EndChar
StartChar: uni0268
Encoding: 616 616 616
Width: 1233
Flags: W
Fore
524.5 1556 m 1,0,-1
 708.5 1556 l 1,1,-1
 708.5 1323 l 1,2,-1
 524.5 1323 l 1,3,-1
 524.5 1556 l 1,0,-1
237.5 1120 m 1,4,-1
 708.5 1120 l 1,5,-1
 708.5 616 l 1,6,-1
 1062 616 l 1,7,-1
 1062 452 l 1,8,-1
 708.5 452 l 1,9,-1
 708.5 143 l 1,10,-1
 1073.5 143 l 1,11,-1
 1073.5 0 l 1,12,-1
 159.5 0 l 1,13,-1
 159.5 143 l 1,14,-1
 524.5 143 l 1,15,-1
 524.5 452 l 1,16,-1
 141.5 452 l 1,17,-1
 141.5 616 l 1,18,-1
 524.5 616 l 1,19,-1
 524.5 977 l 1,20,-1
 237.5 977 l 1,21,-1
 237.5 1120 l 1,4,-1
EndSplineSet
EndChar
StartChar: uni0269
Encoding: 617 617 617
Width: 1233
Flags: W
TeX: 0 0 0 0
Fore
1034.5 0 m 17,0,0
 829.5 0 l 17,0,0
 664.5 0 664.5 0 574.5 106 c 128,-1,7
 485.5 208.043 485.5 208.043 485.5 406 c 2,5,6
 485.5 977 l 1,0,0
 198.5 977 l 1,9,-1
 198.5 1120 l 1,0,-1
 669.5 1120 l 1,1,-1
 669.5 406 l 1,2,-1
 668.511 280 668.511 280 713.5 218 c 128,-1,13
 758.5 156 758.5 156 848.5 156 c 2,11,12
 1033.5 156 l 1,10,-1
 1034.5 0 l 17,0,0
EndSplineSet
EndChar
StartChar: uni026A
Encoding: 618 618 618
Width: 1233
Flags: W
TeX: 0 0 0 0
Fore
159.5 1120 m 1,0,-1
 1073.5 1120 l 1,1,-1
 1073.5 977 l 1,0,0
 708.5 977 l 1,0,0
 708.5 143 l 1,2,-1
 1073.5 143 l 1,3,-1
 1073.5 0 l 1,4,-1
 159.5 0 l 1,5,-1
 159.5 143 l 1,6,-1
 524.5 143 l 1,7,-1
 524.5 977 l 1,8,-1
 159.5 977 l 1,9,-1
 159.5 1120 l 1,0,-1
EndSplineSet
EndChar
StartChar: uni026B
Encoding: 619 619 619
Width: 1233
Flags: W
Fore
658.5 406 m 2,0,1
 658.5 258.812 658.5 258.812 704 219 c 0,2,3
 776 156 776 156 838.5 156 c 2,4,-1
 1053.5 156 l 1,5,-1
 1053.5 0 l 1,6,-1
 820.5 0 l 2,7,8
 655.5 0 655.5 0 565 106 c 0,9,10
 474.5 212 474.5 212 474.5 406 c 2,11,-1
 474.5 604.006 l 1,12,13
 427.542 614 427.542 614 381 614 c 0,14,15
 302 614 302 614 231.5 584.5 c 0,16,17
 161 555 161 555 88 492 c 1,18,-1
 88 666 l 1,19,20
 166 726 166 726 239 753 c 0,21,22
 312 780 312 780 395 780 c 0,23,24
 435.632 780 435.632 780 474.5 773.535 c 1,25,-1
 474.5 1423 l 1,26,-1
 179.5 1423 l 1,27,-1
 179.5 1567 l 1,28,-1
 658.5 1567 l 1,29,-1
 658.5 710.351 l 1,30,31
 772.405 657 772.405 657 864 657 c 0,32,33
 934 657 934 657 1002.5 687.5 c 0,34,35
 1071 718 1071 718 1145 780 c 1,36,-1
 1145 606 l 1,37,38
 1070 547 1070 547 998.5 519.5 c 0,39,40
 927 492 927 492 848 492 c 0,41,42
 763.409 492 763.409 492 658.5 537.054 c 1,43,-1
 658.5 406 l 2,0,1
EndSplineSet
EndChar
StartChar: uni026C
Encoding: 620 620 620
Width: 1233
Flags: W
TeX: 0 0 0 0
Fore
681.502 406 m 2,0,1
 681.502 281.999 681.502 281.999 727.002 219 c 0,2,3
 772.503 156 772.503 156 861.502 156 c 2,4,-1
 1076.5 156 l 1,5,-1
 1076.5 0 l 1,6,-1
 843.502 0 l 2,7,8
 678.504 0 678.504 0 588.002 106 c 0,9,10
 497.502 211.998 497.502 211.998 497.502 406 c 2,11,-1
 497.502 595.868 l 1,12,13
 497.083 611.304 497.083 611.304 496.488 626 c 1,14,-1
 435.502 626 l 2,15,16
 155.503 626 155.503 626 156.502 815 c 0,17,18
 157.501 1061 157.501 1061 402.502 1061 c 0,19,20
 455.681 1061 455.681 1061 497.502 1036.1 c 1,21,-1
 497.502 1423 l 1,22,-1
 202.502 1423 l 1,23,-1
 202.502 1567 l 1,24,-1
 681.502 1567 l 1,25,-1
 681.502 786 l 1,26,-1
 931.502 786 l 1,27,-1
 931.502 626 l 1,28,-1
 681.502 626 l 1,29,-1
 681.502 406 l 2,0,1
481.299 786 m 1,30,31
 458.076 918 458.076 918 403.502 918 c 0,32,33
 326.501 918 326.501 918 325.502 843 c 0,34,35
 325.502 786 325.502 786 417.502 786 c 2,36,-1
 481.299 786 l 1,30,31
EndSplineSet
EndChar
StartChar: uni026D
Encoding: 621 621 621
Width: 1233
Flags: W
Fore
658.5 -20 m 2,0,1
 658.5 -143.987 658.5 -143.987 704 -207 c 128,-1,2
 749.5 -270 749.5 -270 838.5 -270 c 2,3,-1
 1053.5 -270 l 1,4,-1
 1053.5 -426 l 1,5,-1
 820.5 -426 l 2,6,7
 661.389 -426 661.389 -426 565 -320 c 128,-1,8
 474.5 -220.476 474.5 -220.476 474.5 -20 c 2,9,-1
 474.5 1423 l 1,10,-1
 179.5 1423 l 1,11,-1
 179.5 1567 l 1,12,-1
 658.5 1567 l 1,13,-1
 658.5 -20 l 2,0,1
EndSplineSet
EndChar
StartChar: uni026E
Encoding: 622 622 622
Width: 1233
Flags: W
TeX: 0 0 0 0
Fore
423.7 406 m 2,0,1
 423.7 282 423.7 282 460.1 219 c 0,2,3
 496.5 156 496.5 156 567.7 156 c 2,4,-1
 739.7 156 l 1,5,-1
 739.7 0 l 1,6,-1
 553.3 0 l 2,7,8
 421.3 0 421.3 0 348.9 106 c 0,9,10
 276.5 212 276.5 212 276.5 406 c 2,11,-1
 276.5 1423 l 1,12,-1
 40.5 1423 l 1,13,-1
 40.5 1567 l 1,14,-1
 423.7 1567 l 1,15,-1
 423.7 1120 l 1,16,-1
 1122.1 1120 l 1,17,-1
 1122.1 952 l 1,18,-1
 793.3 476 l 1,19,20
 877.043 476 877.043 476 980.5 420 c 0,21,22
 1059.32 377.336 1059.32 377.336 1127.7 269 c 0,23,24
 1192.5 165 1192.5 165 1192.5 27 c 0,25,26
 1192.5 -194 1192.5 -194 1070.9 -315 c 0,27,28
 949.301 -436 949.301 -436 725.3 -436 c 0,29,30
 650.1 -436 650.1 -436 570.9 -418 c 0,31,32
 490.896 -398.999 490.896 -398.999 406.1 -362 c 1,33,-1
 406.1 -167 l 1,34,35
 473.298 -215.999 473.298 -215.999 553.3 -241 c 0,36,37
 633.299 -266 633.299 -266 720.5 -266 c 0,38,39
 872.102 -266 872.102 -266 951.7 -191 c 0,40,41
 1031.7 -115.622 1031.7 -115.622 1031.7 27 c 0,42,43
 1031.7 159 1031.7 159 958.1 234 c 0,44,45
 883.7 308 883.7 308 751.7 308 c 2,46,-1
 612.5 308 l 1,47,-1
 612.5 474 l 1,48,-1
 956.5 973 l 1,49,-1
 423.7 973 l 1,50,-1
 423.7 406 l 2,0,1
EndSplineSet
EndChar
StartChar: uni026F
Encoding: 623 623 623
Width: 1233
Flags: W
Fore
562.5 141 m 1,0,1
 528.5 69 528.5 69 476 34.5 c 128,-1,2
 423.5 0 423.5 0 349.5 0 c 0,3,4
 214.5 0 214.5 0 159 104.5 c 128,-1,5
 103.5 209 103.5 209 103.5 498 c 2,6,-1
 103.5 1147 l 1,7,-1
 271.5 1147 l 1,8,-1
 271.5 506 l 2,9,10
 271.5 269 271.5 269 298 211.5 c 128,-1,11
 324.5 154 324.5 154 394.5 154 c 0,12,13
 474.5 154 474.5 154 504 215.5 c 128,-1,14
 533.5 277 533.5 277 533.5 506 c 2,15,-1
 533.5 1147 l 1,16,-1
 701.5 1147 l 1,17,-1
 701.5 506 l 2,18,19
 701.5 266 701.5 266 730 210 c 128,-1,20
 758.5 154 758.5 154 832.5 154 c 0,21,22
 905.5 154 905.5 154 934 215.5 c 128,-1,23
 962.5 277 962.5 277 962.5 506 c 2,24,-1
 962.5 1147 l 1,25,-1
 1129.5 1147 l 1,26,-1
 1129.5 27 l 1,27,-1
 962.5 27 l 1,28,-1
 962.5 123 l 1,29,30
 929.5 63 929.5 63 880 31.5 c 128,-1,31
 830.5 0 830.5 0 767.5 0 c 0,32,33
 691.5 0 691.5 0 641 35 c 128,-1,34
 590.5 70 590.5 70 562.5 141 c 1,0,1
EndSplineSet
EndChar
StartChar: uni0270
Encoding: 624 624 624
Width: 1233
Flags: W
Fore
562.5 141 m 1,0,1
 528.5 69 528.5 69 476 34.5 c 128,-1,2
 423.5 0 423.5 0 349.5 0 c 0,3,4
 214.5 0 214.5 0 159 104.5 c 128,-1,5
 103.5 209 103.5 209 103.5 498 c 2,6,-1
 103.5 1147 l 1,7,-1
 271.5 1147 l 1,8,-1
 271.5 506 l 2,9,10
 271.5 269 271.5 269 298 211.5 c 128,-1,11
 324.5 154 324.5 154 394.5 154 c 0,12,13
 474.5 154 474.5 154 504 215.5 c 128,-1,14
 533.5 277 533.5 277 533.5 506 c 2,15,-1
 533.5 1147 l 1,16,-1
 701.5 1147 l 1,17,-1
 701.5 506 l 2,18,19
 701.5 266 701.5 266 730 210 c 128,-1,20
 758.5 154 758.5 154 832.5 154 c 0,21,22
 905.5 154 905.5 154 934 215.5 c 128,-1,23
 962.5 277 962.5 277 962.5 506 c 2,24,-1
 962.5 1147 l 1,25,-1
 1129.5 1147 l 1,26,-1
 1129.5 -430 l 1,27,-1
 962.5 -430 l 1,28,-1
 962.5 123 l 1,29,30
 929.5 63 929.5 63 880 31.5 c 128,-1,31
 830.5 0 830.5 0 767.5 0 c 0,32,33
 691.5 0 691.5 0 641 35 c 128,-1,34
 590.5 70 590.5 70 562.5 141 c 1,0,1
EndSplineSet
EndChar
StartChar: uni0271
Encoding: 625 625 625
Width: 1233
Flags: W
Fore
670.119 1006 m 1,0,1
 704.118 1078 704.118 1078 756.619 1112.5 c 0,2,3
 809.119 1147 809.119 1147 883.119 1147 c 0,4,5
 1018.12 1147 1018.12 1147 1073.62 1042.5 c 0,6,7
 1129.12 938.001 1129.12 938.001 1129.12 649 c 2,8,-1
 1129.12 128 l 1,9,-1
 1129.87 -20 l 2,10,11
 1130.85 -213.718 1130.85 -213.718 1049.17 -320 c 0,12,13
 967.56 -426 967.56 -426 817.949 -426 c 2,14,-1
 632.07 -426 l 1,15,-1
 632.07 -270 l 1,16,-1
 799.814 -270 l 2,17,18
 881.421 -270 881.421 -270 922.225 -208 c 0,19,20
 962.119 -145.998 962.119 -145.998 962.119 -20 c 2,21,-1
 962.119 5.55112e-16 l 1,22,-1
 961.119 0 l 1,23,-1
 961.119 641 l 2,24,25
 961.119 877.997 961.119 877.997 934.619 935.5 c 0,26,27
 908.121 993 908.121 993 838.119 993 c 0,28,29
 758.118 993 758.118 993 728.619 931.5 c 0,30,31
 699.119 869.998 699.119 869.998 699.119 641 c 2,32,-1
 699.119 0 l 1,33,-1
 531.119 0 l 1,34,-1
 531.119 641 l 2,35,36
 531.119 880.999 531.119 880.999 502.619 937 c 0,37,38
 474.12 993 474.12 993 400.119 993 c 0,39,40
 327.119 993 327.119 993 298.619 931.5 c 0,41,42
 270.119 870 270.119 870 270.119 641 c 2,43,-1
 270.119 0 l 1,44,-1
 103.119 0 l 1,45,-1
 103.119 1120 l 1,46,-1
 270.119 1120 l 1,47,-1
 270.119 1024 l 1,48,49
 303.119 1084 303.119 1084 352.619 1115.5 c 0,50,51
 402.119 1147 402.119 1147 465.119 1147 c 0,52,53
 541.122 1147 541.122 1147 591.619 1112 c 0,54,55
 642.122 1077 642.122 1077 670.119 1006 c 1,0,1
EndSplineSet
EndChar
StartChar: uni0272
Encoding: 626 626 626
Width: 1233
Flags: W
Fore
489 -20 m 1,10,-1
 489 -234 489 -234 428.25 -330 c 0,11,12
 366.75 -426 366.75 -426 231 -426 c 2,5,-1
 178.5 -426 l 1,6,-1
 178.5 -270 l 1,7,-1
 180.5 -270 l 2,8,9
 247.582 -270 247.582 -270 275.5 -222 c 0,10,11
 304 -173 304 -173 304 -20 c 1,11,-1
 304 1120 l 1,12,-1
 489.75 1120 l 1,13,-1
 489.75 946 l 1,14,15
 539.25 1047 539.25 1047 606.75 1097 c 0,16,17
 673.5 1147 673.5 1147 761.25 1147 c 0,17,18
 929.069 1147 929.069 1147 1015.15 1028 c 0,19,20
 1101.24 908 1101.24 908 1101.24 676 c 2,0,-1
 1101.24 0 l 1,1,-1
 916.5 0 l 1,2,-1
 916.5 670 l 2,3,4
 916.5 829 916.5 829 870 908 c 128,-1,5
 823.5 987 823.5 987 730.5 987 c 0,6,7
 618.75 987 618.75 987 554.25 892 c 0,8,9
 489.939 797.286 489.939 797.286 489.75 633 c 2,9,-1
 489 -20 l 1,10,-1
EndSplineSet
EndChar
StartChar: uni0273
Encoding: 627 627 627
Width: 1233
Flags: W
Fore
744 -20 m 2,37,-1
 744 670 l 2,2,3
 744 829 744 829 698 908 c 0,4,5
 651 987 651 987 558 987 c 0,6,7
 446 987 446 987 382 892 c 0,8,9
 317 797 317 797 317 633 c 2,10,-1
 317 0 l 1,11,-1
 136 0 l 1,12,-1
 136 1118 l 1,13,-1
 317 1118 l 1,14,-1
 317 946 l 1,15,16
 367 1047 367 1047 434 1097 c 128,-1,18
 501 1147 501 1147 589 1147 c 0,19,20
 757 1147 757 1147 843 1028 c 0,21,22
 929 908 929 908 929 676 c 2,23,-1
 929 -20 l 2,26,27
 929 -173 929 -173 958 -222 c 0,28,29
 987 -270 987 -270 1050 -270 c 2,30,-1
 1054 -270 l 1,31,-1
 1054 -426 l 1,32,-1
 1002 -426 l 2,33,34
 866 -426 866 -426 806 -330 c 0,35,36
 744 -234 744 -234 744 -20 c 2,37,-1
EndSplineSet
EndChar
StartChar: uni0274
Encoding: 628 628 628
Width: 1233
Flags: W
TeX: 0 0 0 0
Fore
144 1147 m 1,0,-1
 416 1147 l 1,1,-1
 893 244 l 1,2,-1
 893 1147 l 1,3,-1
 1089 1147 l 1,4,-1
 1089 0 l 1,5,-1
 817 0 l 1,6,-1
 340 903 l 1,7,-1
 340 0 l 1,8,-1
 144 0 l 1,9,-1
 144 1147 l 1,0,-1
EndSplineSet
EndChar
StartChar: uni0275
Encoding: 629 629 629
Width: 1233
Flags: W
Fore
616 1147 m 0,0,1
 848.998 1147 848.998 1147 972.5 996 c 0,2,3
 1096 845.002 1096 845.002 1096 559 c 0,4,5
 1096 272.001 1096 272.001 973 121.5 c 0,6,7
 850.001 -29 850.001 -29 616 -29 c 0,8,9
 382.999 -29 382.999 -29 260 121.5 c 0,10,11
 137 272.001 137 272.001 137 559 c 0,12,13
 137 845.001 137 845.001 260 996 c 0,14,15
 383.001 1147 383.001 1147 616 1147 c 0,0,1
616 991 m 0,16,17
 476.001 991 476.001 991 404 882 c 0,18,19
 341.025 786.664 341.025 786.664 333.131 611 c 1,20,-1
 899.869 611 l 1,21,22
 891.975 786.664 891.975 786.664 829 882 c 0,23,24
 756.999 991 756.999 991 616 991 c 0,16,17
895.263 447 m 1,25,-1
 337.737 447 l 1,26,27
 352.323 315.092 352.323 315.092 404 236.5 c 0,28,29
 476 127 476 127 616 127 c 0,30,31
 757 127 757 127 829 236.5 c 0,32,33
 880.677 315.092 880.677 315.092 895.263 447 c 1,25,-1
EndSplineSet
EndChar
StartChar: uni0276
Encoding: 630 630 630
Width: 1233
Flags: W
TeX: 0 0 0 0
Fore
1153.12 1120 m 1,0,-1
 1153.12 949.924 l 1,1,-1
 780 949.924 l 1,2,-1
 780 675 l 1,3,-1
 1135.88 675 l 1,4,-1
 1135.88 520 l 1,5,-1
 780 520 l 1,6,-1
 780 171.919 l 1,7,-1
 1163.62 171.919 l 1,8,-1
 1163.62 0 l 1,9,-1
 564.375 0 l 2,10,11
 320.625 0 320.625 0 195.375 142 c 0,12,13
 69.375 285 69.375 285 69.375 561 c 0,13,14
 69.375 835 69.375 835 195.375 977 c 0,15,16
 320.625 1120 320.625 1120 564.375 1120 c 2,16,-1
 1153.12 1120 l 1,0,-1
595.875 972.976 m 1,17,-1
 572.701 972.976 l 2,18,19
 422.384 972.976 422.384 972.976 347.223 869.242 c 0,20,21
 272.063 766.468 272.063 766.468 272.063 559 c 0,21,22
 272.063 350.571 272.063 350.571 347.223 246.838 c 0,23,24
 422.384 142.143 422.384 142.143 572.701 142.143 c 2,24,-1
 595.875 142.143 l 1,25,-1
 595.875 972.976 l 1,17,-1
EndSplineSet
EndChar
StartChar: uni0277
Encoding: 631 631 631
Width: 1233
Flags: W
TeX: 0 0 0 0
Fore
389.447 780 m 0,0,0
 351.287 684 351.287 684 349.348 664 c 0,1,2
 333.824 552 333.824 552 336.412 486 c 0,28,29
 342.232 319 342.232 319 371.338 256 c 0,30,31
 410.145 171 410.145 171 460.593 171 c 0,25,26
 494.601 171 494.601 171 535.851 250 c 0,27,28
 558.351 293 558.351 293 558.351 478 c 2,22,23
 558.351 660 l 1,21,-1
 675.351 660 l 17,0,0
 675.351 478 l 2,22,23
 675.351 293 675.351 293 697.851 250 c 0,24,25
 739.101 171 739.101 171 771.045 171 c 0,25,26
 819.553 171 819.553 171 860.3 256 c 0,27,28
 889.682 316.572 889.682 316.572 895.226 486 c 0,28,29
 895.807 503.78 895.807 503.78 882.29 664 c 0,30,31
 880.35 687 880.35 687 841.543 780 c 0,0,0
 773.632 940 773.632 940 609.351 940 c 0,0,0
 452.831 940 452.831 940 389.447 780 c 0,0,0
209.601 780 m 0,32,33
 280.851 1148 280.851 1148 616.851 1147 c 0,0,0
 931.851 1145 931.851 1145 1020.35 780 c 8,0,0
 1048.85 660 1048.85 660 1051.85 658 c 0,1,2
 1062.35 557 1062.35 557 1062.35 468 c 0,35,36
 1062.35 238 1062.35 238 997.101 104 c 128,-1,37
 931.851 -30 931.851 -30 821.601 -30 c 0,38,39
 744.351 -30 744.351 -30 691.101 41 c 128,-1,40
 637.851 112 637.851 112 616.851 243 c 1,0,1
 595.851 112 595.851 112 542.601 41 c 128,-1,40
 489.351 -30 489.351 -30 412.101 -30 c 0,38,39
 301.851 -30 301.851 -30 236.601 104 c 0,40,41
 163.851 253 163.851 253 171.351 468 c 0,35,36
 173.601 487 173.601 487 181.851 658 c 0,37,38
 198.351 724 198.351 724 209.601 780 c 0,32,33
EndSplineSet
EndChar
StartChar: uni0278
Encoding: 632 632 632
Width: 1233
Flags: W
TeX: 0 0 0 0
Fore
532 1391 m 1,0,-1
 292 1391 l 1,1,-1
 292 1555 l 1,2,-1
 532 1555 l 1,3,-1
 716 1555 l 1,4,-1
 956 1555 l 1,5,-1
 956 1391 l 1,6,-1
 716 1391 l 1,7,-1
 716 1139.24 l 1,8,9
 876.992 1112.77 876.992 1112.77 972.5 996 c 0,10,11
 1096 845.002 1096 845.002 1096 559 c 0,12,13
 1096 272.001 1096 272.001 973 121.5 c 0,14,15
 877.769 4.97675 877.769 4.97675 716 -21.3292 c 1,16,-1
 716 -261 l 1,17,-1
 956 -261 l 1,18,-1
 956 -425 l 1,19,-1
 716 -425 l 1,20,-1
 532 -425 l 1,21,-1
 292 -425 l 1,22,-1
 292 -261 l 1,23,-1
 532 -261 l 1,24,-1
 532 -23.6435 l 1,25,26
 359.795 -0.607174 359.795 -0.607174 260 121.5 c 0,27,28
 137 272.001 137 272.001 137 559 c 0,29,30
 137 845.001 137 845.001 260 996 c 0,31,32
 359.795 1118.51 359.795 1118.51 532 1141.63 c 1,33,-1
 532 1391 l 1,0,-1
716 974.228 m 1,34,-1
 716 143.848 l 1,35,36
 785.243 169.952 785.243 169.952 829 236.5 c 0,37,38
 901 346 901 346 901 559 c 0,39,40
 901 773.001 901 773.001 829 882 c 0,41,42
 785.243 948.243 785.243 948.243 716 974.228 c 1,34,-1
532 138.621 m 1,43,-1
 532 979.432 l 1,44,45
 452.544 955.49 452.544 955.49 404 882 c 0,46,47
 332 773.001 332 773.001 332 559 c 0,48,49
 332 346 332 346 404 236.5 c 0,50,51
 452.544 162.672 452.544 162.672 532 138.621 c 1,43,-1
EndSplineSet
EndChar
StartChar: uni0279
Encoding: 633 633 633
Width: 1233
Flags: W
Fore
288.5 172 m 1,0,1
 319.5 154 319.5 154 355.5 146 c 128,-1,2
 392.5 137 392.5 137 436.5 137 c 0,3,4
 592.5 137 592.5 137 675.5 238 c 128,-1,5
 759.5 340 759.5 340 759.5 530 c 2,6,-1
 759.5 1120 l 1,7,-1
 944.5 1120 l 1,8,-1
 944.5 0 l 1,9,-1
 759.5 0 l 1,10,-1
 759.5 174 l 1,11,12
 701.5 72 701.5 72 608.5 22 c 128,-1,13
 515.5 -27 515.5 -27 382.5 -27 c 0,14,15
 363.5 -27 363.5 -27 340.5 -24 c 128,-1,16
 317.5 -22 317.5 -22 289.5 -17 c 1,17,-1
 288.5 172 l 1,0,1
EndSplineSet
EndChar
StartChar: uni027A
Encoding: 634 634 634
Width: 1233
Flags: W
Fore
288.5 172 m 1,0,1
 319.5 154 319.5 154 355.5 146 c 0,2,3
 392.5 137 392.5 137 436.5 137 c 0,3,4
 595.5 137 595.5 137 675.5 238 c 0,5,6
 759.5 343 759.5 343 759.5 530 c 2,6,-1
 759.5 1546 l 1,7,-1
 944.5 1546 l 1,8,-1
 944.5 0 l 1,9,-1
 759.5 0 l 1,10,-1
 759.5 174 l 1,11,12
 701.5 72 701.5 72 608.5 22 c 0,13,14
 515.5 -27 515.5 -27 382.5 -27 c 0,14,15
 363.5 -27 363.5 -27 340.5 -24 c 0,16,17
 317.5 -22 317.5 -22 289.5 -17 c 1,17,-1
 288.5 172 l 1,0,1
EndSplineSet
EndChar
StartChar: uni027B
Encoding: 635 635 635
Width: 1233
Flags: W
Fore
173.5 172 m 1,0,1
 204.496 154.002 204.496 154.002 240.5 146 c 0,2,3
 277.499 137 277.499 137 321.5 137 c 0,4,5
 477.5 137 477.5 137 560.5 238 c 0,6,7
 644.5 340 644.5 340 644.5 530 c 2,8,-1
 644.5 1120 l 1,9,-1
 829.5 1120 l 1,10,-1
 829.5 128 l 1,11,-1
 829.5 0 l 1,12,-1
 829.5 -20 l 2,13,14
 829.5 -173.002 829.5 -173.002 867.5 -222 c 0,15,16
 905.501 -270 905.501 -270 1010.5 -270 c 2,17,-1
 1059.5 -270 l 1,18,-1
 1059.5 -426 l 1,19,-1
 989.5 -426 l 2,20,21
 808.5 -426 808.5 -426 727.5 -330 c 0,22,23
 645.5 -233.999 645.5 -233.999 645.5 -20 c 2,24,-1
 645.5 5.55112e-16 l 1,25,-1
 644.5 0 l 1,26,-1
 644.5 174 l 1,27,28
 586.502 72.0022 586.502 72.0022 493.5 22 c 0,29,30
 400.498 -27 400.498 -27 267.5 -27 c 0,31,32
 248.501 -27 248.501 -27 225.5 -24 c 0,33,34
 202.478 -21.9972 202.478 -21.9972 174.5 -17 c 1,35,-1
 173.5 172 l 1,0,1
EndSplineSet
EndChar
StartChar: uni027C
Encoding: 636 636 636
Width: 1233
Flags: W
Fore
944.5 948 m 1,0,1
 913.5 966 913.5 966 877.5 974 c 128,-1,2
 840.5 983 840.5 983 796.5 983 c 0,3,4
 640.5 983 640.5 983 557.5 882 c 128,-1,5
 473.5 780 473.5 780 473.5 590 c 2,6,-1
 473.5 -426 l 1,7,-1
 288.5 -426 l 1,8,-1
 288.5 1120 l 1,9,-1
 473.5 1120 l 1,10,-1
 473.5 946 l 1,11,12
 531.5 1048 531.5 1048 624.5 1098 c 128,-1,13
 717.5 1147 717.5 1147 850.5 1147 c 0,14,15
 869.5 1147 869.5 1147 892.5 1144 c 128,-1,16
 915.5 1142 915.5 1142 943.5 1137 c 1,17,-1
 944.5 948 l 1,0,1
EndSplineSet
EndChar
